<?xml version="1.0" standalone="no"?>
<!DOCTYPE svg PUBLIC "-//W3C//DTD SVG 1.1//EN" "http://www.w3.org/Graphics/SVG/1.1/DTD/svg11.dtd" >
<svg xmlns="http://www.w3.org/2000/svg" xmlns:xlink="http://www.w3.org/1999/xlink" version="1.1">
<metadata>
Created by FontForge 20190801 at Tue Apr 11 23:03:53 1995
 By Jimmy Wärting
Copyright 1990-1995 Bitstream Inc.  All rights reserved.
</metadata>
<defs>
<font id="PosterBodoniBT-Roman" horiz-adv-x="2048" >
  <font-face 
    font-family="PosterBodoni Win95BT"
    font-weight="400"
    font-stretch="normal"
    units-per-em="2048"
    panose-1="2 7 10 2 8 9 5 2 2 4"
    ascent="1638"
    descent="-410"
    x-height="967"
    cap-height="1421"
    bbox="-342 -729 3119 2202"
    underline-thickness="289"
    underline-position="-386"
    unicode-range="U+0020-FB02"
  />
<missing-glyph horiz-adv-x="1229" 
d="M102 -362v1806h1024v-1806h-1024zM217 -248h795v1577h-795v-1577z" />
    <glyph glyph-name=".notdef" horiz-adv-x="1229" 
d="M102 -362v1806h1024v-1806h-1024zM217 -248h795v1577h-795v-1577z" />
    <glyph glyph-name=".null" horiz-adv-x="0" 
 />
    <glyph glyph-name="nonmarkingreturn" horiz-adv-x="680" 
 />
    <glyph glyph-name="space" unicode=" " horiz-adv-x="680" 
 />
    <glyph glyph-name="exclam" unicode="!" horiz-adv-x="711" 
d="M387 494h-63v20q0 84 -12.5 149t-39.5 119q-17 35 -53 100q-100 177 -100 294q0 130 61.5 200t175.5 70t175 -70t61 -200q0 -117 -100 -294q-37 -65 -54 -100q-26 -54 -38.5 -119t-12.5 -149v-20zM102 154q0 92 66 141t188 49q123 0 187.5 -49t64.5 -141q0 -93 -65 -143
t-187 -50t-188 50t-66 143z" />
    <glyph glyph-name="quotedbl" unicode="&#x22;" horiz-adv-x="729" 
d="M565 838h-49l-92 467q-3 15 -3.5 22t-0.5 14q0 55 33.5 89t87.5 34t87.5 -34t33.5 -89q-1 -7 -1.5 -14t-3.5 -23zM213 838h-49l-92 466q-3 16 -3.5 23t-0.5 14q0 55 33 89t87 34t87.5 -34t33.5 -89q0 -7 -0.5 -14t-3.5 -23z" />
    <glyph glyph-name="numbersign" unicode="#" horiz-adv-x="1575" 
d="M707 836l-78 -220h239l78 220h-239zM649 1470h289l-129 -366h227l129 366h289l-129 -366h256l-100 -270h-252l-76 -213h258l-100 -271h-254l-131 -366h-289l131 366h-227l-131 -366h-289l131 366h-258l100 271h254l74 213h-258l98 270h258z" />
    <glyph glyph-name="dollar" unicode="$" horiz-adv-x="1360" 
d="M518 1372q-74 -15 -116 -55.5t-42 -97.5q0 -51 38 -90t120 -72v315zM565 1034l162 -67v419q-8 2 -16.5 2.5t-26.5 0.5q-25 0 -54 -2.5t-65 -8.5v-344zM565 -307h-47v264q-220 13 -346.5 103t-126.5 231q0 90 52 143t139 53t139.5 -45.5t52.5 -119.5q0 -48 -13.5 -85
t-41.5 -65q-14 -14 -47 -38.5t-33 -39.5q0 -25 62.5 -46t162.5 -27v503q-226 85 -328 198.5t-102 278.5q0 169 117.5 287.5t312.5 145.5v131h47v-127q10 0 28 1q55 3 75 3q2 0 10 -1q26 -1 49 -1v125h47v-127q208 -16 329.5 -94.5t121.5 -192.5q0 -84 -51.5 -131t-141.5 -47
q-74 0 -123 44.5t-49 115.5q0 93 78 165q23 21 23 29q0 16 -54 33.5t-133 23.5v-436q274 -111 384 -230.5t110 -297.5q0 -189 -128.5 -309t-365.5 -152v-266h-47v266q-8 0 -24 -1q-59 -3 -80 -3h-58v-262zM565 20h41q30 0 61.5 2t59.5 5v409l-162 68v-484zM774 37
q81 13 130.5 61t49.5 111q0 67 -42 115t-138 92v-379z" />
    <glyph glyph-name="percent" unicode="%" horiz-adv-x="2095" 
d="M444 1298v-618q0 -65 22 -94t71 -29q47 0 68.5 29t21.5 94v618q0 66 -21.5 95.5t-68.5 29.5t-70 -30.5t-23 -94.5zM1462 453v-619q0 -65 22 -94t70 -29t69.5 29t21.5 94v619q0 65 -21.5 95t-69.5 30q-47 0 -69.5 -31t-22.5 -94zM1067 143q0 214 133 344.5t352 130.5
q222 0 355 -130t133 -345q0 -213 -133.5 -343t-354.5 -130q-220 0 -352.5 130t-132.5 343zM594 -332h-90l942 1700q-55 -46 -138.5 -70t-187.5 -24q-55 0 -104.5 7t-97.5 22q54 -73 79 -148t25 -164q0 -213 -133 -344t-352 -131q-221 0 -353.5 130t-132.5 343
q0 214 133 344.5t353 130.5q106 0 294 -64.5t295 -64.5q132 0 234 42t160 120h94z" />
    <glyph glyph-name="ampersand" unicode="&#x26;" horiz-adv-x="1997" 
d="M1157 1028q49 6 71.5 30t22.5 68q0 74 -60.5 169.5t-119.5 95.5q-27 0 -43 -17.5t-16 -46.5q0 -19 3 -31.5t9 -23.5zM1022 174q-120 187 -209 335.5t-162 283.5q-56 -11 -91.5 -49t-35.5 -87q0 -57 39.5 -150t110.5 -200q62 -95 112 -136.5t101 -41.5q41 0 75.5 11.5
t59.5 33.5zM1870 862v-55h-17q-94 0 -208 -163q-86 -123 -154 -193q108 -149 160.5 -196.5t95.5 -47.5q30 0 62 28.5t65 83.5l49 -26q-87 -171 -204 -249.5t-283 -78.5q-132 0 -223 37.5t-150 116.5q-140 -81 -260 -117.5t-244 -36.5q-225 0 -353 105.5t-128 289.5
q0 185 148 312.5t409 165.5q-49 79 -72.5 147.5t-23.5 132.5q0 157 115 242.5t329 85.5q193 0 295 -62.5t102 -179.5q0 -77 -44.5 -129.5t-151.5 -99.5q67 -125 133.5 -239t136.5 -222q59 52 91 105t32 100q0 39 -38 62.5t-105 25.5v55h436z" />
    <glyph glyph-name="quotesingle" unicode="'" horiz-adv-x="379" 
d="M213 838h-47l-92 466q-3 16 -3.5 23t-0.5 14q0 55 33 89t85 34q54 0 87.5 -34t33.5 -89q0 -7 -0.5 -14t-3.5 -23z" />
    <glyph glyph-name="parenleft" unicode="(" horiz-adv-x="958" 
d="M879 -403v-52q-359 42 -564.5 296t-205.5 655t205.5 654.5t564.5 295.5v-51q-189 -17 -261.5 -190t-72.5 -709q0 -537 72.5 -710t261.5 -189z" />
    <glyph glyph-name="parenright" unicode=")" horiz-adv-x="958" 
d="M80 -403q188 16 261 189t73 710q0 536 -73 709t-261 190v51q359 -42 564.5 -295.5t205.5 -654.5t-205.5 -655t-564.5 -296v52z" />
    <glyph glyph-name="asterisk" unicode="*" horiz-adv-x="1024" 
d="M532 1049q71 41 135.5 142t127.5 101q48 0 82 -36.5t34 -88.5q0 -55 -30.5 -82.5t-102.5 -33.5q-9 -1 -31 -3q-119 -9 -190 -40q49 -25 108 -36t138 -11q47 0 77.5 -31t30.5 -78q0 -53 -35.5 -93t-80.5 -40q-65 0 -131.5 100.5t-131.5 145.5q12 -79 57.5 -170.5
t45.5 -118.5q0 -47 -35 -79t-88 -32q-59 0 -91 28.5t-32 80.5q0 29 45 121.5t53 165.5q-64 -43 -129.5 -142.5t-128.5 -99.5q-49 0 -84.5 38.5t-35.5 86.5q0 53 28 79.5t110 36.5q14 2 44 5q111 10 172 41q-43 20 -90 30.5t-113 12.5q-80 1 -115.5 27.5t-35.5 82.5t36 94.5
t88 38.5q60 0 125 -99.5t129 -143.5q-6 74 -52 166.5t-46 125.5q0 45 35 75t88 30q51 0 85 -30t34 -73q0 -32 -44.5 -122.5t-54.5 -171.5z" />
    <glyph glyph-name="plus" unicode="+" horiz-adv-x="1706" 
d="M713 1221h280v-473h459v-273h-459v-475h-280v475h-459v273h459v473z" />
    <glyph glyph-name="comma" unicode="," horiz-adv-x="680" 
d="M143 -401v55q147 48 245.5 143t98.5 178q0 17 -3.5 22t-12.5 5q-7 0 -56 -20.5t-98 -20.5q-95 0 -159 60.5t-64 150.5q0 93 65 153t167 60q117 0 188.5 -83.5t71.5 -219.5q0 -179 -122.5 -313t-320.5 -170z" />
    <glyph glyph-name="hyphen" unicode="-" horiz-adv-x="1006" 
d="M152 274v408h702v-408h-702z" />
    <glyph glyph-name="period" unicode="." horiz-adv-x="680" 
d="M109 172q0 93 64.5 153t166.5 60t166.5 -60t64.5 -153q0 -92 -64.5 -151.5t-166.5 -59.5t-166.5 59.5t-64.5 151.5z" />
    <glyph glyph-name="slash" unicode="/" horiz-adv-x="1053" 
d="M0 -190l944 1636h109l-944 -1636h-109z" />
    <glyph glyph-name="zero" unicode="0" horiz-adv-x="1360" 
d="M784 217v979q0 102 -24.5 147.5t-79.5 45.5t-80 -45.5t-25 -147.5v-979q0 -102 25 -148t80 -46t79.5 46t24.5 148zM49 711q0 335 171.5 533t459.5 198q291 0 461 -198.5t170 -541.5q0 -342 -170 -541.5t-461 -199.5q-294 0 -462.5 199.5t-168.5 550.5z" />
    <glyph glyph-name="one" unicode="1" horiz-adv-x="1360" 
d="M1118 0h-874v59h188v1295h-188v59h389q68 0 134.5 7t131.5 22h37v-1383h182v-59z" />
    <glyph glyph-name="two" unicode="2" horiz-adv-x="1360" 
d="M115 -39h-66q12 171 78.5 302.5t198.5 246.5q16 14 109.5 86t146.5 135q59 72 85.5 148t26.5 174q0 144 -67 229.5t-181 85.5q-66 0 -97.5 -15.5t-31.5 -47.5q0 -30 67 -61q13 -6 20 -9q54 -26 80 -64t26 -90q0 -93 -60 -152t-157 -59q-103 0 -162 62t-59 168
q0 157 144.5 249.5t393.5 92.5q289 0 457 -115.5t168 -312.5q0 -92 -40.5 -170t-117.5 -135q-94 -71 -385 -141q-79 -19 -121 -29q-129 -33 -221 -98.5t-114 -139.5l22 -16q94 62 193 90t221 28q81 0 207.5 -15t173.5 -15q69 0 109 28t46 80h66q-11 -250 -137.5 -385
t-352.5 -135q-121 0 -300 47t-236 47q-59 0 -91 -22.5t-42 -71.5z" />
    <glyph glyph-name="three" unicode="3" horiz-adv-x="1360" 
d="M854 758v-35q204 -29 303.5 -119.5t99.5 -247.5q0 -190 -167.5 -292.5t-483.5 -102.5q-264 0 -397 86t-133 256q0 110 59.5 171t167.5 61q98 0 155.5 -56.5t57.5 -152.5q0 -51 -15.5 -87.5t-47.5 -62.5q-12 -9 -36 -23q-48 -29 -48 -59q0 -33 29 -49t89 -16q116 0 169 64
t53 202v205q0 109 -36 154.5t-124 45.5q-17 0 -43 -4t-35 -4q-11 0 -23 12t-12 25q0 16 11.5 27.5t27.5 11.5q7 0 34 -4t46 -4q83 0 117.5 53t34.5 186v150q0 122 -49.5 176.5t-157.5 54.5q-59 0 -88 -15t-29 -46q0 -27 58 -61q17 -10 24 -15q32 -23 47.5 -55.5t15.5 -77.5
q0 -90 -54.5 -143.5t-145.5 -53.5q-97 0 -158 60.5t-61 156.5q0 148 139 230t391 82q273 0 422 -95t149 -268q0 -135 -89 -216t-267 -105z" />
    <glyph glyph-name="four" unicode="4" horiz-adv-x="1360" 
d="M614 465v620l-512 -620h512zM1270 0h-824v57h166v334h-583v94l786 957h293v-977h170v-74h-170v-334h162v-57z" />
    <glyph glyph-name="five" unicode="5" horiz-adv-x="1360" 
d="M236 680l-54 31q19 110 37.5 293t36.5 438h53q126 -27 241.5 -40t223.5 -13q123 0 248.5 26.5t134.5 26.5q20 0 27.5 -6t7.5 -23q0 -38 -31 -106t-74 -113q-80 -85 -215 -133.5t-294 -48.5q-58 0 -130.5 8t-168.5 24l-27 -272q80 45 184.5 66.5t245.5 21.5
q268 0 427 -121t159 -325q0 -216 -177.5 -334.5t-502.5 -118.5q-244 0 -378 86.5t-134 241.5q0 106 59 166.5t162 60.5q99 0 159 -59t60 -158q0 -43 -12 -77.5t-35 -57.5q-13 -12 -54.5 -40t-41.5 -50q0 -24 25.5 -39t68.5 -15q136 0 196 92.5t60 305.5q0 184 -60 272
t-184 88q-55 0 -114 -23.5t-129 -74.5z" />
    <glyph glyph-name="six" unicode="6" horiz-adv-x="1360" 
d="M592 264q0 -152 20 -193.5t72 -41.5q55 0 75.5 39t20.5 182v6v328q0 84 -18 111.5t-64 27.5q-55 0 -80.5 -50.5t-25.5 -162.5v-246zM592 731q61 57 131.5 84t157.5 27q196 0 315 -115.5t119 -308.5q0 -209 -150.5 -331t-408.5 -122q-337 0 -518 194.5t-181 557.5
q0 333 191.5 529t517.5 196q206 0 327 -80t121 -215q0 -90 -56.5 -144.5t-149.5 -54.5q-106 0 -166 52.5t-60 144.5q0 77 69 132.5t69 68.5q0 19 -24 31t-65 12q-123 0 -181 -88.5t-58 -276.5v-293z" />
    <glyph glyph-name="seven" unicode="7" horiz-adv-x="1360" 
d="M201 887h-64l68 555h63l-22 -193q92 99 196.5 146t231.5 47q100 0 249.5 -42t200.5 -42q62 0 116 26.5t58 26.5q17 0 26 -9.5t9 -27.5q0 -22 -53 -92q-47 -62 -76 -106q-110 -171 -159.5 -302t-71.5 -282q-13 -87 -19 -261t-34 -243q-34 -83 -101.5 -125.5t-165.5 -42.5
q-119 0 -192.5 77t-73.5 204q0 110 61.5 223t186.5 229l301 283q17 16 47 43q74 68 74 88q0 6 -6 10t-17 4q-10 0 -46 -18q-130 -68 -263 -68q-112 0 -263.5 35t-187.5 35h-26q-10 0 -16 -0.5t-11 -2.5z" />
    <glyph glyph-name="eight" unicode="8" horiz-adv-x="1360" 
d="M586 918q0 -91 20 -121.5t74 -30.5t74 28.5t22 122.5v320q0 73 -24 109t-72 36t-71 -35.5t-23 -109.5v-319zM575 186q0 -84 24.5 -119.5t80.5 -35.5q57 0 81.5 35t24.5 120v342q0 99 -23.5 138t-82.5 39q-57 0 -81 -39.5t-24 -137.5v-342zM901 721q201 -29 308.5 -121
t107.5 -235q0 -198 -163 -301t-474 -103t-473 103t-162 301q0 143 107.5 235t308.5 121v31q-196 34 -282.5 111.5t-86.5 217.5q0 176 150.5 268.5t437.5 92.5q288 0 439 -92.5t151 -268.5q0 -140 -86.5 -217.5t-282.5 -111.5v-31z" />
    <glyph glyph-name="nine" unicode="9" horiz-adv-x="1360" 
d="M768 1143q0 151 -20 192t-72 41q-55 0 -75.5 -38.5t-20.5 -188.5v-326q0 -86 17 -112.5t62 -26.5q57 0 83 51t26 162v246zM768 674q-60 -56 -130.5 -82.5t-158.5 -26.5q-196 0 -315 115t-119 307q0 209 150 332t407 123q336 0 518.5 -195.5t182.5 -558.5
q0 -332 -191 -527.5t-518 -195.5q-206 0 -327.5 80t-121.5 215q0 90 57 144.5t150 54.5q105 0 164 -52t59 -145q0 -77 -67.5 -133.5t-67.5 -69.5q0 -18 23.5 -29.5t64.5 -11.5q124 0 182 87.5t58 275.5v293z" />
    <glyph glyph-name="colon" unicode=":" horiz-adv-x="711" 
d="M125 784q0 93 64.5 152t166.5 59t166 -59t64 -152t-64 -152t-166 -59t-166.5 59.5t-64.5 151.5zM125 172q0 93 64.5 153t166.5 60t166 -60t64 -153t-64 -152t-166 -59t-166.5 59.5t-64.5 151.5z" />
    <glyph glyph-name="semicolon" unicode=";" horiz-adv-x="711" 
d="M125 784q0 93 64.5 152t166.5 59t166 -59t64 -152t-64 -152t-166 -59t-166.5 59.5t-64.5 151.5zM160 -401v55q147 48 245.5 143t98.5 178q0 16 -4 21.5t-13 5.5q-7 0 -56.5 -20.5t-98.5 -20.5q-95 0 -158 60t-63 151q0 93 63.5 153t165.5 60q118 0 190 -83.5t72 -219.5
q0 -179 -122.5 -313t-319.5 -170z" />
    <glyph glyph-name="less" unicode="&#x3c;" horiz-adv-x="1706" 
d="M1442 1239v-301l-801 -328l801 -327v-299l-1178 487v281z" />
    <glyph glyph-name="equal" unicode="=" horiz-adv-x="1706" 
d="M254 512h1198v-272h-1198v272zM254 983h1198v-272h-1198v272z" />
    <glyph glyph-name="greater" unicode="&#x3e;" horiz-adv-x="1706" 
d="M264 1239l1178 -487v-281l-1178 -487v299l801 327l-801 328v301z" />
    <glyph glyph-name="question" unicode="?" horiz-adv-x="1090" 
d="M541 496h-72v12q0 80 17 151.5t61 161.5q39 81 54 141.5t15 127.5q0 134 -65.5 208t-183.5 74q-52 0 -84.5 -12t-32.5 -31q0 -28 64 -48q29 -9 44 -15q50 -22 74.5 -60t24.5 -94q0 -87 -59 -140.5t-156 -53.5q-100 0 -161 59t-61 156q0 153 127 233t371 80q281 0 416 -84
t135 -258q0 -64 -26 -121.5t-74 -101.5q-54 -48 -190 -101q-56 -22 -83 -35q-89 -41 -121.5 -94t-33.5 -155zM254 154q0 92 65.5 141t188.5 49q122 0 188 -49t66 -141q0 -93 -66 -143t-188 -50t-188 50t-66 143z" />
    <glyph glyph-name="at" unicode="@" horiz-adv-x="2019" 
d="M1163 305q-58 -94 -128.5 -141t-151.5 -47q-152 0 -241 93t-89 253q0 116 44 219t128 184q76 75 167.5 115.5t182.5 40.5q99 0 154 -43t65 -129l45 149h234l-176 -628q-7 -24 -11 -46t-4 -40q0 -44 18.5 -69.5t49.5 -25.5q27 0 83.5 32.5t102.5 78.5q90 89 135.5 206.5
t45.5 258.5q0 108 -28 202.5t-81 161.5q-85 113 -236 179.5t-321 66.5q-146 0 -281.5 -48.5t-244.5 -139.5q-147 -123 -223 -296t-76 -386q0 -328 199 -517.5t544 -189.5q161 0 309 48t326 159l45 -65q-150 -114 -321 -172t-355 -58q-435 0 -691.5 222.5t-256.5 598.5
q0 180 66 342t192 289q143 144 337 222.5t408 78.5q346 0 558 -191.5t212 -504.5q0 -157 -48 -283t-148 -229q-66 -69 -145.5 -105t-165.5 -36q-101 0 -163.5 52.5t-64.5 137.5zM1139 934q-52 0 -94.5 -32.5t-83.5 -104.5q-64 -109 -103 -236.5t-39 -212.5q0 -69 28.5 -105
t82.5 -36q44 0 85 41t87 133q56 113 91.5 244t35.5 209q0 49 -23 74.5t-67 25.5z" />
    <glyph glyph-name="at" unicode="&#xa0;" horiz-adv-x="2019" 
d="M1163 305q-58 -94 -128.5 -141t-151.5 -47q-152 0 -241 93t-89 253q0 116 44 219t128 184q76 75 167.5 115.5t182.5 40.5q99 0 154 -43t65 -129l45 149h234l-176 -628q-7 -24 -11 -46t-4 -40q0 -44 18.5 -69.5t49.5 -25.5q27 0 83.5 32.5t102.5 78.5q90 89 135.5 206.5
t45.5 258.5q0 108 -28 202.5t-81 161.5q-85 113 -236 179.5t-321 66.5q-146 0 -281.5 -48.5t-244.5 -139.5q-147 -123 -223 -296t-76 -386q0 -328 199 -517.5t544 -189.5q161 0 309 48t326 159l45 -65q-150 -114 -321 -172t-355 -58q-435 0 -691.5 222.5t-256.5 598.5
q0 180 66 342t192 289q143 144 337 222.5t408 78.5q346 0 558 -191.5t212 -504.5q0 -157 -48 -283t-148 -229q-66 -69 -145.5 -105t-165.5 -36q-101 0 -163.5 52.5t-64.5 137.5zM1139 934q-52 0 -94.5 -32.5t-83.5 -104.5q-64 -109 -103 -236.5t-39 -212.5q0 -69 28.5 -105
t82.5 -36q44 0 85 41t87 133q56 113 91.5 244t35.5 209q0 49 -23 74.5t-67 25.5z" />
    <glyph glyph-name="A" unicode="A" horiz-adv-x="1561" 
d="M322 537h368l-184 507zM342 0h-387v59q66 8 109.5 47t70.5 115l428 1200h426l496 -1362h108v-59h-876v59h145l-145 406h-422l-78 -234q-8 -22 -12 -43.5t-4 -37.5q0 -47 30.5 -69t94.5 -22h16v-59z" />
    <glyph glyph-name="B" unicode="B" horiz-adv-x="1763" 
d="M807 59h29q135 0 180 45.5t45 169.5v224q0 119 -49 170t-164 51h-41v-660zM807 772h24q126 0 166.5 41t40.5 152v200q0 109 -44.5 155t-149.5 46h-37v-594zM1055 1421q312 0 451 -80t139 -260q0 -152 -112 -229.5t-351 -89.5v-33q253 -8 374 -95.5t121 -262.5
q0 -191 -150 -281t-472 -90h-1004v59h158v1307h-158v55h1004z" />
    <glyph glyph-name="C" unicode="C" horiz-adv-x="1546" 
d="M1432 938h-62q-66 199 -178 306.5t-252 107.5q-139 0 -189.5 -114.5t-50.5 -578.5q0 -360 60.5 -476.5t214.5 -116.5q167 0 278 107.5t142 299.5h67q-24 -249 -186 -380.5t-445 -131.5q-333 0 -552.5 213t-219.5 531q0 140 56 279.5t151 238.5q105 106 249.5 164.5
t303.5 58.5q105 0 191.5 -24.5t189.5 -84.5l174 109h58v-508z" />
    <glyph glyph-name="D" unicode="D" horiz-adv-x="1810" 
d="M975 1421q365 0 558 -182.5t193 -527.5q0 -346 -193 -528.5t-558 -182.5h-909v59h157v1307h-157v55h909zM827 59h31q139 0 185.5 48.5t46.5 193.5v795q0 165 -45.5 217.5t-186.5 52.5h-31v-1307z" />
    <glyph glyph-name="E" unicode="E" horiz-adv-x="1612" 
d="M1450 1421v-491h-61q-56 231 -170.5 333.5t-317.5 102.5h-82v-612h6q124 0 190 69t81 213h59v-622h-59q-16 144 -82 213t-189 69h-6v-637h111q188 0 307 119t180 367h62v-545h-1407v59h155v1307h-155v55h1378z" />
    <glyph glyph-name="F" unicode="F" horiz-adv-x="1544" 
d="M1450 1421v-491h-61q-56 231 -170.5 333.5t-317.5 102.5h-94v-612h6q123 0 188 68.5t80 213.5h60v-624h-60q-15 146 -80.5 215t-187.5 69h-6v-637h184v-59h-948v59h162v1307h-162v55h1407z" />
    <glyph glyph-name="G" unicode="G" horiz-adv-x="1669" 
d="M819 668v57h811v-57h-108l-1 -541q-58 -5 -113.5 -16t-109.5 -29q-23 -8 -76 -29q-226 -92 -405 -92q-148 0 -270 42t-223 128q-123 105 -194 258t-71 316q0 324 222 533.5t575 209.5q110 0 205 -26.5t192 -84.5l174 109h58v-508h-62q-68 202 -180 308t-258 106
q-156 0 -222.5 -91t-66.5 -313v-727q0 -106 32.5 -153.5t102.5 -47.5q63 0 93 50t30 151v447h-135z" />
    <glyph glyph-name="H" unicode="H" horiz-adv-x="1849" 
d="M41 0v59h168v1307h-168v55h850v-55h-98v-604h264v604h-99v55h850v-55h-168v-1307h168v-59h-850v59h99v641h-264v-641h98v-59h-850z" />
    <glyph glyph-name="I" unicode="I" horiz-adv-x="1049" 
d="M55 0v59h181v1307h-181v55h938v-55h-180v-1307h180v-59h-938z" />
    <glyph glyph-name="J" unicode="J" horiz-adv-x="1270" 
d="M494 1366h-199v55h952v-55h-172v-897q0 -260 -134 -382t-419 -122q-248 0 -382 89t-134 253q0 100 55 160.5t144 60.5q83 0 134.5 -50t51.5 -132q0 -56 -24.5 -100t-67.5 -66q-15 -8 -60.5 -20t-45.5 -35q0 -19 25 -33t61 -14q122 0 200 75.5t78 192.5q0 63 -17 112.5
t-46 71.5v836z" />
    <glyph glyph-name="K" unicode="K" horiz-adv-x="1858" 
d="M51 0v59h166v1307h-166v55h930v-55h-176v-661l498 497q22 23 33.5 43t11.5 39q0 46 -35.5 64t-126.5 18h-72v55h649v-55q-114 0 -199.5 -37.5t-183.5 -136.5l-137 -139l574 -994h143v-59h-934v59h141l-362 629v-629h147v-59h-901z" />
    <glyph glyph-name="L" unicode="L" horiz-adv-x="1518" 
d="M41 0v59h166v1307h-166v55h948v-55h-188v-1307h110q188 0 307.5 119t180.5 367h61v-545h-1419z" />
    <glyph glyph-name="M" unicode="M" horiz-adv-x="1999" 
d="M270 217q0 -97 38.5 -127.5t158.5 -30.5v-59h-457v59q110 0 147.5 31t37.5 127v1149h-177v55h762l205 -596l207 596h766v-55h-162v-1307h162v-59h-905v59h166v1213l-441 -1272h-82l-426 1268v-1051z" />
    <glyph glyph-name="N" unicode="N" horiz-adv-x="1622" 
d="M285 215q0 -97 38 -127.5t158 -30.5v-57h-471v57h15q110 0 147 30.5t37 127.5v1151h-199v55h772l559 -772v557q0 98 -37.5 129t-148.5 31h-12v55h471v-55h-12q-110 0 -147.5 -31t-37.5 -129v-1206h-313l-819 1135v-920z" />
    <glyph glyph-name="O" unicode="O" horiz-adv-x="1667" 
d="M696 266q0 -130 32.5 -189t102.5 -59q72 0 105 59t33 189v877q0 129 -32.5 187.5t-105.5 58.5q-71 0 -103 -58.5t-32 -187.5v-877zM61 705q0 143 55.5 281.5t151.5 236.5q107 109 250.5 166t312.5 57q335 0 554 -212t219 -529q0 -319 -219 -531.5t-554 -212.5
q-147 0 -276.5 44t-230.5 128q-122 100 -192.5 253.5t-70.5 318.5z" />
    <glyph glyph-name="P" unicode="P" horiz-adv-x="1706" 
d="M793 651h30q124 0 167.5 48t43.5 175v269q0 128 -43.5 175.5t-167.5 47.5h-30v-715zM39 0v59h170v1307h-170v55h1032q293 0 433.5 -101t140.5 -312q0 -126 -45.5 -208.5t-145.5 -137.5q-66 -38 -154 -54t-284 -16h-223v-533h192v-59h-946z" />
    <glyph glyph-name="Q" unicode="Q" horiz-adv-x="1667" 
d="M1065 -8q45 -83 104 -121.5t144 -38.5q78 0 140 40t91 110l43 -25q-58 -190 -172.5 -301t-251.5 -111q-123 0 -178 74.5t-55 247.5l-1 98q-18 -1 -51 -4q-57 -4 -75 -4q-121 0 -250.5 48.5t-230.5 131.5q-120 98 -190.5 251.5t-70.5 316.5q0 318 218 529.5t552 211.5
q335 0 554 -212t219 -529q0 -254 -143 -443t-396 -270zM696 217q31 26 63.5 38.5t67.5 12.5q39 0 71.5 -16t55.5 -47q8 25 11.5 50.5t3.5 51.5v836q0 129 -32.5 187.5t-105.5 58.5q-71 0 -103 -58.5t-32 -187.5v-926zM933 26q2 8 2.5 17t0.5 25q0 74 -29.5 112.5t-87.5 38.5
q-50 0 -82 -29.5t-32 -72.5q0 -58 32 -85.5t99 -27.5q37 0 58.5 5.5t38.5 16.5z" />
    <glyph glyph-name="R" unicode="R" horiz-adv-x="1839" 
d="M793 807h38q124 0 165.5 38.5t41.5 143.5v189q0 101 -44.5 144.5t-149.5 43.5h-51v-559zM57 59h152v1307h-152v55h998q312 0 451 -78t139 -251q0 -149 -112.5 -224t-350.5 -86v-38q176 -2 278 -67t148 -204q26 -82 29.5 -216t48.5 -134q22 0 44.5 19.5t43.5 56.5l49 -33
q-55 -97 -154.5 -151t-224.5 -54q-217 0 -323.5 114t-106.5 345q0 26 1 56.5t1 35.5q0 137 -39 181t-154 44h-30v-678h168v-59h-904v59z" />
    <glyph glyph-name="S" unicode="S" horiz-adv-x="1360" 
d="M156 -39h-47q5 87 6.5 130t1.5 79q0 46 -4 123t-10 176h57q95 -208 244.5 -327t308.5 -119q103 0 157 38.5t54 112.5q0 103 -255 217q-24 11 -37 17q-301 138 -411 261t-110 300q0 215 136 346t357 131q80 0 154 -20.5t151 -63.5l224 84h41q0 -50 -2 -106q-1 -15 -1 -19
q0 -91 5 -174.5t14 -173.5h-57q-103 197 -234 304t-268 107q-91 0 -143 -39t-52 -106q0 -102 301 -242q48 -22 74 -34q262 -125 367.5 -245.5t105.5 -283.5q0 -213 -144 -343t-382 -130q-95 0 -181 21.5t-190 72.5z" />
    <glyph glyph-name="T" unicode="T" horiz-adv-x="1532" 
d="M1251 0h-970v59h188v1307q-137 -9 -242 -125t-153 -311h-45v491h1474v-491h-45q-48 195 -153 311t-242 125v-1307h188v-59z" />
    <glyph glyph-name="U" unicode="U" horiz-adv-x="1712" 
d="M1473 387q0 -207 -154.5 -316.5t-448.5 -109.5q-299 0 -464.5 103.5t-165.5 289.5v1010h-174v57h948v-57h-187v-995q0 -147 60.5 -216t187.5 -69q154 0 238 79t84 224v817q0 98 -38 129t-158 33l-1 55h471v-55q-121 -3 -159.5 -33t-38.5 -129v-817z" />
    <glyph glyph-name="V" unicode="V" horiz-adv-x="1522" 
d="M911 0h-315l-528 1366h-115v55h903v-55h-197l359 -924l299 748q8 21 12 39t4 33q0 51 -34 76t-107 28v55h391v-55h-12q-56 0 -96.5 -40t-79.5 -134z" />
    <glyph glyph-name="W" unicode="W" horiz-adv-x="1962" 
d="M762 0h-311l-404 1366h-86v55h733v-55h-86l242 -825l113 393l-117 432h-82v55h760v-55h-119l207 -795l194 686q3 7 4.5 16t1.5 19q0 40 -22 55t-102 19v55h315v-55q-55 -14 -83.5 -42.5t-43.5 -82.5l-356 -1241h-299l-224 795z" />
    <glyph glyph-name="X" unicode="X" horiz-adv-x="1669" 
d="M600 553l-217 -295q-24 -33 -34.5 -58.5t-10.5 -52.5q0 -46 45.5 -67t151.5 -21h18v-59h-580v59q90 4 161 47.5t142 139.5l281 370l-473 750h-100v55h931v-55h-151l268 -418l164 215q24 31 35.5 58t11.5 53q0 48 -45.5 69t-150.5 21h-19v57h576v-57q-88 -4 -157.5 -47
t-146.5 -141l-225 -293l520 -824h91v-59h-932v59h155z" />
    <glyph glyph-name="Y" unicode="Y" horiz-adv-x="1688" 
d="M1350 0h-983v59h190v521l-463 786h-127v55h942v-55h-145l371 -625l247 435q15 26 21 46.5t6 39.5q0 50 -40.5 76t-117.5 26v57h449v-55q-71 -13 -117 -45.5t-86 -101.5l-338 -580v-580h191v-59z" />
    <glyph glyph-name="Z" unicode="Z" horiz-adv-x="1421" 
d="M1333 0h-1298v59l670 1307h-27q-205 0 -345.5 -113t-197.5 -323h-67l34 491h1256v-55l-670 -1307h27q236 0 368.5 112t208.5 380h66z" />
    <glyph glyph-name="bracketleft" unicode="[" horiz-adv-x="958" 
d="M825 -432h-635v1853h635v-69h-223v-1712h223v-72z" />
    <glyph glyph-name="backslash" unicode="\" horiz-adv-x="1053" 
d="M944 -190l-944 1636h109l944 -1636h-109z" />
    <glyph glyph-name="bracketright" unicode="]" horiz-adv-x="958" 
d="M133 -432v72h223v1712h-223v69h635v-1853h-635z" />
    <glyph glyph-name="asciicircum" unicode="^" 
d="M879 1462h288l465 -565h-131l-479 315l-477 -315h-133z" />
    <glyph glyph-name="underscore" unicode="_" horiz-adv-x="1024" 
d="M0 -201h1024v-282h-1024v282z" />
    <glyph glyph-name="grave" unicode="`" horiz-adv-x="1024" 
d="M725 1106h-115l-325 164q-57 28 -81 55.5t-24 63.5q0 45 32 76.5t79 31.5q35 0 69 -20t86 -74z" />
    <glyph glyph-name="a" unicode="a" horiz-adv-x="1337" 
d="M733 508h-28q-93 0 -129.5 -50.5t-36.5 -189.5q0 -88 21.5 -130t68.5 -42q54 0 79 47.5t25 151.5v213zM1305 166l32 -23q-55 -83 -150.5 -132.5t-197.5 -49.5q-82 0 -141 38.5t-94 115.5q-74 -77 -171 -115.5t-218 -38.5q-145 0 -231.5 74t-86.5 196q0 149 151.5 236.5
t411.5 87.5h121v295q0 48 -28.5 70t-90.5 22q-31 0 -54 -10t-23 -21q0 -6 15 -20q52 -49 52 -123q0 -76 -62.5 -115t-183.5 -39q-112 0 -169.5 41.5t-57.5 122.5q0 116 115 166.5t387 50.5q201 0 318 -23.5t171 -74.5q37 -34 52.5 -79.5t15.5 -141.5v-496q0 -34 9.5 -46.5
t33.5 -12.5t43.5 12t30.5 33z" />
    <glyph glyph-name="b" unicode="b" horiz-adv-x="1384" 
d="M819 287v370q0 118 -20 160.5t-70 42.5q-59 0 -87 -61.5t-32 -200.5v-186q0 -158 28 -232t87 -74q49 0 71.5 41t22.5 132v8zM588 -29h-37q-65 15 -132.5 22t-135.5 7h-265v51h123v1319h-123v51h289q69 0 136 7.5t132 21.5h35v-623q26 74 114.5 121t203.5 47
q178 0 288.5 -142.5t110.5 -373.5q0 -234 -111 -376t-294 -142q-131 0 -218 61t-116 173v-224z" />
    <glyph glyph-name="c" unicode="c" horiz-adv-x="1204" 
d="M1102 254l37 -27q-66 -129 -198 -197.5t-318 -68.5q-262 0 -419 143t-157 375q0 235 158 375.5t426 140.5q249 0 382.5 -85t133.5 -242q0 -105 -61.5 -165.5t-167.5 -60.5q-97 0 -154 55.5t-57 149.5q0 59 20 96.5t66 65.5q11 7 31 18q50 27 50 58q0 25 -28.5 41
t-75.5 16q-111 0 -161 -101t-50 -329q0 -268 54 -366.5t186 -98.5q79 0 154.5 51.5t148.5 155.5z" />
    <glyph glyph-name="d" unicode="d" horiz-adv-x="1384" 
d="M563 287q0 -96 23 -138.5t73 -42.5q57 0 83.5 70.5t29.5 234.5v187q0 136 -28.5 199t-88.5 63q-51 0 -71.5 -43.5t-20.5 -159.5v-370zM938 1421q69 0 136 7.5t132 21.5h35v-1399h115v-51h-256q-69 0 -136 -7t-133 -22h-34v224q-30 -112 -117 -173t-217 -61
q-184 0 -295 142t-111 376q0 231 111 373.5t289 142.5q114 0 201.5 -47t113.5 -121v543h-156v51h322z" />
    <glyph glyph-name="e" unicode="e" horiz-adv-x="1290" 
d="M1239 433l-684 -1v-121q0 -135 59 -204.5t172 -69.5q116 0 209.5 53t173.5 164l39 -27q-75 -133 -212.5 -199.5t-336.5 -66.5q-279 0 -445.5 143t-166.5 375q0 229 165.5 372.5t434.5 143.5q283 0 436.5 -146t155.5 -416zM760 479v334q0 69 -25 101t-78 32q-52 0 -77 -32
t-25 -101v-334h205z" />
    <glyph glyph-name="f" unicode="f" horiz-adv-x="825" 
d="M14 0v55h156v840h-158v63l162 1q3 257 109.5 383t322.5 126q137 0 213 -55.5t76 -155.5q0 -73 -46 -115t-126 -42q-73 0 -115.5 38.5t-42.5 104.5q0 62 49.5 98.5t49.5 44.5q-1 12 -11.5 18.5t-27.5 6.5q-78 0 -133.5 -63.5t-55.5 -153.5q0 -99 77 -167.5t189 -68.5h152
v-63h-215v-840h178v-55h-803z" />
    <glyph glyph-name="g" unicode="g" horiz-adv-x="1327" 
d="M367 -137q-22 -23 -35 -55.5t-13 -63.5q0 -75 76.5 -108t249.5 -33q209 0 318.5 39t109.5 114q0 46 -29.5 67t-93.5 21q-25 0 -113 -4t-151 -4q-106 0 -180.5 6.5t-138.5 20.5zM549 596q0 -92 26 -139t76 -47q56 0 80.5 41.5t24.5 144.5v211q0 77 -24.5 112t-78.5 35
q-48 0 -76 -39.5t-28 -107.5v-211zM289 -137v22q-91 43 -135.5 106.5t-44.5 149.5q0 102 69 175.5t176 80.5v15q-123 46 -174 106.5t-51 157.5q0 154 129 237.5t369 83.5q44 0 112.5 -3.5t85.5 -4.5q53 104 129 161.5t160 57.5q79 0 126.5 -40.5t47.5 -108.5q0 -51 -32 -82
t-87 -31q-51 0 -88 30t-37 71q0 7 2.5 19.5t2.5 16.5q0 18 -5 24.5t-16 6.5q-36 0 -73.5 -34.5t-73.5 -100.5q144 -35 219.5 -113.5t75.5 -193.5q0 -155 -128.5 -233.5t-383.5 -78.5q-46 0 -122 6.5t-108 6.5q-52 0 -75 -14t-23 -46q0 -39 37 -56t123 -17q481 0 610 -65.5
t129 -237.5q0 -198 -150.5 -295t-457.5 -97q-295 0 -412 40t-117 136q0 57 45.5 90.5t145.5 51.5z" />
    <glyph glyph-name="h" unicode="h" horiz-adv-x="1432" 
d="M39 0v55h117v1315h-117v51h283q68 0 135.5 7.5t132.5 21.5h37v-614h20q66 83 144.5 121t181.5 38q164 0 235.5 -84.5t71.5 -294.5v-561h115v-55h-647v55h63v660q0 54 -16 80t-50 26q-57 0 -87.5 -64.5t-30.5 -187.5v-514h63v-55h-651z" />
    <glyph glyph-name="i" unicode="i" horiz-adv-x="801" 
d="M141 1276q0 92 66 141t188 49q123 0 188.5 -49t65.5 -141t-65.5 -141.5t-188.5 -49.5q-122 0 -188 49.5t-66 141.5zM33 0v55h133v860h-119v52h289q68 0 135.5 7t132.5 21h35v-940h123v-55h-729z" />
    <glyph glyph-name="j" unicode="j" horiz-adv-x="786" 
d="M154 1276q0 92 65.5 141t188.5 49q122 0 188 -49t66 -141t-66 -141.5t-188 -49.5q-123 0 -188.5 49.5t-65.5 141.5zM334 967q68 0 135.5 7t132.5 21h35v-940q0 -256 -107 -383t-325 -127q-137 0 -212 55t-75 154q0 74 46 116t126 42q71 0 114.5 -38.5t43.5 -102.5
q0 -63 -50.5 -100t-50.5 -46q1 -11 11 -17.5t28 -6.5q77 0 133 63t56 152t-53 150.5t-144 78.5v870h-190v52h346z" />
    <glyph glyph-name="k" unicode="k" horiz-adv-x="1507" 
d="M25 0v55h131v1315h-117v51h283q68 0 135.5 7.5t132.5 21.5h37v-983l301 281q31 27 46 52t15 48q0 36 -35.5 51.5t-119.5 15.5h-54v52h637v-52h-22q-93 0 -163 -24.5t-134 -79.5l-109 -90l455 -666h80v-55h-723v55h119l-248 391l-45 -45v-346h108v-55h-710z" />
    <glyph glyph-name="l" unicode="l" horiz-adv-x="797" 
d="M29 0v55h133v1315h-121v51h291q68 0 135.5 7.5t132.5 21.5h35v-1395h121v-55h-727z" />
    <glyph glyph-name="m" unicode="m" horiz-adv-x="2001" 
d="M594 801q44 93 131 143.5t203 50.5q111 0 186 -52.5t92 -141.5h15q44 93 131 143.5t202 50.5q158 0 226.5 -84.5t68.5 -294.5v-561h109v-55h-615v55h64v660q0 55 -15.5 80.5t-48.5 25.5q-58 0 -89 -65t-31 -187v-514h63v-55h-567v55h63v660q0 54 -16 80t-49 26
q-58 0 -88.5 -64.5t-30.5 -187.5v-514h64v-55h-623v55h117v860h-117v52h235q68 0 134.5 7t132.5 21h37l-3 -194h19z" />
    <glyph glyph-name="n" unicode="n" horiz-adv-x="1432" 
d="M39 0v55h117v860h-117v52h266q69 0 136 7t132 21h35l-2 -194h21q47 94 136.5 144t209.5 50q164 0 235.5 -84.5t71.5 -294.5v-561h115v-55h-647v55h63v660q0 54 -16 80t-50 26q-57 0 -87.5 -64.5t-30.5 -187.5v-514h63v-55h-651z" />
    <glyph glyph-name="o" unicode="o" horiz-adv-x="1339" 
d="M47 479q0 229 171.5 372.5t451.5 143.5q281 0 451.5 -142.5t170.5 -373.5t-171 -374.5t-451 -143.5t-451.5 144.5t-171.5 373.5zM772 147v666q0 69 -24.5 101t-77.5 32t-78 -32t-25 -101v-666q0 -70 24.5 -101.5t78.5 -31.5t78 31.5t24 101.5z" />
    <glyph glyph-name="p" unicode="p" horiz-adv-x="1384" 
d="M39 -455v54h102v1314h-102v54h235q68 0 134.5 7t132.5 21h37l-3 -198h13q37 95 123.5 146.5t210.5 51.5q184 0 294.5 -141t110.5 -375q0 -230 -110.5 -374t-288.5 -144q-103 0 -177.5 35.5t-127.5 109.5l-7 -2v-505h170v-54h-747zM819 678q0 96 -22 138t-72 42
q-57 0 -83 -71t-26 -234v-188q0 -139 27 -201t86 -62q50 0 70 43t20 160v373z" />
    <glyph glyph-name="q" unicode="q" horiz-adv-x="1384" 
d="M563 678v-373q0 -116 20.5 -159.5t71.5 -43.5q59 0 86 61t27 193v9v188q0 163 -25.5 234t-83.5 71q-50 0 -73 -42.5t-23 -137.5zM1346 -455h-748v54h170v505h-6q-53 -73 -128 -108t-177 -35q-178 0 -289 144t-111 374q0 234 111 375t295 141q124 0 210.5 -51.5
t123.5 -146.5h12l-2 198h37q59 -14 126 -21t140 -7h236v-54h-105v-1314h105v-54z" />
    <glyph glyph-name="r" unicode="r" horiz-adv-x="1223" 
d="M43 0v55h119v860h-119v52h283q68 0 135.5 7t132.5 21h35v-239h16q64 125 142 182t186 57q109 0 172 -62t63 -169q0 -102 -62.5 -162.5t-166.5 -60.5q-91 0 -151 49t-60 121v28q0 26 -5.5 37.5t-17.5 11.5q-36 0 -73 -114t-37 -248v-371h158v-55h-750z" />
    <glyph glyph-name="s" unicode="s" horiz-adv-x="1110" 
d="M319 37l-169 -74h-50l-16 369h51q77 -146 206.5 -233t264.5 -87q74 0 114 27t40 76q0 88 -296 176q-43 13 -66 20q-140 43 -222 139.5t-82 217.5q0 143 104.5 235t268.5 92q71 0 142.5 -14t144.5 -43l168 57h41l4 -321h-39q-66 125 -181.5 200.5t-234.5 75.5
q-60 0 -93.5 -23.5t-33.5 -66.5q0 -86 224 -153l21 -6q214 -64 304 -152t90 -227q0 -172 -104 -265.5t-293 -93.5q-82 0 -153.5 17t-154.5 57z" />
    <glyph glyph-name="t" unicode="t" horiz-adv-x="868" 
d="M156 184v731h-127v51q166 5 303.5 93t253.5 264h41v-356h225v-52h-225v-702q0 -67 14 -90t51 -23q53 0 91 61t53 171h43q-7 -173 -120 -272t-304 -99q-151 0 -225 55.5t-74 167.5z" />
    <glyph glyph-name="u" unicode="u" horiz-adv-x="1432" 
d="M1276 51h119v-51h-269q-68 0 -135.5 -7t-132.5 -22h-35l2 185h-18q-48 -94 -138 -144.5t-210 -50.5q-164 0 -235.5 85.5t-71.5 295.5v573h-113v52h278q69 0 136.5 7t132.5 21h35v-751q0 -55 16 -81t49 -26q59 0 90 64.5t31 185.5v528h-66v52h232q68 0 134 7t132 21h37
v-944z" />
    <glyph glyph-name="v" unicode="v" horiz-adv-x="1266" 
d="M786 0h-286l-410 915h-96v52h715v-52h-119l262 -587l184 456q5 13 7.5 28.5t3.5 31.5q0 38 -30.5 54.5t-98.5 16.5v52h346v-52h-4q-55 0 -98 -46.5t-89 -157.5z" />
    <glyph glyph-name="w" unicode="w" horiz-adv-x="1810" 
d="M748 0h-332l-328 915h-90v52h618v-52h-53l228 -641l94 246l-133 395h-72v52h651v-52h-108l200 -610l187 479q8 23 12 40.5t4 29.5q0 34 -22.5 47.5t-79.5 13.5h-15v52h312v-52h-4q-91 0 -169 -196l-4 -9l-278 -710h-305l-148 436z" />
    <glyph glyph-name="x" unicode="x" horiz-adv-x="1413" 
d="M532 0h-505v55h10q48 0 103.5 31.5t117.5 93.5l236 234l-347 501h-108v52h754v-52h-107l197 -280l121 119q18 18 28 39.5t10 42.5q0 40 -31 59.5t-93 19.5h-11v52h465v-52q-1 0 -5.5 1t-8.5 2q-50 0 -128 -51t-169 -144l-141 -141l366 -527h96v-55h-731v55h88l-213 305
l-106 -104q-31 -29 -45.5 -56.5t-14.5 -58.5q0 -41 40 -63.5t114 -22.5h18v-55z" />
    <glyph glyph-name="y" unicode="y" horiz-adv-x="1327" 
d="M621 -18l-539 933h-107v52h746v-52h-117l287 -473l196 338q13 22 18 36.5t5 27.5q0 36 -27 52t-102 20v51h344v-52q-107 -19 -189 -160q-5 -9 -7 -13l-523 -908q-93 -162 -177.5 -226.5t-199.5 -64.5q-109 0 -178 61t-69 156q0 87 50 135t140 48q78 0 125 -43.5
t47 -114.5q0 -52 -41 -92.5t-41 -50.5q0 -13 10 -20t27 -7q50 0 120.5 66t131.5 174z" />
    <glyph glyph-name="z" unicode="z" horiz-adv-x="1204" 
d="M33 0v51l555 869h-58q-130 0 -224.5 -78t-158.5 -238h-47l17 363h1009v-47l-561 -869h66q169 0 276 79.5t168 250.5h53l-18 -381h-1077z" />
    <glyph glyph-name="braceleft" unicode="{" horiz-adv-x="1024" 
d="M856 1516v-72q-100 -3 -137 -53.5t-37 -208.5v-125q0 -227 -47 -308t-170 -114q123 -35 170 -115t47 -305v-127q0 -158 37 -208.5t137 -54.5v-69q-244 0 -333 72.5t-89 271.5v176q0 172 -54 235.5t-202 78.5v90q148 14 202 78t54 235v176q0 201 89.5 274t332.5 73z" />
    <glyph glyph-name="bar" unicode="|" horiz-adv-x="1024" 
d="M373 1565h280v-2048h-280v2048z" />
    <glyph glyph-name="braceright" unicode="}" horiz-adv-x="1024" 
d="M168 1516q243 0 332.5 -73.5t89.5 -273.5v-176q0 -171 54 -235t202 -78v-90q-148 -15 -202 -78.5t-54 -235.5v-176q0 -198 -89 -271t-333 -73v69q100 4 137 55t37 208v127q0 225 47 305t170 115q-123 33 -170 114t-47 308v125q0 156 -37.5 207.5t-136.5 54.5v72z" />
    <glyph glyph-name="asciitilde" unicode="~" horiz-adv-x="1706" 
d="M1530 842v-299q-102 -69 -192 -101t-179 -32q-54 0 -111.5 11.5t-154.5 45.5q-124 42 -194.5 56t-137.5 14q-84 0 -176 -38t-207 -120v299q119 75 216.5 109t191.5 34q58 0 123 -12t155 -41q22 -7 64 -22q152 -54 235 -54q86 0 175 36.5t192 113.5z" />
    <glyph glyph-name="Adieresis" unicode="&#xc4;" horiz-adv-x="1561" 
d="M322 537h368l-184 507zM342 0h-387v59q66 8 109.5 47t70.5 115l428 1200h426l496 -1362h108v-59h-876v59h145l-145 406h-422l-78 -234q-8 -22 -12 -43.5t-4 -37.5q0 -47 30.5 -69t94.5 -22h16v-59zM831 1743q0 56 43 99t101 43q59 0 101 -41.5t42 -100.5
q0 -62 -41 -103.5t-102 -41.5q-60 0 -102 42.5t-42 102.5zM440 1743q0 56 44 99t101 43q60 0 101 -41.5t41 -100.5q0 -63 -40 -104t-102 -41q-59 0 -102 42.5t-43 102.5z" />
    <glyph glyph-name="Aring" unicode="&#xc5;" horiz-adv-x="1561" 
d="M647 1706q0 -51 35.5 -87t87.5 -36q51 0 87 36t36 87t-36 87t-87 36q-52 0 -87.5 -36t-35.5 -87zM504 1706q0 111 77 188.5t187 77.5q111 0 189.5 -78t78.5 -188q0 -111 -78 -188.5t-190 -77.5q-111 0 -187.5 77t-76.5 189zM342 0h-387v59q66 8 109.5 47t70.5 115
l418 1172h444l488 -1334h108v-59h-876v59h145l-145 406h-422l-78 -234q-8 -22 -12 -43.5t-4 -37.5q0 -47 30.5 -69t94.5 -22h16v-59zM322 537h368l-184 507z" />
    <glyph glyph-name="Ccedilla" unicode="&#xc7;" horiz-adv-x="1546" 
d="M1432 938h-62q-66 199 -178 306.5t-252 107.5q-139 0 -189.5 -114.5t-50.5 -578.5q0 -360 60.5 -476.5t214.5 -116.5q167 0 278 107.5t142 299.5h67q-24 -249 -186 -380.5t-445 -131.5q-333 0 -552.5 213t-219.5 531q0 140 56 279.5t151 238.5q105 106 249.5 164.5
t303.5 58.5q105 0 191.5 -24.5t189.5 -84.5l174 109h58v-508zM512 -379l47 103q67 -39 128 -58.5t116 -19.5q35 0 57.5 20.5t22.5 54.5q0 41 -23 61.5t-68 20.5q-15 0 -56 -7q-4 0 -7 -1v203h88v-115q24 4 44 6t34 2q78 0 127 -48t49 -124q0 -84 -60 -136t-157 -52
q-69 0 -143 18.5t-199 71.5z" />
    <glyph glyph-name="Eacute" unicode="&#xc9;" horiz-adv-x="1612" 
d="M1450 1421v-491h-61q-56 231 -170.5 333.5t-317.5 102.5h-82v-612h6q124 0 190 69t81 213h59v-622h-59q-16 144 -82 213t-189 69h-6v-637h111q188 0 307 119t180 367h62v-545h-1407v59h155v1307h-155v55h1378zM594 1557l279 297q52 54 86 74t69 20q47 0 79 -31.5
t32 -76.5q0 -36 -24 -63.5t-81 -55.5l-325 -164h-115z" />
    <glyph glyph-name="Ntilde" unicode="&#xd1;" horiz-adv-x="1622" 
d="M285 215q0 -97 38 -127.5t158 -30.5v-57h-471v57h15q110 0 147 30.5t37 127.5v1151h-199v55h772l559 -772v557q0 98 -37.5 129t-148.5 31h-12v55h471v-55h-12q-110 0 -147.5 -31t-37.5 -129v-1206h-313l-819 1135v-920zM583 1588h-84q27 135 84 200.5t148 65.5
q18 0 36.5 -3t41.5 -9l120 -31q20 -5 29 -6.5t16 -1.5q37 0 58.5 21t38.5 73h82q-29 -139 -85 -202.5t-149 -63.5q-16 0 -32.5 2t-30.5 6l-117 33q-24 6 -36.5 8t-20.5 2q-40 0 -64.5 -23.5t-34.5 -70.5z" />
    <glyph glyph-name="Odieresis" unicode="&#xd6;" horiz-adv-x="1667" 
d="M696 266q0 -130 32.5 -189t102.5 -59q72 0 105 59t33 189v877q0 129 -32.5 187.5t-105.5 58.5q-71 0 -103 -58.5t-32 -187.5v-877zM61 705q0 143 55.5 281.5t151.5 236.5q107 109 250.5 166t312.5 57q335 0 554 -212t219 -529q0 -319 -219 -531.5t-554 -212.5
q-147 0 -276.5 44t-230.5 128q-122 100 -192.5 253.5t-70.5 318.5zM885 1743q0 56 43 99t101 43q59 0 101 -41.5t42 -100.5q0 -62 -41 -103.5t-102 -41.5q-60 0 -102 42.5t-42 102.5zM494 1743q0 56 44 99t101 43q60 0 101 -41.5t41 -100.5q0 -63 -40 -104t-102 -41
q-59 0 -102 42.5t-43 102.5z" />
    <glyph glyph-name="Udieresis" unicode="&#xdc;" horiz-adv-x="1712" 
d="M1473 387q0 -207 -154.5 -316.5t-448.5 -109.5q-299 0 -464.5 103.5t-165.5 289.5v1010h-174v57h948v-57h-187v-995q0 -147 60.5 -216t187.5 -69q154 0 238 79t84 224v817q0 98 -38 129t-158 33l-1 55h471v-55q-121 -3 -159.5 -33t-38.5 -129v-817zM940 1743q0 56 43 99
t101 43q59 0 101 -41.5t42 -100.5q0 -62 -41 -103.5t-102 -41.5q-60 0 -102 42.5t-42 102.5zM549 1743q0 56 44 99t101 43q60 0 101 -41.5t41 -100.5q0 -63 -40 -104t-102 -41q-59 0 -102 42.5t-43 102.5z" />
    <glyph glyph-name="aacute" unicode="&#xe1;" horiz-adv-x="1337" 
d="M733 508h-28q-93 0 -129.5 -50.5t-36.5 -189.5q0 -88 21.5 -130t68.5 -42q54 0 79 47.5t25 151.5v213zM1305 166l32 -23q-55 -83 -150.5 -132.5t-197.5 -49.5q-82 0 -141 38.5t-94 115.5q-74 -77 -171 -115.5t-218 -38.5q-145 0 -231.5 74t-86.5 196q0 149 151.5 236.5
t411.5 87.5h121v295q0 48 -28.5 70t-90.5 22q-31 0 -54 -10t-23 -21q0 -6 15 -20q52 -49 52 -123q0 -76 -62.5 -115t-183.5 -39q-112 0 -169.5 41.5t-57.5 122.5q0 116 115 166.5t387 50.5q201 0 318 -23.5t171 -74.5q37 -34 52.5 -79.5t15.5 -141.5v-496q0 -34 9.5 -46.5
t33.5 -12.5t43.5 12t30.5 33zM457 1106l279 297q52 54 86 74t69 20q47 0 79 -31.5t32 -76.5q0 -36 -24 -63.5t-81 -55.5l-325 -164h-115z" />
    <glyph glyph-name="agrave" unicode="&#xe0;" horiz-adv-x="1337" 
d="M733 508h-28q-93 0 -129.5 -50.5t-36.5 -189.5q0 -88 21.5 -130t68.5 -42q54 0 79 47.5t25 151.5v213zM1305 166l32 -23q-55 -83 -150.5 -132.5t-197.5 -49.5q-82 0 -141 38.5t-94 115.5q-74 -77 -171 -115.5t-218 -38.5q-145 0 -231.5 74t-86.5 196q0 149 151.5 236.5
t411.5 87.5h121v295q0 48 -28.5 70t-90.5 22q-31 0 -54 -10t-23 -21q0 -6 15 -20q52 -49 52 -123q0 -76 -62.5 -115t-183.5 -39q-112 0 -169.5 41.5t-57.5 122.5q0 116 115 166.5t387 50.5q201 0 318 -23.5t171 -74.5q37 -34 52.5 -79.5t15.5 -141.5v-496q0 -34 9.5 -46.5
t33.5 -12.5t43.5 12t30.5 33zM883 1106h-115l-325 164q-57 28 -81 55.5t-24 63.5q0 45 32 76.5t79 31.5q35 0 69 -20t86 -74z" />
    <glyph glyph-name="acircumflex" unicode="&#xe2;" horiz-adv-x="1337" 
d="M733 508h-28q-93 0 -129.5 -50.5t-36.5 -189.5q0 -88 21.5 -130t68.5 -42q54 0 79 47.5t25 151.5v213zM1305 166l32 -23q-55 -83 -150.5 -132.5t-197.5 -49.5q-82 0 -141 38.5t-94 115.5q-74 -77 -171 -115.5t-218 -38.5q-145 0 -231.5 74t-86.5 196q0 149 151.5 236.5
t411.5 87.5h121v295q0 48 -28.5 70t-90.5 22q-31 0 -54 -10t-23 -21q0 -6 15 -20q52 -49 52 -123q0 -76 -62.5 -115t-183.5 -39q-112 0 -169.5 41.5t-57.5 122.5q0 116 115 166.5t387 50.5q201 0 318 -23.5t171 -74.5q37 -34 52.5 -79.5t15.5 -141.5v-496q0 -34 9.5 -46.5
t33.5 -12.5t43.5 12t30.5 33zM348 1106l230 371h184l230 -371h-101l-221 172l-221 -172h-101z" />
    <glyph glyph-name="adieresis" unicode="&#xe4;" horiz-adv-x="1337" 
d="M733 508h-28q-93 0 -129.5 -50.5t-36.5 -189.5q0 -88 21.5 -130t68.5 -42q54 0 79 47.5t25 151.5v213zM1305 166l32 -23q-55 -83 -150.5 -132.5t-197.5 -49.5q-82 0 -141 38.5t-94 115.5q-74 -77 -171 -115.5t-218 -38.5q-145 0 -231.5 74t-86.5 196q0 149 151.5 236.5
t411.5 87.5h121v295q0 48 -28.5 70t-90.5 22q-31 0 -54 -10t-23 -21q0 -6 15 -20q52 -49 52 -123q0 -76 -62.5 -115t-183.5 -39q-112 0 -169.5 41.5t-57.5 122.5q0 116 115 166.5t387 50.5q201 0 318 -23.5t171 -74.5q37 -34 52.5 -79.5t15.5 -141.5v-496q0 -34 9.5 -46.5
t33.5 -12.5t43.5 12t30.5 33zM721 1292q0 56 43 99t101 43q59 0 101 -41.5t42 -100.5q0 -62 -41 -103.5t-102 -41.5q-60 0 -102 42.5t-42 102.5zM330 1292q0 56 44 99t101 43q60 0 101 -41.5t41 -100.5q0 -63 -40 -104t-102 -41q-59 0 -102 42.5t-43 102.5z" />
    <glyph glyph-name="atilde" unicode="&#xe3;" horiz-adv-x="1337" 
d="M733 508h-28q-93 0 -129.5 -50.5t-36.5 -189.5q0 -88 21.5 -130t68.5 -42q54 0 79 47.5t25 151.5v213zM1305 166l32 -23q-55 -83 -150.5 -132.5t-197.5 -49.5q-82 0 -141 38.5t-94 115.5q-74 -77 -171 -115.5t-218 -38.5q-145 0 -231.5 74t-86.5 196q0 149 151.5 236.5
t411.5 87.5h121v295q0 48 -28.5 70t-90.5 22q-31 0 -54 -10t-23 -21q0 -6 15 -20q52 -49 52 -123q0 -76 -62.5 -115t-183.5 -39q-112 0 -169.5 41.5t-57.5 122.5q0 116 115 166.5t387 50.5q201 0 318 -23.5t171 -74.5q37 -34 52.5 -79.5t15.5 -141.5v-496q0 -34 9.5 -46.5
t33.5 -12.5t43.5 12t30.5 33zM426 1137h-84q27 135 84 200.5t148 65.5q18 0 36.5 -3t41.5 -9l120 -31q20 -5 29 -6.5t16 -1.5q37 0 58.5 21t38.5 73h82q-29 -139 -85 -202.5t-149 -63.5q-16 0 -32.5 2t-30.5 6l-117 33q-24 6 -36.5 8t-20.5 2q-40 0 -64.5 -23.5t-34.5 -70.5
z" />
    <glyph glyph-name="aring" unicode="&#xe5;" horiz-adv-x="1337" 
d="M530 1329q0 -51 35.5 -86t87.5 -35q51 0 87 35.5t36 85.5q0 51 -36 87t-87 36t-87 -36t-36 -87zM387 1329q0 111 78 188.5t188 77.5q111 0 189 -77.5t78 -188.5t-78 -188.5t-189 -77.5t-188.5 77.5t-77.5 188.5zM1305 166l32 -23q-55 -83 -150.5 -132.5t-197.5 -49.5
q-82 0 -141 38.5t-94 115.5q-74 -77 -171 -115.5t-218 -38.5q-145 0 -231.5 74t-86.5 196q0 149 151.5 236.5t411.5 87.5h121v295q0 48 -28.5 70t-90.5 22q-31 0 -54 -10t-23 -21q0 -6 15 -20q52 -49 52 -123q0 -76 -62.5 -115t-183.5 -39q-112 0 -169.5 41.5t-57.5 122.5
q0 116 115 166.5t387 50.5q201 0 318 -23.5t171 -74.5q37 -34 52.5 -79.5t15.5 -141.5v-496q0 -34 9.5 -46.5t33.5 -12.5t43.5 12t30.5 33zM733 508h-28q-93 0 -129.5 -50.5t-36.5 -189.5q0 -88 21.5 -130t68.5 -42q54 0 79 47.5t25 151.5v213z" />
    <glyph glyph-name="ccedilla" unicode="&#xe7;" horiz-adv-x="1204" 
d="M1102 254l37 -27q-66 -129 -198 -197.5t-318 -68.5q-262 0 -419 143t-157 375q0 235 158 375.5t426 140.5q249 0 382.5 -85t133.5 -242q0 -105 -61.5 -165.5t-167.5 -60.5q-97 0 -154 55.5t-57 149.5q0 59 20 96.5t66 65.5q11 7 31 18q50 27 50 58q0 25 -28.5 41
t-75.5 16q-111 0 -161 -101t-50 -329q0 -268 54 -366.5t186 -98.5q79 0 154.5 51.5t148.5 155.5zM340 -379l47 103q67 -39 128 -58.5t116 -19.5q35 0 57.5 20.5t22.5 54.5q0 41 -23 61.5t-68 20.5q-15 0 -56 -7q-4 0 -7 -1v203h88v-115q24 4 44 6t34 2q78 0 127 -48t49 -124
q0 -84 -60 -136t-157 -52q-69 0 -143 18.5t-199 71.5z" />
    <glyph glyph-name="eacute" unicode="&#xe9;" horiz-adv-x="1290" 
d="M1239 433l-684 -1v-121q0 -135 59 -204.5t172 -69.5q116 0 209.5 53t173.5 164l39 -27q-75 -133 -212.5 -199.5t-336.5 -66.5q-279 0 -445.5 143t-166.5 375q0 229 165.5 372.5t434.5 143.5q283 0 436.5 -146t155.5 -416zM760 479v334q0 69 -25 101t-78 32q-52 0 -77 -32
t-25 -101v-334h205zM432 1106l279 297q52 54 86 74t69 20q47 0 79 -31.5t32 -76.5q0 -36 -24 -63.5t-81 -55.5l-325 -164h-115z" />
    <glyph glyph-name="egrave" unicode="&#xe8;" horiz-adv-x="1290" 
d="M1239 433l-684 -1v-121q0 -135 59 -204.5t172 -69.5q116 0 209.5 53t173.5 164l39 -27q-75 -133 -212.5 -199.5t-336.5 -66.5q-279 0 -445.5 143t-166.5 375q0 229 165.5 372.5t434.5 143.5q283 0 436.5 -146t155.5 -416zM760 479v334q0 69 -25 101t-78 32q-52 0 -77 -32
t-25 -101v-334h205zM858 1106h-115l-325 164q-57 28 -81 55.5t-24 63.5q0 45 32 76.5t79 31.5q35 0 69 -20t86 -74z" />
    <glyph glyph-name="ecircumflex" unicode="&#xea;" horiz-adv-x="1290" 
d="M1239 433l-684 -1v-121q0 -135 59 -204.5t172 -69.5q116 0 209.5 53t173.5 164l39 -27q-75 -133 -212.5 -199.5t-336.5 -66.5q-279 0 -445.5 143t-166.5 375q0 229 165.5 372.5t434.5 143.5q283 0 436.5 -146t155.5 -416zM760 479v334q0 69 -25 101t-78 32q-52 0 -77 -32
t-25 -101v-334h205zM323 1106l230 371h184l230 -371h-101l-221 172l-221 -172h-101z" />
    <glyph glyph-name="edieresis" unicode="&#xeb;" horiz-adv-x="1290" 
d="M1239 433l-684 -1v-121q0 -135 59 -204.5t172 -69.5q116 0 209.5 53t173.5 164l39 -27q-75 -133 -212.5 -199.5t-336.5 -66.5q-279 0 -445.5 143t-166.5 375q0 229 165.5 372.5t434.5 143.5q283 0 436.5 -146t155.5 -416zM760 479v334q0 69 -25 101t-78 32q-52 0 -77 -32
t-25 -101v-334h205zM696 1292q0 56 43 99t101 43q59 0 101 -41.5t42 -100.5q0 -62 -41 -103.5t-102 -41.5q-60 0 -102 42.5t-42 102.5zM305 1292q0 56 44 99t101 43q60 0 101 -41.5t41 -100.5q0 -63 -40 -104t-102 -41q-59 0 -102 42.5t-43 102.5z" />
    <glyph glyph-name="iacute" unicode="&#xed;" horiz-adv-x="801" 
d="M33 0v55h133v860h-119v52h289q68 0 135.5 7t132.5 21h35v-940h123v-55h-729zM188 1106l279 297q52 54 86 74t69 20q47 0 79 -31.5t32 -76.5q0 -36 -24 -63.5t-81 -55.5l-325 -164h-115z" />
    <glyph glyph-name="igrave" unicode="&#xec;" horiz-adv-x="801" 
d="M33 0v55h133v860h-119v52h289q68 0 135.5 7t132.5 21h35v-940h123v-55h-729zM614 1106h-115l-325 164q-57 28 -81 55.5t-24 63.5q0 45 32 76.5t79 31.5q35 0 69 -20t86 -74z" />
    <glyph glyph-name="icircumflex" unicode="&#xee;" horiz-adv-x="801" 
d="M33 0v55h133v860h-119v52h289q68 0 135.5 7t132.5 21h35v-940h123v-55h-729zM79 1106l230 371h184l230 -371h-101l-221 172l-221 -172h-101z" />
    <glyph glyph-name="idieresis" unicode="&#xef;" horiz-adv-x="801" 
d="M33 0v55h133v860h-119v52h289q68 0 135.5 7t132.5 21h35v-940h123v-55h-729zM452 1292q0 56 43 99t101 43q59 0 101 -41.5t42 -100.5q0 -62 -41 -103.5t-102 -41.5q-60 0 -102 42.5t-42 102.5zM61 1292q0 56 44 99t101 43q60 0 101 -41.5t41 -100.5q0 -63 -40 -104
t-102 -41q-59 0 -102 42.5t-43 102.5z" />
    <glyph glyph-name="ntilde" unicode="&#xf1;" horiz-adv-x="1432" 
d="M39 0v55h117v860h-117v52h266q69 0 136 7t132 21h35l-2 -194h21q47 94 136.5 144t209.5 50q164 0 235.5 -84.5t71.5 -294.5v-561h115v-55h-647v55h63v660q0 54 -16 80t-50 26q-57 0 -87.5 -64.5t-30.5 -187.5v-514h63v-55h-651zM473 1137h-84q27 135 84 200.5t148 65.5
q18 0 36.5 -3t41.5 -9l120 -31q20 -5 29 -6.5t16 -1.5q37 0 58.5 21t38.5 73h82q-29 -139 -85 -202.5t-149 -63.5q-16 0 -32.5 2t-30.5 6l-117 33q-24 6 -36.5 8t-20.5 2q-40 0 -64.5 -23.5t-34.5 -70.5z" />
    <glyph glyph-name="oacute" unicode="&#xf3;" horiz-adv-x="1339" 
d="M47 479q0 229 171.5 372.5t451.5 143.5q281 0 451.5 -142.5t170.5 -373.5t-171 -374.5t-451 -143.5t-451.5 144.5t-171.5 373.5zM772 147v666q0 69 -24.5 101t-77.5 32t-78 -32t-25 -101v-666q0 -70 24.5 -101.5t78.5 -31.5t78 31.5t24 101.5zM457 1106l279 297
q52 54 86 74t69 20q47 0 79 -31.5t32 -76.5q0 -36 -24 -63.5t-81 -55.5l-325 -164h-115z" />
    <glyph glyph-name="ograve" unicode="&#xf2;" horiz-adv-x="1339" 
d="M47 479q0 229 171.5 372.5t451.5 143.5q281 0 451.5 -142.5t170.5 -373.5t-171 -374.5t-451 -143.5t-451.5 144.5t-171.5 373.5zM772 147v666q0 69 -24.5 101t-77.5 32t-78 -32t-25 -101v-666q0 -70 24.5 -101.5t78.5 -31.5t78 31.5t24 101.5zM883 1106h-115l-325 164
q-57 28 -81 55.5t-24 63.5q0 45 32 76.5t79 31.5q35 0 69 -20t86 -74z" />
    <glyph glyph-name="ocircumflex" unicode="&#xf4;" horiz-adv-x="1339" 
d="M47 479q0 229 171.5 372.5t451.5 143.5q281 0 451.5 -142.5t170.5 -373.5t-171 -374.5t-451 -143.5t-451.5 144.5t-171.5 373.5zM772 147v666q0 69 -24.5 101t-77.5 32t-78 -32t-25 -101v-666q0 -70 24.5 -101.5t78.5 -31.5t78 31.5t24 101.5zM348 1106l230 371h184
l230 -371h-101l-221 172l-221 -172h-101z" />
    <glyph glyph-name="odieresis" unicode="&#xf6;" horiz-adv-x="1339" 
d="M47 479q0 229 171.5 372.5t451.5 143.5q281 0 451.5 -142.5t170.5 -373.5t-171 -374.5t-451 -143.5t-451.5 144.5t-171.5 373.5zM772 147v666q0 69 -24.5 101t-77.5 32t-78 -32t-25 -101v-666q0 -70 24.5 -101.5t78.5 -31.5t78 31.5t24 101.5zM721 1292q0 56 43 99
t101 43q59 0 101 -41.5t42 -100.5q0 -62 -41 -103.5t-102 -41.5q-60 0 -102 42.5t-42 102.5zM330 1292q0 56 44 99t101 43q60 0 101 -41.5t41 -100.5q0 -63 -40 -104t-102 -41q-59 0 -102 42.5t-43 102.5z" />
    <glyph glyph-name="otilde" unicode="&#xf5;" horiz-adv-x="1339" 
d="M47 479q0 229 171.5 372.5t451.5 143.5q281 0 451.5 -142.5t170.5 -373.5t-171 -374.5t-451 -143.5t-451.5 144.5t-171.5 373.5zM772 147v666q0 69 -24.5 101t-77.5 32t-78 -32t-25 -101v-666q0 -70 24.5 -101.5t78.5 -31.5t78 31.5t24 101.5zM426 1137h-84
q27 135 84 200.5t148 65.5q18 0 36.5 -3t41.5 -9l120 -31q20 -5 29 -6.5t16 -1.5q37 0 58.5 21t38.5 73h82q-29 -139 -85 -202.5t-149 -63.5q-16 0 -32.5 2t-30.5 6l-117 33q-24 6 -36.5 8t-20.5 2q-40 0 -64.5 -23.5t-34.5 -70.5z" />
    <glyph glyph-name="uacute" unicode="&#xfa;" horiz-adv-x="1432" 
d="M1276 51h119v-51h-269q-68 0 -135.5 -7t-132.5 -22h-35l2 185h-18q-48 -94 -138 -144.5t-210 -50.5q-164 0 -235.5 85.5t-71.5 295.5v573h-113v52h278q69 0 136.5 7t132.5 21h35v-751q0 -55 16 -81t49 -26q59 0 90 64.5t31 185.5v528h-66v52h232q68 0 134 7t132 21h37
v-944zM504 1106l279 297q52 54 86 74t69 20q47 0 79 -31.5t32 -76.5q0 -36 -24 -63.5t-81 -55.5l-325 -164h-115z" />
    <glyph glyph-name="ugrave" unicode="&#xf9;" horiz-adv-x="1432" 
d="M1276 51h119v-51h-269q-68 0 -135.5 -7t-132.5 -22h-35l2 185h-18q-48 -94 -138 -144.5t-210 -50.5q-164 0 -235.5 85.5t-71.5 295.5v573h-113v52h278q69 0 136.5 7t132.5 21h35v-751q0 -55 16 -81t49 -26q59 0 90 64.5t31 185.5v528h-66v52h232q68 0 134 7t132 21h37
v-944zM930 1106h-115l-325 164q-57 28 -81 55.5t-24 63.5q0 45 32 76.5t79 31.5q35 0 69 -20t86 -74z" />
    <glyph glyph-name="ucircumflex" unicode="&#xfb;" horiz-adv-x="1432" 
d="M1276 51h119v-51h-269q-68 0 -135.5 -7t-132.5 -22h-35l2 185h-18q-48 -94 -138 -144.5t-210 -50.5q-164 0 -235.5 85.5t-71.5 295.5v573h-113v52h278q69 0 136.5 7t132.5 21h35v-751q0 -55 16 -81t49 -26q59 0 90 64.5t31 185.5v528h-66v52h232q68 0 134 7t132 21h37
v-944zM395 1106l230 371h184l230 -371h-101l-221 172l-221 -172h-101z" />
    <glyph glyph-name="udieresis" unicode="&#xfc;" horiz-adv-x="1432" 
d="M1276 51h119v-51h-269q-68 0 -135.5 -7t-132.5 -22h-35l2 185h-18q-48 -94 -138 -144.5t-210 -50.5q-164 0 -235.5 85.5t-71.5 295.5v573h-113v52h278q69 0 136.5 7t132.5 21h35v-751q0 -55 16 -81t49 -26q59 0 90 64.5t31 185.5v528h-66v52h232q68 0 134 7t132 21h37
v-944zM768 1292q0 56 43 99t101 43q59 0 101 -41.5t42 -100.5q0 -62 -41 -103.5t-102 -41.5q-60 0 -102 42.5t-42 102.5zM377 1292q0 56 44 99t101 43q60 0 101 -41.5t41 -100.5q0 -63 -40 -104t-102 -41q-59 0 -102 42.5t-43 102.5z" />
    <glyph glyph-name="dagger" unicode="&#x2020;" horiz-adv-x="1194" 
d="M623 -418h-52q-14 229 -83 432t-195 383q163 94 222.5 153t59.5 118q0 27 -11 41t-32 14q-37 0 -73 -58q-12 -19 -19 -28q-29 -42 -68.5 -62t-90.5 -20q-91 0 -144 54t-53 147q0 91 53 144.5t144 53.5q53 0 91 -19t68 -61q7 -9 17 -25q38 -63 75 -63q22 0 32.5 16.5
t10.5 47.5q0 32 -17 62t-66 75q-1 1 -5 4q-139 125 -139 238q0 90 73 153.5t177 63.5t176 -63.5t72 -153.5q0 -112 -135 -236l-6 -6q-52 -47 -69.5 -76.5t-17.5 -60.5t12 -47.5t34 -16.5q37 0 73 62q11 18 17 27q28 40 67 59.5t92 19.5q92 0 144.5 -53t52.5 -145
q0 -93 -52.5 -147t-144.5 -54q-51 0 -90.5 20t-68.5 62q-5 7 -15 23q-39 63 -75 63q-22 0 -34 -14.5t-12 -40.5q0 -59 62.5 -119.5t222.5 -151.5q-126 -182 -196.5 -386t-83.5 -429z" />
    <glyph glyph-name="degree" unicode="&#xb0;" horiz-adv-x="674" 
d="M336 1303q-62 0 -106 -44.5t-44 -107.5q0 -64 44 -109t108 -45q62 0 106.5 46t44.5 108t-45 107t-108 45zM338 1473q134 0 227.5 -94.5t93.5 -229.5q0 -132 -94.5 -227t-228.5 -95t-228 93.5t-94 228.5q0 134 95.5 229t228.5 95z" />
    <glyph glyph-name="cent" unicode="&#xa2;" horiz-adv-x="1360" 
d="M784 678q7 56 29 92t63 57l8 4q72 34 72 58q0 23 -28.5 37t-77.5 14q-114 0 -163.5 -99.5t-49.5 -336.5q0 -2 1 -38.5t1 -70.5zM793 586l-146 -283v-33q0 -97 64.5 -160t165.5 -63q79 0 154.5 51.5t148.5 155.5l37 -27q-60 -123 -191 -194.5t-299 -71.5q-41 0 -96 6.5
t-133 20.5l-164 -310h-84l174 334q-149 69 -224 186.5t-75 280.5q0 238 156.5 377t427.5 139q54 0 109 -4.5t109 -13.5l152 289h84l-162 -312q116 -48 170 -117.5t54 -168.5q0 -104 -62 -165t-168 -61q-74 0 -129.5 40t-72.5 104z" />
    <glyph glyph-name="sterling" unicode="&#xa3;" horiz-adv-x="1360" 
d="M285 659h-215v91h171q-1 4 -4 12q-59 162 -59 256q0 204 145.5 314t417.5 110q231 0 364.5 -88.5t133.5 -239.5q0 -94 -57.5 -153.5t-149.5 -59.5q-98 0 -154.5 50t-56.5 136q0 53 17 92.5t51 63.5q13 9 39 24q53 29 53 50q0 25 -35.5 43t-89.5 18q-87 0 -143 -70.5
t-56 -183.5q0 -65 25.5 -189t30.5 -185h274v-91h-274q0 -91 -32.5 -176.5t-90.5 -150.5l12 -17q56 15 110 23t101 8q40 0 125.5 -14.5t130.5 -14.5q70 0 110 29t60 94h53v-6q0 -222 -105.5 -347.5t-291.5 -125.5q-115 0 -224.5 45.5t-240.5 149.5q-23 -95 -76.5 -145
t-132.5 -50q-71 0 -115.5 46t-44.5 122q0 85 54 133.5t149 48.5q32 0 63 -7.5t60 -22.5q2 10 3 18.5t1 15.5q0 56 -26 141t-80 203z" />
    <glyph glyph-name="section" unicode="&#xa7;" horiz-adv-x="1194" 
d="M877 268q120 -88 174.5 -174t54.5 -186q0 -165 -141.5 -264t-382.5 -99q-223 0 -351.5 69.5t-128.5 188.5q0 74 41 116t113 42q61 0 99 -37t38 -96q0 -36 -24.5 -76.5t-24.5 -56.5q0 -34 71.5 -61t172.5 -27q120 0 185 36t65 103q0 80 -278 225q-9 4 -13 6
q-36 19 -103 53q-372 188 -372 388q0 125 68.5 201t211.5 108q-129 90 -183 173.5t-54 189.5q0 171 127.5 263.5t363.5 92.5q224 0 347.5 -68t123.5 -190q0 -63 -37 -98t-102 -35q-66 0 -102.5 33t-36.5 92q0 51 27.5 92.5t27.5 44.5q0 32 -64.5 54t-166.5 22
q-122 0 -191.5 -37t-69.5 -101q0 -68 250 -193l76 -38q260 -131 348 -224.5t88 -217.5q0 -115 -59 -190t-188 -124zM309 629q0 -32 27 -60t108 -73q170 -96 258.5 -134t137.5 -38q36 0 59 15t23 38q0 35 -27 63.5t-127 85.5q-136 78 -230 117t-147 39q-37 0 -59.5 -14.5
t-22.5 -38.5z" />
    <glyph glyph-name="bullet" unicode="&#x2022;" horiz-adv-x="1208" 
d="M307 762q0 123 87 209t210 86q122 0 208.5 -86.5t86.5 -208.5t-87.5 -209.5t-209.5 -87.5q-123 0 -209 87t-86 210z" />
    <glyph glyph-name="paragraph" unicode="&#xb6;" horiz-adv-x="1024" 
d="M1014 1479v-142h-101v-1337h-202v1337h-140v-1337h-202v784q-163 8 -261 103t-98 243q0 157 106.5 253t282.5 96h615z" />
    <glyph glyph-name="germandbls" unicode="&#xdf;" horiz-adv-x="1403" 
d="M602 0h-596v59h141v854q0 183 28.5 263.5t94.5 142.5q65 59 180.5 93t258.5 34q281 0 430 -88t149 -254q0 -147 -106.5 -226.5t-313.5 -86.5v-33q239 -14 359.5 -116.5t120.5 -291.5q0 -172 -115.5 -280.5t-302.5 -108.5q-90 0 -152 29.5t-108 93.5l59 55l4 -8
q21 -45 51 -45q24 0 35.5 19.5t11.5 60.5v479q0 38 -10.5 58.5t-33.5 29.5q-16 6 -57.5 8t-41.5 27q0 23 35 27.5t41 7.5q21 10 29 28t8 76v348q0 71 -24.5 106.5t-71.5 35.5q-56 0 -79.5 -30t-23.5 -110v-1257z" />
    <glyph glyph-name="registered" unicode="&#xae;" horiz-adv-x="1683" 
d="M787 729q6 -1 13 -1.5t19 -0.5q72 0 109 43t37 127q0 64 -32 103.5t-85 39.5q-32 0 -47 -14t-15 -45zM461 1102h409q149 0 239.5 -56.5t90.5 -146.5q0 -89 -64.5 -139t-207.5 -72q112 -17 170.5 -78.5t58.5 -160.5v-48q0 -29 9 -44t26 -15q25 0 38 30.5t13 88.5v12h62
v-33q0 -89 -49 -135.5t-144 -46.5q-173 0 -187 219q-1 13 -1 19q-7 91 -36.5 131.5t-90.5 40.5h-11v-242q0 -44 15.5 -61.5t58.5 -26.5v-59h-399v59q50 5 69 24t19 64v528q0 45 -17.5 62.5t-70.5 23.5v62zM842 1313q-129 0 -246 -48.5t-205 -138.5q-90 -91 -137 -205.5
t-47 -242.5q0 -129 48 -244.5t138 -204.5q93 -91 206 -137.5t241 -46.5t242 47.5t204 136.5q90 92 139.5 209t49.5 240q0 127 -49 245.5t-138 204.5q-89 88 -206 136.5t-240 48.5zM842 1438q155 0 299.5 -62.5t251.5 -175.5q98 -104 152 -241t54 -281q0 -119 -37 -232.5
t-108 -212.5q-108 -149 -268.5 -231t-345.5 -82q-112 0 -218 32t-198 93q-162 107 -251 272.5t-89 360.5q0 151 57 289.5t164 246.5q106 108 245.5 166t291.5 58z" />
    <glyph glyph-name="copyright" unicode="&#xa9;" horiz-adv-x="1683" 
d="M1130 1108h54l6 -336h-57q-34 132 -101 201t-162 69q-103 0 -155.5 -90.5t-52.5 -267.5q0 -181 58.5 -277t168.5 -96q72 0 138 44.5t124 131.5l55 -34q-67 -113 -157.5 -167.5t-208.5 -54.5q-192 0 -319.5 126t-127.5 315q0 190 127.5 315t321.5 125q87 0 161 -32.5
t76 -32.5q20 0 31.5 13t19.5 48zM842 1313q-129 0 -246 -48.5t-205 -138.5q-90 -91 -137 -205.5t-47 -242.5q0 -129 48 -244.5t138 -204.5q92 -90 206 -137t243 -47q127 0 240.5 47t203.5 137q90 92 139.5 209t49.5 240q0 127 -49 245.5t-138 204.5q-89 88 -206 136.5
t-240 48.5zM844 1438q148 0 287.5 -58t244.5 -163q106 -105 164.5 -246.5t58.5 -292.5q0 -150 -57.5 -288.5t-165.5 -248.5q-106 -107 -243.5 -164t-290.5 -57q-154 0 -289 56t-246 165q-108 107 -165.5 245t-57.5 292q0 151 57 289.5t164 246.5q106 108 246 166t293 58z
" />
    <glyph glyph-name="trademark" unicode="&#x2122;" horiz-adv-x="1683" 
d="M731 1468h236l120 -342l111 342h221v-28l-21 -9q-16 -5 -22 -14t-6 -33v-385q0 -23 6 -32t23 -15l20 -8v-37h-268v37l30 8q17 5 23 15.5t6 31.5v340l-135 -432h-53l-162 447v-355q0 -22 7 -33t22 -14l37 -8v-37h-195v37l34 8q17 4 24.5 15t7.5 32v377q0 21 -7.5 32.5
t-23.5 14.5l-35 9v36zM219 1468h461l12 -206h-39q-6 77 -35.5 114.5t-82.5 38.5v-416q0 -21 6 -32.5t19 -14.5l30 -8v-37h-281v37l33 8q12 3 18.5 14.5t6.5 32.5v416q-55 0 -85 -38.5t-36 -114.5h-39z" />
    <glyph glyph-name="acute" unicode="&#xb4;" horiz-adv-x="1024" 
d="M299 1106l279 297q52 54 86 74t69 20q47 0 79 -31.5t32 -76.5q0 -36 -24 -63.5t-81 -55.5l-325 -164h-115z" />
    <glyph glyph-name="dieresis" unicode="&#xa8;" horiz-adv-x="1024" 
d="M563 1292q0 56 43 99t101 43q59 0 101 -41.5t42 -100.5q0 -62 -41 -103.5t-102 -41.5q-60 0 -102 42.5t-42 102.5zM172 1292q0 56 44 99t101 43q60 0 101 -41.5t41 -100.5q0 -63 -40 -104t-102 -41q-59 0 -102 42.5t-43 102.5z" />
    <glyph glyph-name="notequal" unicode="&#x2260;" horiz-adv-x="1706" 
d="M1188 1278l196 -162l-112 -139h180v-260h-358l-172 -211h530v-262h-704l-242 -299l-199 159l113 140h-166v262h340l170 211h-510v260h690z" />
    <glyph glyph-name="AE" unicode="&#xc6;" horiz-adv-x="2105" 
d="M1647 1036v-622h-60q-15 145 -80.5 213.5t-187.5 68.5h-6v-637h110q188 0 307.5 119t180.5 367h61v-545h-1409v59h158v553h-414l-182 -387q-9 -20 -14 -40.5t-5 -37.5q0 -43 32.5 -65.5t94.5 -22.5h17v-59h-391v59q62 10 102 44t80 118l434 920q11 22 17 46.5t6 45.5
q0 66 -51 98.5t-156 34.5v55h1653v-491h-62q-56 231 -170.5 333.5t-316.5 102.5h-82v-612h6q123 0 188 68.5t80 213.5h60zM721 678v682h-57l-326 -682h383z" />
    <glyph glyph-name="Oslash" unicode="&#xd8;" horiz-adv-x="1667" 
d="M969 1014v129q0 129 -32.5 187.5t-105.5 58.5q-71 0 -103 -58.5t-32 -187.5v-547zM696 414v-148q0 -130 32.5 -189t102.5 -59q72 0 105 59t33 189v561zM305 -195h-141l198 301q-140 99 -220.5 259t-80.5 340q0 143 55.5 281.5t151.5 236.5q107 109 250.5 166t312.5 57
q95 0 184.5 -18.5t178.5 -57.5l125 191h141l-166 -254q146 -102 228 -261.5t82 -340.5q0 -322 -220 -533t-565 -211q-96 0 -182 20.5t-174 63.5z" />
    <glyph glyph-name="infinity" unicode="&#x221e;" horiz-adv-x="1706" 
d="M975 561q40 -57 95 -86t124 -29q84 0 137 43t53 109q0 65 -48 109.5t-117 44.5q-66 0 -122.5 -44t-121.5 -147zM731 653q-41 58 -95 86.5t-124 28.5q-84 0 -136 -43t-52 -111q0 -64 47.5 -107.5t117.5 -43.5q67 0 123 44t119 146zM850 424q-67 -129 -146.5 -191.5
t-175.5 -62.5q-144 0 -245 126t-101 312q0 195 89.5 315.5t232.5 120.5q85 0 161 -53t191 -200q69 128 149 190.5t175 62.5q143 0 244.5 -126t101.5 -312q0 -194 -90.5 -315t-233.5 -121q-88 0 -164 53t-188 201z" />
    <glyph glyph-name="plusminus" unicode="&#xb1;" horiz-adv-x="1706" 
d="M254 231h1198v-272h-1198v272zM713 1262h280v-310h459v-272h-459v-309h-280v309h-459v272h459v310z" />
    <glyph glyph-name="greaterequal" unicode="&#x2265;" horiz-adv-x="1706" 
d="M254 236h1200v-271h-1200v271zM256 1282l1196 -373v-237l-1196 -371v281l705 209l-705 208v283z" />
    <glyph glyph-name="lessequal" unicode="&#x2264;" horiz-adv-x="1706" 
d="M254 236h1200v-271h-1200v271zM1452 1282v-283l-704 -208l704 -209v-281l-1198 371v237z" />
    <glyph glyph-name="yen" unicode="&#xa5;" horiz-adv-x="1667" 
d="M1282 0h-872v59h190v580h-557v76h510l-98 149h-412v76h365l-273 426h-127v55h836v-55h-146l369 -625l250 435q13 24 18.5 44.5t5.5 41.5q0 49 -39.5 75.5t-117.5 28.5v55h448v-55q-68 -12 -112.5 -44t-87.5 -103l-164 -279h352v-76h-395l-90 -149h485v-76h-528v-580h190
v-59z" />
    <glyph glyph-name="mu" unicode="&#xb5;" horiz-adv-x="1270" 
d="M268 165q-17 -113 -31 -252.5t-18 -164.5q-15 -102 -48 -139t-105 -37q-63 0 -100.5 38.5t-37.5 104.5q0 48 69.5 269t106.5 395l107 506h336l-117 -543q-7 -31 -10.5 -59t-3.5 -52q0 -47 23.5 -73.5t66.5 -26.5q56 0 90.5 51.5t62.5 179.5l115 523h334l-111 -514
q-4 -19 -6 -38t-2 -36q0 -43 20.5 -66.5t57.5 -23.5q54 0 104 84l2 3q22 37 34.5 46.5t29.5 9.5q15 0 25 -11.5t10 -29.5q0 -22 -15 -69.5t-38 -89.5q-48 -87 -111.5 -130t-142.5 -43q-89 0 -138 49.5t-55 145.5q-41 -96 -109.5 -143t-166.5 -47q-99 0 -158.5 48t-69.5 135z
" />
    <glyph glyph-name="partialdiff" unicode="&#x2202;" horiz-adv-x="1139" 
d="M770 715q25 127 35 210t10 150q0 105 -26.5 159t-77.5 54q-32 0 -57 -21t-52 -71q-44 -80 -91.5 -119t-100.5 -39q-62 0 -103 37.5t-41 95.5q0 87 102.5 148t249.5 61q224 0 352 -162.5t128 -449.5q0 -348 -167.5 -569.5t-432.5 -221.5q-215 0 -338 115.5t-123 317.5
q0 204 126 340.5t308 136.5q96 0 172 -43.5t127 -128.5zM694 553q0 114 -34 172.5t-99 58.5q-90 0 -150.5 -140.5t-60.5 -354.5q0 -115 34 -172.5t101 -57.5q90 0 149.5 140t59.5 354z" />
    <glyph glyph-name="summation" unicode="&#x2211;" horiz-adv-x="1640" 
d="M33 1473h1327l174 -506h-100l-115 274q-31 74 -89.5 104.5t-176.5 30.5h-72h-391l491 -725v-43l-624 -614h829q5 0 15.5 1t15.5 1q54 0 71 12t27 49l70 232h100l-207 -682h-1351v110l696 682l-690 992v82z" />
    <glyph glyph-name="product" unicode="&#x220f;" horiz-adv-x="1841" 
d="M39 1473h1753v-97h-193v-1673h193v-96h-825v96h159v1673h-421v-1673h159v-96h-825v96h192v1673h-192v97z" />
    <glyph glyph-name="pi" unicode="&#x3c0;" horiz-adv-x="1450" 
d="M819 0v915h-188v-915h-596v55h121v860h-121v52h1380v-52h-121v-860h121v-55h-596z" />
    <glyph glyph-name="integral" unicode="&#x222b;" horiz-adv-x="1331" 
d="M379 -244q28 0 54 42t42 114q19 92 26 385q4 185 9 293q23 515 144 742t368 227q118 0 190 -58.5t72 -150.5q0 -69 -46 -112.5t-116 -43.5q-67 0 -101 40.5t-34 119.5q0 2 1 10.5t1 15.5q0 26 -8.5 38t-26.5 12q-103 0 -126 -661q-2 -58 -3 -88q-11 -334 -36 -484.5
t-74 -266.5q-65 -150 -166.5 -226.5t-237.5 -76.5q-118 0 -189 57t-71 152q0 72 45 114t121 42q62 0 96.5 -37.5t34.5 -104.5q0 -12 -1 -30t-1 -23q0 -20 8.5 -30.5t24.5 -10.5z" />
    <glyph glyph-name="ordfeminine" unicode="&#xaa;" horiz-adv-x="1004" 
d="M551 1102h-23q-69 0 -97 -36t-28 -132q0 -62 17 -91.5t51 -29.5q42 0 61 33t19 106v150zM979 862l25 -16q-43 -58 -114.5 -92.5t-148.5 -34.5q-61 0 -105.5 27t-70.5 79q-55 -53 -127.5 -79.5t-163.5 -26.5q-109 0 -174 51.5t-65 136.5q0 105 114 166.5t310 61.5h90v206
q0 33 -22 48.5t-68 15.5q-23 0 -40 -6.5t-18 -14.5q0 -4 12 -14q40 -35 40 -86q0 -53 -47 -80.5t-138 -27.5q-85 0 -128.5 29t-43.5 85q0 81 87 116.5t290 35.5q151 0 239 -16.5t128 -51.5q28 -24 39.5 -55t11.5 -100v-347q0 -24 7.5 -33.5t25.5 -9.5q18 1 32.5 9.5
t22.5 23.5z" />
    <glyph glyph-name="ordmasculine" unicode="&#xba;" horiz-adv-x="1006" 
d="M35 1081q0 159 128.5 260t338.5 101t338.5 -100t128.5 -261q0 -162 -128 -262t-339 -100q-210 0 -338.5 101t-128.5 261zM580 848v467q0 48 -18.5 70t-59.5 22q-40 0 -58 -22t-18 -70v-467q0 -49 18 -70.5t58 -21.5q41 0 59.5 22t18.5 70z" />
    <glyph glyph-name="Omega" unicode="&#x2126;" horiz-adv-x="1597" 
d="M1180 346v-18h272l29 96h86l-127 -424h-559q69 190 104 411.5t35 467.5q0 254 -56.5 386t-164.5 132q-111 0 -166 -135t-55 -408q0 -226 35.5 -443.5t105.5 -410.5h-561l-127 424h88l28 -96h273v18q-171 36 -275 170.5t-104 317.5q0 283 216 473t542 190
q323 0 541.5 -189.5t218.5 -465.5q0 -190 -103 -324.5t-276 -171.5z" />
    <glyph glyph-name="ae" unicode="&#xe6;" horiz-adv-x="1896" 
d="M1370 479v334q0 69 -24.5 101t-77.5 32t-78 -32t-25 -101v-334h205zM735 508h-26q-97 0 -132.5 -52.5t-35.5 -246.5q0 -82 22.5 -123t67.5 -41q54 0 79 47.5t25 151.5v264zM1849 432h-684v-121q0 -135 59 -204.5t173 -69.5q116 0 209 53t174 164l39 -27
q-70 -126 -206.5 -196t-312.5 -70q-120 0 -220 32t-195 101q-102 -69 -216.5 -101t-265.5 -32q-172 0 -263 69.5t-91 200.5q0 149 151.5 236.5t411.5 87.5h121v295q0 48 -28.5 70t-90.5 22q-31 0 -54 -10t-23 -21q0 -6 14 -20q51 -49 51 -123q0 -76 -61.5 -115t-182.5 -39
q-112 0 -169.5 41.5t-57.5 122.5q0 109 104.5 163t315.5 54q143 0 244.5 -26t154.5 -76q54 51 136 76.5t190 25.5q268 0 420.5 -149.5t152.5 -413.5z" />
    <glyph glyph-name="oslash" unicode="&#xf8;" horiz-adv-x="1339" 
d="M567 238v-91q0 -70 24.5 -101.5t78.5 -31.5t78 31.5t24 101.5v418zM772 719v94q0 69 -24.5 101t-77.5 32t-78 -32t-25 -101v-422zM424 -2l-156 -248h-108l172 279q-134 69 -209.5 188.5t-75.5 261.5q0 229 171.5 372.5t451.5 143.5q69 0 129.5 -8t115.5 -24l138 221h112
l-157 -256q137 -73 210.5 -189.5t73.5 -259.5q0 -231 -171 -374.5t-451 -143.5q-64 0 -124.5 9t-121.5 28z" />
    <glyph glyph-name="questiondown" unicode="&#xbf;" horiz-adv-x="1090" 
d="M549 913h72v-12q0 -83 -17 -155t-59 -158q-40 -81 -55 -141.5t-15 -127.5q0 -135 66 -209.5t184 -74.5q51 0 83 12t32 31q0 30 -63 49q-29 8 -44 14q-50 22 -74 60t-24 94q0 88 58 141t155 53q100 0 160.5 -59t60.5 -156q0 -154 -126 -233.5t-370 -79.5q-281 0 -417 84
t-136 258q0 64 26 121.5t75 101.5q53 48 190 101q57 22 84 35q88 40 120 93t34 158zM836 1255q0 -92 -66 -142t-188 -50q-123 0 -188.5 50t-65.5 142t65.5 141.5t188.5 49.5q122 0 188 -49.5t66 -141.5z" />
    <glyph glyph-name="exclamdown" unicode="&#xa1;" horiz-adv-x="711" 
d="M387 913v-20q0 -84 12.5 -149t38.5 -119q18 -36 55 -101q99 -174 99 -291q0 -131 -61 -201.5t-175 -70.5t-175.5 71t-61.5 201q0 117 99 291q37 65 54 101q27 54 39.5 119t12.5 149v20h63zM356 1063q-122 0 -188 50t-66 142t66 141.5t188 49.5q123 0 187.5 -49t64.5 -142
q0 -92 -65 -142t-187 -50z" />
    <glyph glyph-name="logicalnot" unicode="&#xac;" horiz-adv-x="1706" 
d="M254 868h1198v-501h-272v235h-926v266z" />
    <glyph glyph-name="radical" unicode="&#x221a;" horiz-adv-x="1395" 
d="M1171 1737h228v-172h-86l-588 -1606h-143l-301 827l-156 -59l-41 154l395 139l209 -600z" />
    <glyph glyph-name="florin" unicode="&#x192;" horiz-adv-x="1360" 
d="M205 776l8 82h289q60 277 201.5 430.5t336.5 153.5q111 0 179.5 -57.5t68.5 -147.5q0 -70 -40.5 -115t-104.5 -45q-63 0 -102.5 37.5t-39.5 95.5q0 44 35 90.5t35 57.5t-15.5 22t-35.5 11q-88 0 -130 -94.5t-42 -292.5q0 -41 3 -128q1 -12 1 -18h287l-9 -82h-274
q1 -22 1.5 -48t0.5 -77q0 -487 -158 -763.5t-434 -276.5q-106 0 -174.5 57t-68.5 144q0 74 42 118.5t113 44.5q64 0 98.5 -32t34.5 -93t-37.5 -104t-37.5 -47q0 -17 12 -25t37 -8q80 0 128 85.5t48 232.5q0 54 -4 156.5t-4 152.5q0 138 8.5 256t25.5 227h-282z" />
    <glyph glyph-name="approxequal" unicode="&#x2248;" horiz-adv-x="1706" 
d="M1530 608v-299q-106 -69 -195.5 -101t-177.5 -32q-87 0 -280 64.5t-316 64.5q-82 0 -172.5 -37t-210.5 -121v299q115 74 213 108t197 34q119 0 308.5 -64.5t268.5 -64.5q83 0 169 34.5t196 114.5zM1530 1073v-299q-106 -70 -195 -101.5t-176 -31.5q-88 0 -281 64.5
t-317 64.5q-85 0 -174.5 -36.5t-208.5 -121.5v299q115 74 213 108t197 34q119 0 308.5 -63.5t268.5 -63.5q85 0 171 34.5t194 112.5z" />
    <glyph glyph-name="Delta" unicode="&#x2206;" horiz-adv-x="1339" 
d="M504 1044l-324 -655h647zM631 1497h82l741 -1497h-1569z" />
    <glyph glyph-name="guillemotleft" unicode="&#xab;" horiz-adv-x="1100" 
d="M1028 156h-246l-247 323l247 322h246l-246 -322zM573 156h-245l-248 323l248 322h245l-245 -322z" />
    <glyph glyph-name="guillemotright" unicode="&#xbb;" horiz-adv-x="1100" 
d="M72 156l245 323l-245 322h245l248 -322l-248 -323h-245zM526 156l246 323l-246 322h246l248 -322l-248 -323h-246z" />
    <glyph glyph-name="ellipsis" unicode="&#x2026;" 
d="M111 172q0 93 64.5 153t166.5 60t166.5 -60t64.5 -153q0 -92 -64.5 -151.5t-166.5 -59.5t-166.5 59.5t-64.5 151.5zM793 172q0 93 64.5 153t166.5 60t166.5 -60t64.5 -153q0 -92 -64.5 -151.5t-166.5 -59.5t-166.5 59.5t-64.5 151.5zM1477 172q0 93 64.5 153t166.5 60
t166.5 -60t64.5 -153q0 -92 -64.5 -151.5t-166.5 -59.5t-166.5 59.5t-64.5 151.5z" />
    <glyph glyph-name="Agrave" unicode="&#xc0;" horiz-adv-x="1561" 
d="M322 537h368l-184 507zM342 0h-387v59q66 8 109.5 47t70.5 115l428 1200h426l496 -1362h108v-59h-876v59h145l-145 406h-422l-78 -234q-8 -22 -12 -43.5t-4 -37.5q0 -47 30.5 -69t94.5 -22h16v-59zM993 1557h-115l-325 164q-57 28 -81 55.5t-24 63.5q0 45 32 76.5
t79 31.5q35 0 69 -20t86 -74z" />
    <glyph glyph-name="Atilde" unicode="&#xc3;" horiz-adv-x="1561" 
d="M322 537h368l-184 507zM342 0h-387v59q66 8 109.5 47t70.5 115l428 1200h426l496 -1362h108v-59h-876v59h145l-145 406h-422l-78 -234q-8 -22 -12 -43.5t-4 -37.5q0 -47 30.5 -69t94.5 -22h16v-59zM536 1588h-84q27 135 84 200.5t148 65.5q18 0 36.5 -3t41.5 -9l120 -31
q20 -5 29 -6.5t16 -1.5q37 0 58.5 21t38.5 73h82q-29 -139 -85 -202.5t-149 -63.5q-16 0 -32.5 2t-30.5 6l-117 33q-24 6 -36.5 8t-20.5 2q-40 0 -64.5 -23.5t-34.5 -70.5z" />
    <glyph glyph-name="Otilde" unicode="&#xd5;" horiz-adv-x="1667" 
d="M696 266q0 -130 32.5 -189t102.5 -59q72 0 105 59t33 189v877q0 129 -32.5 187.5t-105.5 58.5q-71 0 -103 -58.5t-32 -187.5v-877zM61 705q0 143 55.5 281.5t151.5 236.5q107 109 250.5 166t312.5 57q335 0 554 -212t219 -529q0 -319 -219 -531.5t-554 -212.5
q-147 0 -276.5 44t-230.5 128q-122 100 -192.5 253.5t-70.5 318.5zM590 1588h-84q27 135 84 200.5t148 65.5q18 0 36.5 -3t41.5 -9l120 -31q20 -5 29 -6.5t16 -1.5q37 0 58.5 21t38.5 73h82q-29 -139 -85 -202.5t-149 -63.5q-16 0 -32.5 2t-30.5 6l-117 33q-24 6 -36.5 8
t-20.5 2q-40 0 -64.5 -23.5t-34.5 -70.5z" />
    <glyph glyph-name="OE" unicode="&#x152;" horiz-adv-x="2351" 
d="M686 289q0 -122 32 -176t105 -54q74 0 106 53.5t32 176.5v841q0 125 -32.5 180.5t-105.5 55.5q-72 0 -104.5 -56t-32.5 -180v-841zM1827 412q-15 146 -80.5 215t-187.5 69h-7v-637h111q188 0 307.5 119t179.5 367h62v-545h-1389q-172 0 -315 54t-250 159
q-96 96 -151.5 229t-55.5 269q0 304 218.5 507t553.5 203h1360v-491h-61q-56 231 -170.5 333.5t-317.5 102.5h-82v-612h7q123 0 188 68.5t80 213.5h59v-624h-59z" />
    <glyph glyph-name="oe" unicode="&#x153;" horiz-adv-x="1933" 
d="M772 147v666q0 69 -24.5 101t-77.5 32t-78 -32t-25 -101v-666q0 -70 24.5 -101.5t78.5 -31.5t78 31.5t24 101.5zM1407 479v334q0 69 -25 101t-77 32q-53 0 -78 -32t-25 -101v-334h205zM1886 432h-684v-121q0 -135 59 -204.5t173 -69.5q116 0 209 53t174 164l38 -27
q-73 -129 -209.5 -197.5t-322.5 -68.5q-92 0 -172 17t-164 55q-72 -35 -154 -53.5t-163 -18.5q-280 0 -451.5 145t-171.5 375q0 224 169.5 369t436.5 145q88 0 168.5 -17t167.5 -54q83 36 160 53.5t156 17.5q274 0 427.5 -148t153.5 -415z" />
    <glyph glyph-name="endash" unicode="&#x2013;" horiz-adv-x="1024" 
d="M0 334v289h1024v-289h-1024z" />
    <glyph glyph-name="emdash" unicode="&#x2014;" 
d="M0 334v289h2048v-289h-2048z" />
    <glyph glyph-name="quotedblleft" unicode="&#x201c;" horiz-adv-x="1313" 
d="M1169 1446v-55q-147 -48 -245.5 -143.5t-98.5 -178.5q1 -17 4 -21.5t13 -5.5q7 0 55.5 19.5t97.5 19.5q96 0 160 -60t64 -151q0 -92 -64.5 -151.5t-167.5 -59.5q-118 0 -189 83t-71 219q0 179 122.5 313.5t319.5 171.5zM537 1446v-55q-148 -48 -246 -143.5t-98 -178.5
q0 -17 3 -21.5t13 -5.5q7 0 56 19.5t97 19.5q96 0 160 -60t64 -151q0 -92 -64.5 -151.5t-167.5 -59.5q-118 0 -189 83t-71 219q0 179 122.5 313.5t320.5 171.5z" />
    <glyph glyph-name="quotedblright" unicode="&#x201d;" horiz-adv-x="1313" 
d="M776 659v56q147 47 245.5 142.5t98.5 178.5q0 17 -3.5 22t-12.5 5q-8 0 -56.5 -19.5t-97.5 -19.5q-95 0 -159 60t-64 151q0 92 64.5 151.5t166.5 59.5q118 0 189.5 -83.5t71.5 -219.5q0 -179 -122.5 -313t-320.5 -171zM143 659v56q147 47 245.5 142.5t98.5 178.5
q0 17 -3 21.5t-13 5.5q-7 0 -56 -19.5t-98 -19.5q-95 0 -159 60t-64 151q0 92 64.5 151.5t167.5 59.5q117 0 188.5 -83.5t71.5 -219.5q0 -179 -122.5 -313t-320.5 -171z" />
    <glyph glyph-name="quoteleft" unicode="&#x2018;" horiz-adv-x="680" 
d="M535 1446v-55q-147 -48 -244.5 -143t-97.5 -179q0 -18 3 -22.5t11 -4.5q7 0 57 19.5t98 19.5q96 0 160 -60t64 -151q0 -92 -64.5 -151.5t-167.5 -59.5q-118 0 -189 83t-71 219q0 179 122 313.5t319 171.5z" />
    <glyph glyph-name="quoteright" unicode="&#x2019;" horiz-adv-x="680" 
d="M143 659v56q147 47 245.5 142.5t98.5 178.5q0 17 -3 21.5t-13 5.5q-7 0 -56 -19.5t-98 -19.5q-95 0 -159 60t-64 151q0 92 64.5 151.5t167.5 59.5q117 0 188.5 -83.5t71.5 -219.5q0 -179 -122.5 -313t-320.5 -171z" />
    <glyph glyph-name="divide" unicode="&#xf7;" horiz-adv-x="1706" 
d="M854 371q74 0 128 -54t54 -129q0 -74 -54 -128t-130 -54t-129 53t-53 129q0 77 53.5 130t130.5 53zM254 748h1198v-273h-1198v273zM854 1217q74 0 128 -55t54 -130q0 -74 -54 -128t-130 -54t-129 53t-53 129q0 77 54 131t130 54z" />
    <glyph glyph-name="lozenge" unicode="&#x25ca;" horiz-adv-x="1012" 
d="M506 1409l-385 -817l385 -825l385 825zM506 1653l500 -1061l-500 -1069l-500 1069z" />
    <glyph glyph-name="ydieresis" unicode="&#xff;" horiz-adv-x="1327" 
d="M621 -18l-539 933h-107v52h746v-52h-117l287 -473l196 338q13 22 18 36.5t5 27.5q0 36 -27 52t-102 20v51h344v-52q-107 -19 -189 -160q-5 -9 -7 -13l-523 -908q-93 -162 -177.5 -226.5t-199.5 -64.5q-109 0 -178 61t-69 156q0 87 50 135t140 48q78 0 125 -43.5
t47 -114.5q0 -52 -41 -92.5t-41 -50.5q0 -13 10 -20t27 -7q50 0 120.5 66t131.5 174zM715 1292q0 56 43 99t101 43q59 0 101 -41.5t42 -100.5q0 -62 -41 -103.5t-102 -41.5q-60 0 -102 42.5t-42 102.5zM324 1292q0 56 44 99t101 43q60 0 101 -41.5t41 -100.5q0 -63 -40 -104
t-102 -41q-59 0 -102 42.5t-43 102.5z" />
    <glyph glyph-name="Ydieresis" unicode="&#x178;" horiz-adv-x="1688" 
d="M1350 0h-983v59h190v521l-463 786h-127v55h942v-55h-145l371 -625l247 435q15 26 21 46.5t6 39.5q0 50 -40.5 76t-117.5 26v57h449v-55q-71 -13 -117 -45.5t-86 -101.5l-338 -580v-580h191v-59zM895 1743q0 56 43 99t101 43q59 0 101 -41.5t42 -100.5q0 -62 -41 -103.5
t-102 -41.5q-60 0 -102 42.5t-42 102.5zM504 1743q0 56 44 99t101 43q60 0 101 -41.5t41 -100.5q0 -63 -40 -104t-102 -41q-59 0 -102 42.5t-43 102.5z" />
    <glyph glyph-name="fraction" unicode="&#x2044;" horiz-adv-x="342" 
d="M-342 -39l924 1481h100l-924 -1481h-100z" />
    <glyph glyph-name="currency" unicode="&#xa4;" horiz-adv-x="1241" 
d="M623 1126q-100 0 -171 -71t-71 -170q0 -100 70.5 -171t171.5 -71q99 0 170 71.5t71 170.5q0 98 -71.5 169.5t-169.5 71.5zM186 1452l201 -199q51 35 108 51.5t126 16.5t127.5 -16.5t109.5 -51.5l201 199l133 -133l-199 -205q33 -52 48.5 -108.5t15.5 -120.5t-16 -121
t-48 -109l199 -202l-133 -136l-201 201q-52 -35 -110.5 -52t-124.5 -17q-68 0 -126 17t-110 52l-201 -201l-135 136l199 202q-32 50 -48 107t-16 125q0 64 16 120t48 107l-199 205z" />
    <glyph glyph-name="guilsinglleft" unicode="&#x2039;" horiz-adv-x="645" 
d="M573 156h-245l-248 323l248 322h245l-245 -322z" />
    <glyph glyph-name="guilsinglright" unicode="&#x203a;" horiz-adv-x="645" 
d="M72 156l245 323l-245 322h245l246 -322l-246 -323h-245z" />
    <glyph glyph-name="fi" unicode="&#xfb01;" horiz-adv-x="1497" 
d="M793 0v55h79v840h-79v63h241q131 0 249 24q15 3 17 3h37v-930h121v-55h-665zM889 1282q0 87 56 135.5t157 48.5q102 0 157.5 -48t55.5 -136q0 -89 -54.5 -135.5t-158.5 -46.5q-105 0 -159 46.5t-54 135.5zM14 0v55h156v840h-158v63h162v7q0 234 103 367.5t280 133.5
q130 0 205.5 -56t75.5 -153q0 -73 -46 -115t-126 -42q-73 0 -115.5 38.5t-42.5 104.5q0 62 49 98.5t49 44.5q0 11 -9 18t-24 7q-58 0 -109.5 -66t-51.5 -149q0 -100 76.5 -169t189.5 -69h59v-63h-102v-840h100v-55h-721z" />
    <glyph glyph-name="fl" unicode="&#xfb02;" horiz-adv-x="1497" 
d="M793 0v55h84v1366h157q68 0 134.5 7.5t131.5 21.5h37v-1395h121v-55h-665zM14 0v55h156v840h-158v63h162v7q0 234 103 367.5t280 133.5q131 0 206 -55.5t75 -153.5q0 -73 -46 -115t-126 -42q-73 0 -115.5 38.5t-42.5 104.5q0 62 49 98.5t49 44.5q0 11 -9 18t-24 7
q-58 0 -109.5 -66t-51.5 -149q0 -100 76.5 -169t189.5 -69h59v-63h-102v-840h100v-55h-721z" />
    <glyph glyph-name="daggerdbl" unicode="&#x2021;" horiz-adv-x="1194" 
d="M336 500q113 80 175 156.5t62 134.5q0 27 -11.5 41t-35.5 14q-42 0 -83 -67q-7 -11 -11 -17q-23 -38 -63.5 -57t-98.5 -19q-73 0 -121.5 52.5t-48.5 131.5q0 86 49.5 139.5t126.5 53.5q54 0 92.5 -18.5t65.5 -57.5l6 -9q52 -75 92 -75q21 0 31 13.5t10 41.5
q0 32 -17.5 61t-59.5 66q-56 49 -76.5 89t-20.5 94q0 74 57.5 126t141.5 52q83 0 140 -52t57 -126q0 -54 -20 -93.5t-77 -91.5q-43 -38 -60 -66t-17 -59q0 -28 10 -41.5t31 -13.5q43 0 93 74q4 6 7 10q28 40 64.5 58t91.5 18q76 0 126 -54t50 -139q0 -79 -48.5 -131.5
t-121.5 -52.5q-57 0 -98 19.5t-64 56.5q-4 6 -11 17q-41 67 -83 67q-23 0 -35 -14t-12 -39q0 -60 60.5 -134.5t178.5 -158.5q-116 -82 -177.5 -157.5t-61.5 -133.5q0 -28 12 -42.5t35 -14.5q42 0 83 66q7 12 11 18q23 37 64 56t98 19q73 0 121.5 -52t48.5 -132
q0 -84 -50 -138.5t-126 -54.5q-54 0 -90.5 18.5t-65.5 59.5q-2 3 -8 11q-51 71 -92 71q-21 0 -31 -13.5t-10 -41.5t16 -54.5t61 -68.5q54 -47 75.5 -89t21.5 -97q0 -75 -57.5 -127t-139.5 -52q-83 0 -141 52.5t-58 126.5q0 53 20.5 93.5t76.5 90.5q44 41 60.5 68.5
t16.5 56.5q0 28 -10 41.5t-31 13.5q-40 0 -89 -71q-6 -9 -9 -13q-26 -39 -64 -57.5t-94 -18.5q-76 0 -126 54.5t-50 140.5q0 79 48.5 130.5t121.5 51.5q58 0 98.5 -19t63.5 -56q4 -6 11 -18q41 -66 83 -66q23 0 35 14.5t12 42.5q0 58 -62.5 135t-174.5 156z" />
    <glyph glyph-name="periodcentered" unicode="&#xb7;" horiz-adv-x="680" 
d="M121 702q0 93 63.5 156.5t155.5 63.5q91 0 156 -64.5t65 -155.5q0 -90 -65.5 -155.5t-155.5 -65.5q-92 0 -155.5 64.5t-63.5 156.5z" />
    <glyph glyph-name="quotesinglbase" unicode="&#x201a;" horiz-adv-x="680" 
d="M143 -401v55q147 48 245.5 143t98.5 178q0 17 -3.5 22t-12.5 5q-7 0 -56 -20.5t-98 -20.5q-95 0 -159 60.5t-64 150.5q0 93 65 153t167 60q117 0 188.5 -83.5t71.5 -219.5q0 -179 -122.5 -313t-320.5 -170z" />
    <glyph glyph-name="quotedblbase" unicode="&#x201e;" horiz-adv-x="1313" 
d="M776 -401v55q147 48 245.5 143t98.5 178q0 17 -3.5 22t-12.5 5q-8 0 -56.5 -20.5t-97.5 -20.5q-95 0 -159 60.5t-64 150.5q0 93 64.5 153t166.5 60q118 0 189.5 -83.5t71.5 -219.5q0 -179 -122.5 -313t-320.5 -170zM143 -401v55q147 48 245.5 143t98.5 178q0 17 -3.5 22
t-12.5 5q-7 0 -56 -20.5t-98 -20.5q-95 0 -159 60.5t-64 150.5q0 93 65 153t167 60q117 0 188.5 -83.5t71.5 -219.5q0 -179 -122.5 -313t-320.5 -170z" />
    <glyph glyph-name="perthousand" unicode="&#x2030;" horiz-adv-x="3176" 
d="M2544 453v-619q0 -66 21 -94.5t69 -28.5t70 29.5t22 93.5v619q0 65 -22.5 95t-69.5 30t-68.5 -30.5t-21.5 -94.5zM2148 143q0 214 133 344.5t353 130.5t352.5 -129.5t132.5 -345.5q0 -214 -132.5 -343.5t-352.5 -129.5t-353 130t-133 343zM444 1298v-618q0 -65 22 -94
t71 -29q47 0 68.5 29t21.5 94v618q0 66 -21.5 95.5t-68.5 29.5t-70 -30.5t-23 -94.5zM1462 453v-619q0 -65 22 -94t70 -29t69.5 29t21.5 94v619q0 65 -21.5 95t-69.5 30q-47 0 -69.5 -31t-22.5 -94zM1067 143q0 214 133 344.5t352 130.5q222 0 355 -130t133 -345
q0 -213 -133.5 -343t-354.5 -130q-220 0 -352.5 130t-132.5 343zM594 -332h-90l942 1700q-55 -46 -138.5 -70t-187.5 -24q-55 0 -104.5 7t-97.5 22q54 -73 79 -148t25 -164q0 -213 -133 -344t-352 -131q-221 0 -353.5 130t-132.5 343q0 214 133 344.5t353 130.5
q106 0 294 -64.5t295 -64.5q132 0 234 42t160 120h94z" />
    <glyph glyph-name="Acircumflex" unicode="&#xc2;" horiz-adv-x="1561" 
d="M322 537h368l-184 507zM342 0h-387v59q66 8 109.5 47t70.5 115l428 1200h426l496 -1362h108v-59h-876v59h145l-145 406h-422l-78 -234q-8 -22 -12 -43.5t-4 -37.5q0 -47 30.5 -69t94.5 -22h16v-59zM458 1557l230 371h184l230 -371h-101l-221 172l-221 -172h-101z" />
    <glyph glyph-name="Ecircumflex" unicode="&#xca;" horiz-adv-x="1612" 
d="M1450 1421v-491h-61q-56 231 -170.5 333.5t-317.5 102.5h-82v-612h6q124 0 190 69t81 213h59v-622h-59q-16 144 -82 213t-189 69h-6v-637h111q188 0 307 119t180 367h62v-545h-1407v59h155v1307h-155v55h1378zM485 1557l230 371h184l230 -371h-101l-221 172l-221 -172
h-101z" />
    <glyph glyph-name="Aacute" unicode="&#xc1;" horiz-adv-x="1561" 
d="M322 537h368l-184 507zM342 0h-387v59q66 8 109.5 47t70.5 115l428 1200h426l496 -1362h108v-59h-876v59h145l-145 406h-422l-78 -234q-8 -22 -12 -43.5t-4 -37.5q0 -47 30.5 -69t94.5 -22h16v-59zM567 1557l279 297q52 54 86 74t69 20q47 0 79 -31.5t32 -76.5
q0 -36 -24 -63.5t-81 -55.5l-325 -164h-115z" />
    <glyph glyph-name="Edieresis" unicode="&#xcb;" horiz-adv-x="1612" 
d="M1450 1421v-491h-61q-56 231 -170.5 333.5t-317.5 102.5h-82v-612h6q124 0 190 69t81 213h59v-622h-59q-16 144 -82 213t-189 69h-6v-637h111q188 0 307 119t180 367h62v-545h-1407v59h155v1307h-155v55h1378zM858 1743q0 56 43 99t101 43q59 0 101 -41.5t42 -100.5
q0 -62 -41 -103.5t-102 -41.5q-60 0 -102 42.5t-42 102.5zM467 1743q0 56 44 99t101 43q60 0 101 -41.5t41 -100.5q0 -63 -40 -104t-102 -41q-59 0 -102 42.5t-43 102.5z" />
    <glyph glyph-name="Egrave" unicode="&#xc8;" horiz-adv-x="1612" 
d="M1450 1421v-491h-61q-56 231 -170.5 333.5t-317.5 102.5h-82v-612h6q124 0 190 69t81 213h59v-622h-59q-16 144 -82 213t-189 69h-6v-637h111q188 0 307 119t180 367h62v-545h-1407v59h155v1307h-155v55h1378zM1020 1557h-115l-325 164q-57 28 -81 55.5t-24 63.5
q0 45 32 76.5t79 31.5q35 0 69 -20t86 -74z" />
    <glyph glyph-name="Iacute" unicode="&#xcd;" horiz-adv-x="1049" 
d="M55 0v59h181v1307h-181v55h938v-55h-180v-1307h180v-59h-938zM311 1557l279 297q52 54 86 74t69 20q47 0 79 -31.5t32 -76.5q0 -36 -24 -63.5t-81 -55.5l-325 -164h-115z" />
    <glyph glyph-name="Icircumflex" unicode="&#xce;" horiz-adv-x="1049" 
d="M55 0v59h181v1307h-181v55h938v-55h-180v-1307h180v-59h-938zM202 1557l230 371h184l230 -371h-101l-221 172l-221 -172h-101z" />
    <glyph glyph-name="Idieresis" unicode="&#xcf;" horiz-adv-x="1049" 
d="M55 0v59h181v1307h-181v55h938v-55h-180v-1307h180v-59h-938zM575 1743q0 56 43 99t101 43q59 0 101 -41.5t42 -100.5q0 -62 -41 -103.5t-102 -41.5q-60 0 -102 42.5t-42 102.5zM184 1743q0 56 44 99t101 43q60 0 101 -41.5t41 -100.5q0 -63 -40 -104t-102 -41
q-59 0 -102 42.5t-43 102.5z" />
    <glyph glyph-name="Igrave" unicode="&#xcc;" horiz-adv-x="1049" 
d="M55 0v59h181v1307h-181v55h938v-55h-180v-1307h180v-59h-938zM737 1557h-115l-325 164q-57 28 -81 55.5t-24 63.5q0 45 32 76.5t79 31.5q35 0 69 -20t86 -74z" />
    <glyph glyph-name="Oacute" unicode="&#xd3;" horiz-adv-x="1667" 
d="M696 266q0 -130 32.5 -189t102.5 -59q72 0 105 59t33 189v877q0 129 -32.5 187.5t-105.5 58.5q-71 0 -103 -58.5t-32 -187.5v-877zM61 705q0 143 55.5 281.5t151.5 236.5q107 109 250.5 166t312.5 57q335 0 554 -212t219 -529q0 -319 -219 -531.5t-554 -212.5
q-147 0 -276.5 44t-230.5 128q-122 100 -192.5 253.5t-70.5 318.5zM621 1557l279 297q52 54 86 74t69 20q47 0 79 -31.5t32 -76.5q0 -36 -24 -63.5t-81 -55.5l-325 -164h-115z" />
    <glyph glyph-name="Ocircumflex" unicode="&#xd4;" horiz-adv-x="1667" 
d="M696 266q0 -130 32.5 -189t102.5 -59q72 0 105 59t33 189v877q0 129 -32.5 187.5t-105.5 58.5q-71 0 -103 -58.5t-32 -187.5v-877zM61 705q0 143 55.5 281.5t151.5 236.5q107 109 250.5 166t312.5 57q335 0 554 -212t219 -529q0 -319 -219 -531.5t-554 -212.5
q-147 0 -276.5 44t-230.5 128q-122 100 -192.5 253.5t-70.5 318.5zM512 1557l230 371h184l230 -371h-101l-221 172l-221 -172h-101z" />
    <glyph glyph-name="Ograve" unicode="&#xd2;" horiz-adv-x="1667" 
d="M696 266q0 -130 32.5 -189t102.5 -59q72 0 105 59t33 189v877q0 129 -32.5 187.5t-105.5 58.5q-71 0 -103 -58.5t-32 -187.5v-877zM61 705q0 143 55.5 281.5t151.5 236.5q107 109 250.5 166t312.5 57q335 0 554 -212t219 -529q0 -319 -219 -531.5t-554 -212.5
q-147 0 -276.5 44t-230.5 128q-122 100 -192.5 253.5t-70.5 318.5zM1047 1557h-115l-325 164q-57 28 -81 55.5t-24 63.5q0 45 32 76.5t79 31.5q35 0 69 -20t86 -74z" />
    <glyph glyph-name="Uacute" unicode="&#xda;" horiz-adv-x="1712" 
d="M1473 387q0 -207 -154.5 -316.5t-448.5 -109.5q-299 0 -464.5 103.5t-165.5 289.5v1010h-174v57h948v-57h-187v-995q0 -147 60.5 -216t187.5 -69q154 0 238 79t84 224v817q0 98 -38 129t-158 33l-1 55h471v-55q-121 -3 -159.5 -33t-38.5 -129v-817zM676 1557l279 297
q52 54 86 74t69 20q47 0 79 -31.5t32 -76.5q0 -36 -24 -63.5t-81 -55.5l-325 -164h-115z" />
    <glyph glyph-name="Ucircumflex" unicode="&#xdb;" horiz-adv-x="1712" 
d="M1473 387q0 -207 -154.5 -316.5t-448.5 -109.5q-299 0 -464.5 103.5t-165.5 289.5v1010h-174v57h948v-57h-187v-995q0 -147 60.5 -216t187.5 -69q154 0 238 79t84 224v817q0 98 -38 129t-158 33l-1 55h471v-55q-121 -3 -159.5 -33t-38.5 -129v-817zM567 1557l230 371h184
l230 -371h-101l-221 172l-221 -172h-101z" />
    <glyph glyph-name="Ugrave" unicode="&#xd9;" horiz-adv-x="1712" 
d="M1473 387q0 -207 -154.5 -316.5t-448.5 -109.5q-299 0 -464.5 103.5t-165.5 289.5v1010h-174v57h948v-57h-187v-995q0 -147 60.5 -216t187.5 -69q154 0 238 79t84 224v817q0 98 -38 129t-158 33l-1 55h471v-55q-121 -3 -159.5 -33t-38.5 -129v-817zM1102 1557h-115
l-325 164q-57 28 -81 55.5t-24 63.5q0 45 32 76.5t79 31.5q35 0 69 -20t86 -74z" />
    <glyph glyph-name="dotlessi" unicode="&#x131;" horiz-adv-x="801" 
d="M33 0v55h133v860h-119v52h289q68 0 135.5 7t132.5 21h35v-940h123v-55h-729z" />
    <glyph glyph-name="circumflex" unicode="&#x2c6;" horiz-adv-x="1024" 
d="M190 1106l230 371h184l230 -371h-101l-221 172l-221 -172h-101z" />
    <glyph glyph-name="tilde" unicode="&#x2dc;" horiz-adv-x="1024" 
d="M268 1137h-84q27 135 84 200.5t148 65.5q18 0 36.5 -3t41.5 -9l120 -31q20 -5 29 -6.5t16 -1.5q37 0 58.5 21t38.5 73h82q-29 -139 -85 -202.5t-149 -63.5q-16 0 -32.5 2t-30.5 6l-117 33q-24 6 -36.5 8t-20.5 2q-40 0 -64.5 -23.5t-34.5 -70.5z" />
    <glyph glyph-name="macron" unicode="&#x2c9;" horiz-adv-x="1024" 
d="M205 1206v168h614v-168h-614z" />
    <glyph glyph-name="breve" unicode="&#x2d8;" horiz-adv-x="1024" 
d="M184 1444h95q20 -67 73 -95t160 -28q106 0 160 28.5t71 94.5h95q-20 -147 -105 -227t-221 -80q-135 0 -220 79t-108 228z" />
    <glyph glyph-name="dotaccent" unicode="&#x2d9;" horiz-adv-x="1024" 
d="M365 1292q0 59 44.5 103.5t102.5 44.5q63 0 106.5 -43t43.5 -105q0 -64 -42.5 -106.5t-107.5 -42.5q-60 0 -103.5 44t-43.5 105z" />
    <glyph glyph-name="ring" unicode="&#x2da;" horiz-adv-x="1024" 
d="M391 1352q0 -52 34.5 -86.5t86.5 -34.5q51 0 87 35t36 86t-36.5 88t-86.5 37q-51 0 -86 -36.5t-35 -88.5zM248 1354q0 111 77 188.5t187 77.5q111 0 188.5 -78t77.5 -188q0 -112 -77.5 -189.5t-188.5 -77.5t-187.5 77.5t-76.5 189.5z" />
    <glyph glyph-name="cedilla" unicode="&#xb8;" horiz-adv-x="1024" 
d="M250 -379l47 103q67 -39 128 -58.5t116 -19.5q35 0 57.5 20.5t22.5 54.5q0 41 -23 61.5t-68 20.5q-15 0 -56 -7q-4 0 -7 -1v203h88v-115q24 4 44 6t34 2q78 0 127 -48t49 -124q0 -84 -60 -136t-157 -52q-69 0 -143 18.5t-199 71.5z" />
    <glyph glyph-name="hungarumlaut" unicode="&#x2dd;" horiz-adv-x="1024" 
d="M553 1106l223 289q49 63 78.5 83.5t63.5 20.5q39 0 67.5 -29.5t28.5 -68.5q0 -28 -20 -54t-60 -53l-291 -188h-90zM281 1106l147 270q39 73 68.5 98t66.5 25q39 0 65.5 -27t26.5 -65q0 -25 -14.5 -50t-44.5 -52l-225 -199h-90z" />
    <glyph glyph-name="ogonek" unicode="&#x2db;" horiz-adv-x="1024" 
d="M651 31q-88 -73 -127 -136t-39 -131q0 -48 23 -75t63 -27q35 0 59 15t52 55l35 -21q-42 -89 -101.5 -133.5t-136.5 -44.5q-79 0 -125.5 41t-46.5 111q0 88 70.5 173t216.5 173h57z" />
    <glyph glyph-name="caron" unicode="&#x2c7;" horiz-adv-x="1024" 
d="M190 1477h101l221 -172l221 172h101l-230 -371h-184z" />
    <glyph glyph-name="Lslash" unicode="&#x141;" horiz-adv-x="1526" 
d="M51 0v59h166v461l-192 -123l-35 62l227 149v758h-166v55h948v-55h-190v-428l330 213l39 -64l-369 -239v-789h111q187 0 306.5 119t180.5 367h63v-545h-1419z" />
    <glyph glyph-name="lslash" unicode="&#x142;" horiz-adv-x="815" 
d="M39 0v55h131v514l-141 -92l-39 58l180 116v719h-119v51h291q68 0 134.5 7.5t131.5 21.5h37v-528l148 96l38 -60l-186 -120v-783h121v-55h-727z" />
    <glyph glyph-name="Scaron" unicode="&#x160;" horiz-adv-x="1360" 
d="M156 -39h-47q5 87 6.5 130t1.5 79q0 46 -4 123t-10 176h57q95 -208 244.5 -327t308.5 -119q103 0 157 38.5t54 112.5q0 103 -255 217q-24 11 -37 17q-301 138 -411 261t-110 300q0 215 136 346t357 131q80 0 154 -20.5t151 -63.5l224 84h41q0 -50 -2 -106q-1 -15 -1 -19
q0 -91 5 -174.5t14 -173.5h-57q-103 197 -234 304t-268 107q-91 0 -143 -39t-52 -106q0 -102 301 -242q48 -22 74 -34q262 -125 367.5 -245.5t105.5 -283.5q0 -213 -144 -343t-382 -130q-95 0 -181 21.5t-190 72.5zM358 1928h101l221 -172l221 172h101l-230 -371h-184z" />
    <glyph glyph-name="scaron" unicode="&#x161;" horiz-adv-x="1110" 
d="M319 37l-169 -74h-50l-16 369h51q77 -146 206.5 -233t264.5 -87q74 0 114 27t40 76q0 88 -296 176q-43 13 -66 20q-140 43 -222 139.5t-82 217.5q0 143 104.5 235t268.5 92q71 0 142.5 -14t144.5 -43l168 57h41l4 -321h-39q-66 125 -181.5 200.5t-234.5 75.5
q-60 0 -93.5 -23.5t-33.5 -66.5q0 -86 224 -153l21 -6q214 -64 304 -152t90 -227q0 -172 -104 -265.5t-293 -93.5q-82 0 -153.5 17t-154.5 57zM233 1477h101l221 -172l221 172h101l-230 -371h-184z" />
    <glyph glyph-name="Zcaron" unicode="&#x17d;" horiz-adv-x="1421" 
d="M1333 0h-1298v59l670 1307h-27q-205 0 -345.5 -113t-197.5 -323h-67l34 491h1256v-55l-670 -1307h27q236 0 368.5 112t208.5 380h66zM389 1928h101l221 -172l221 172h101l-230 -371h-184z" />
    <glyph glyph-name="zcaron" unicode="&#x17e;" horiz-adv-x="1204" 
d="M33 0v51l555 869h-58q-130 0 -224.5 -78t-158.5 -238h-47l17 363h1009v-47l-561 -869h66q169 0 276 79.5t168 250.5h53l-18 -381h-1077zM280 1477h101l221 -172l221 172h101l-230 -371h-184z" />
    <glyph glyph-name="brokenbar" unicode="&#xa6;" horiz-adv-x="1024" 
d="M373 408h280v-758h-280v758zM373 1432h280v-758h-280v758z" />
    <glyph glyph-name="Eth" unicode="&#xd0;" horiz-adv-x="1821" 
d="M817 59h49q140 0 187 49t47 193v795q0 164 -46 217t-188 53h-49v-596h141v-76h-141v-635zM985 1421q365 0 557.5 -182t192.5 -528t-192.5 -528.5t-557.5 -182.5h-909v59h155v635h-221v76h221v596h-155v55h909z" />
    <glyph glyph-name="eth" unicode="&#xf0;" horiz-adv-x="1339" 
d="M772 147v666q0 69 -24.5 101t-77.5 32t-78 -32t-25 -101v-666q0 -70 24.5 -101.5t78.5 -31.5t78 31.5t24 101.5zM713 995q-39 55 -87.5 106.5t-109.5 100.5l-389 -155l-25 51l363 145q-62 46 -144.5 90.5t-185.5 87.5l19 35q83 -20 188.5 -57.5t253.5 -102.5l387 156
l27 -49l-340 -141q299 -152 460.5 -355.5t161.5 -427.5q0 -231 -171 -374.5t-451 -143.5t-451.5 144.5t-171.5 373.5q0 230 173 373t456 143h37z" />
    <glyph glyph-name="Yacute" unicode="&#xdd;" horiz-adv-x="1688" 
d="M1350 0h-983v59h190v521l-463 786h-127v55h942v-55h-145l371 -625l247 435q15 26 21 46.5t6 39.5q0 50 -40.5 76t-117.5 26v57h449v-55q-71 -13 -117 -45.5t-86 -101.5l-338 -580v-580h191v-59zM631 1557l279 297q52 54 86 74t69 20q47 0 79 -31.5t32 -76.5
q0 -36 -24 -63.5t-81 -55.5l-325 -164h-115z" />
    <glyph glyph-name="yacute" unicode="&#xfd;" horiz-adv-x="1327" 
d="M621 -18l-539 933h-107v52h746v-52h-117l287 -473l196 338q13 22 18 36.5t5 27.5q0 36 -27 52t-102 20v51h344v-52q-107 -19 -189 -160q-5 -9 -7 -13l-523 -908q-93 -162 -177.5 -226.5t-199.5 -64.5q-109 0 -178 61t-69 156q0 87 50 135t140 48q78 0 125 -43.5
t47 -114.5q0 -52 -41 -92.5t-41 -50.5q0 -13 10 -20t27 -7q50 0 120.5 66t131.5 174zM451 1106l279 297q52 54 86 74t69 20q47 0 79 -31.5t32 -76.5q0 -36 -24 -63.5t-81 -55.5l-325 -164h-115z" />
    <glyph glyph-name="Thorn" unicode="&#xde;" horiz-adv-x="1706" 
d="M793 371h30q125 0 168 47t43 174v268q0 127 -44 175t-167 48h-30v-712zM39 0v59h170v1307h-170v55h924v-55h-170v-225h278q293 0 433.5 -102t140.5 -314q0 -125 -45.5 -207.5t-145.5 -138.5q-65 -37 -150 -52.5t-288 -15.5h-223v-252h192v-59h-946z" />
    <glyph glyph-name="thorn" unicode="&#xfe;" horiz-adv-x="1384" 
d="M819 678q0 96 -22 138t-72 42q-57 0 -83 -71t-26 -234v-188q0 -140 28 -201.5t89 -61.5q48 0 67 42.5t19 160.5v373zM39 -455v54h102v1771h-118v51h290q70 0 137.5 7.5t131.5 21.5h34v-588h7q46 65 122.5 99t176.5 34q184 0 294.5 -141t110.5 -375q0 -230 -110.5 -374
t-288.5 -144q-102 0 -177 35t-128 108h-7v-505h170v-54h-747z" />
    <glyph glyph-name="minus" unicode="&#x2212;" horiz-adv-x="1706" 
d="M254 750h1198v-277h-1198v277z" />
    <glyph glyph-name="multiply" unicode="&#xd7;" horiz-adv-x="1706" 
d="M446 1231l428 -428l429 428l192 -193l-428 -428l428 -428l-192 -190l-429 428l-428 -428l-190 190l428 428l-428 428z" />
    <glyph glyph-name="onesuperior" unicode="&#xb9;" horiz-adv-x="897" 
d="M739 561h-577v35h125v778h-125v35h256q44 0 87.5 4t88.5 12h24v-829h121v-35z" />
    <glyph glyph-name="twosuperior" unicode="&#xb2;" horiz-adv-x="897" 
d="M76 539h-43q7 101 51 180t131 147q12 11 73 54t95 79q39 43 57.5 89t18.5 104q0 87 -44.5 138.5t-119.5 51.5q-44 0 -65 -9.5t-21 -29.5q0 -18 48 -37q6 -2 10 -4q34 -15 51.5 -38t17.5 -54q0 -56 -39.5 -91.5t-103.5 -35.5q-68 0 -107 37t-39 101q0 94 95.5 149
t260.5 55q191 0 301.5 -69t110.5 -187q0 -55 -27 -102t-77 -80q-62 -43 -258 -86q-50 -10 -76 -16q-85 -19 -146 -59t-75 -85l14 -10q60 38 125 55t147 17q55 0 139 -9.5t113 -9.5q46 0 73 17.5t30 48.5h45q-8 -151 -91.5 -231t-232.5 -80q-80 0 -198.5 27.5t-155.5 27.5
q-39 0 -59.5 -13t-28.5 -42z" />
    <glyph glyph-name="threesuperior" unicode="&#xb3;" horiz-adv-x="897" 
d="M563 1016v-21q136 -18 201 -72t65 -149q0 -114 -110.5 -174.5t-319.5 -60.5q-174 0 -262 51.5t-88 152.5q0 66 40 103t112 37q64 0 101.5 -34.5t37.5 -92.5q0 -30 -10 -51.5t-31 -36.5q-7 -6 -23 -14q-32 -18 -32 -36q0 -21 18.5 -30.5t59.5 -9.5q76 0 110.5 38t34.5 121
v123q0 66 -23.5 93.5t-81.5 27.5q-11 0 -28.5 -2t-22.5 -2q-8 0 -15 7t-7 15q0 9 7.5 16t16.5 7q5 0 23 -2t31 -2q55 0 77.5 31.5t22.5 111.5v90q0 73 -32.5 105.5t-104.5 32.5q-39 0 -58.5 -9.5t-19.5 -27.5q0 -16 37 -35q12 -7 19 -11q21 -14 30.5 -32.5t9.5 -46.5
q0 -54 -35.5 -85.5t-95.5 -31.5q-64 0 -104.5 36t-40.5 93q0 89 91.5 137.5t258.5 48.5q181 0 279 -56.5t98 -160.5q0 -81 -58.5 -129t-177.5 -63z" />
    <glyph glyph-name="onehalf" unicode="&#xbd;" horiz-adv-x="2056" 
d="M1272 -23h-41q7 96 49 170t125 138q13 10 71 49.5t91 75.5q37 40 54 83.5t17 96.5q0 80 -42.5 128t-114.5 48q-41 0 -60.5 -8.5t-19.5 -26.5q0 -17 41 -34q8 -3 12 -5q35 -16 51.5 -36.5t16.5 -49.5q0 -52 -38.5 -85.5t-99.5 -33.5q-64 0 -101.5 35t-37.5 94
q0 88 91 139.5t249 51.5q182 0 287.5 -65t105.5 -175q0 -52 -25.5 -95t-74.5 -75q-62 -41 -253 -82q-42 -9 -64 -14q-82 -17 -140.5 -54t-72.5 -79l14 -8q61 34 123.5 49.5t138.5 15.5q51 0 130.5 -8t109.5 -8q42 0 67.5 16t30.5 45h41q-8 -142 -87.5 -217.5t-221.5 -75.5
q-77 0 -189.5 27t-148.5 27q-37 0 -56.5 -12.5t-27.5 -41.5zM516 -39l924 1481h100l-924 -1481h-100zM705 616h-551v33h118v725h-118v33h245q42 0 83.5 4t84.5 12h23v-774h115v-33z" />
    <glyph glyph-name="onequarter" unicode="&#xbc;" horiz-adv-x="2056" 
d="M1587 260v348l-321 -348h321zM2001 0h-520v33h104v186h-366v53l495 535h184v-547h107v-41h-107v-186h103v-33zM516 -39l924 1481h100l-924 -1481h-100zM705 616h-551v33h118v725h-118v33h245q42 0 83.5 4t84.5 12h23v-774h115v-33z" />
    <glyph glyph-name="threequarters" unicode="&#xbe;" horiz-adv-x="2056" 
d="M1585 260v348l-321 -348h321zM1999 0h-520v33h104v186h-366v53l495 535h184v-547h107v-41h-107v-186h103v-33zM514 -39l924 1481h100l-924 -1481h-100zM539 1040v-18q129 -17 191.5 -67.5t62.5 -139.5q0 -106 -107 -163.5t-305 -57.5q-166 0 -250 48t-84 144
q0 62 38 95.5t105 33.5q63 0 99.5 -31t36.5 -85q0 -27 -10.5 -47.5t-30.5 -36.5q-8 -5 -22 -12q-32 -16 -32 -33q0 -20 18 -28.5t58 -8.5q73 0 106 36t33 113v115q0 61 -22.5 87t-77.5 26q-11 0 -27.5 -3t-21.5 -3q-8 0 -15.5 6.5t-7.5 13.5q0 10 7.5 16.5t17.5 6.5
q5 0 22 -2.5t29 -2.5q52 0 73 29.5t21 104.5v84q0 68 -30 98.5t-99 30.5q-37 0 -55 -8.5t-18 -24.5t36 -35q11 -6 15 -8q20 -13 30.5 -31.5t10.5 -42.5q0 -50 -35 -80.5t-92 -30.5q-62 0 -100.5 33.5t-38.5 87.5q0 83 87.5 128.5t247.5 45.5q171 0 265 -53t94 -149
q0 -76 -56 -121.5t-167 -59.5z" />
    <glyph glyph-name="franc" unicode="&#x20a3;" horiz-adv-x="2767" 
d="M1450 1421v-491h-61q-56 231 -170.5 333.5t-317.5 102.5h-94v-612h6q123 0 188 68.5t80 213.5h60v-624h-60q-15 146 -80.5 215t-187.5 69h-6v-637h184v-59h-948v59h162v1307h-162v55h1407zM1587 0v55h119v860h-119v52h283q68 0 135.5 7t132.5 21h35v-239h16
q64 125 142 182t186 57q109 0 172 -62t63 -169q0 -102 -62.5 -162.5t-166.5 -60.5q-91 0 -151 49t-60 121v28q0 26 -5.5 37.5t-17.5 11.5q-36 0 -73 -114t-37 -248v-371h158v-55h-750z" />
    <glyph glyph-name="Gbreve" unicode="&#x11e;" horiz-adv-x="1669" 
d="M819 668v57h811v-57h-108l-1 -541q-58 -5 -113.5 -16t-109.5 -29q-23 -8 -76 -29q-226 -92 -405 -92q-148 0 -270 42t-223 128q-123 105 -194 258t-71 316q0 324 222 533.5t575 209.5q110 0 205 -26.5t192 -84.5l174 109h58v-508h-62q-68 202 -180 308t-258 106
q-156 0 -222.5 -91t-66.5 -313v-727q0 -106 32.5 -153.5t102.5 -47.5q63 0 93 50t30 151v447h-135zM508 1895h95q20 -67 73 -95t160 -28q106 0 160 28.5t71 94.5h95q-20 -147 -105 -227t-221 -80q-135 0 -220 79t-108 228z" />
    <glyph glyph-name="gbreve" unicode="&#x11f;" horiz-adv-x="1327" 
d="M367 -137q-22 -23 -35 -55.5t-13 -63.5q0 -75 76.5 -108t249.5 -33q209 0 318.5 39t109.5 114q0 46 -29.5 67t-93.5 21q-25 0 -113 -4t-151 -4q-106 0 -180.5 6.5t-138.5 20.5zM549 596q0 -92 26 -139t76 -47q56 0 80.5 41.5t24.5 144.5v211q0 77 -24.5 112t-78.5 35
q-48 0 -76 -39.5t-28 -107.5v-211zM289 -137v22q-91 43 -135.5 106.5t-44.5 149.5q0 102 69 175.5t176 80.5v15q-123 46 -174 106.5t-51 157.5q0 154 129 237.5t369 83.5q44 0 112.5 -3.5t85.5 -4.5q53 104 129 161.5t160 57.5q79 0 126.5 -40.5t47.5 -108.5q0 -51 -32 -82
t-87 -31q-51 0 -88 30t-37 71q0 7 2.5 19.5t2.5 16.5q0 18 -5 24.5t-16 6.5q-36 0 -73.5 -34.5t-73.5 -100.5q144 -35 219.5 -113.5t75.5 -193.5q0 -155 -128.5 -233.5t-383.5 -78.5q-46 0 -122 6.5t-108 6.5q-52 0 -75 -14t-23 -46q0 -39 37 -56t123 -17q481 0 610 -65.5
t129 -237.5q0 -198 -150.5 -295t-457.5 -97q-295 0 -412 40t-117 136q0 57 45.5 90.5t145.5 51.5zM336 1444h95q20 -67 73 -95t160 -28q106 0 160 28.5t71 94.5h95q-20 -147 -105 -227t-221 -80q-135 0 -220 79t-108 228z" />
    <glyph glyph-name="Idotaccent" unicode="&#x130;" horiz-adv-x="1049" 
d="M55 0v59h181v1307h-181v55h938v-55h-180v-1307h180v-59h-938zM377 1743q0 59 44.5 103.5t102.5 44.5q63 0 106.5 -43t43.5 -105q0 -64 -42.5 -106.5t-107.5 -42.5q-60 0 -103.5 44t-43.5 105z" />
    <glyph glyph-name="Scedilla" unicode="&#x15e;" horiz-adv-x="1360" 
d="M156 -39h-47q5 87 6.5 130t1.5 79q0 46 -4 123t-10 176h57q95 -208 244.5 -327t308.5 -119q103 0 157 38.5t54 112.5q0 103 -255 217q-24 11 -37 17q-301 138 -411 261t-110 300q0 215 136 346t357 131q80 0 154 -20.5t151 -63.5l224 84h41q0 -50 -2 -106q-1 -15 -1 -19
q0 -91 5 -174.5t14 -173.5h-57q-103 197 -234 304t-268 107q-91 0 -143 -39t-52 -106q0 -102 301 -242q48 -22 74 -34q262 -125 367.5 -245.5t105.5 -283.5q0 -213 -144 -343t-382 -130q-95 0 -181 21.5t-190 72.5zM418 -379l47 103q67 -39 128 -58.5t116 -19.5
q35 0 57.5 20.5t22.5 54.5q0 41 -23 61.5t-68 20.5q-15 0 -56 -7q-4 0 -7 -1v203h88v-115q24 4 44 6t34 2q78 0 127 -48t49 -124q0 -84 -60 -136t-157 -52q-69 0 -143 18.5t-199 71.5z" />
    <glyph glyph-name="scedilla" unicode="&#x15f;" horiz-adv-x="1110" 
d="M319 37l-169 -74h-50l-16 369h51q77 -146 206.5 -233t264.5 -87q74 0 114 27t40 76q0 88 -296 176q-43 13 -66 20q-140 43 -222 139.5t-82 217.5q0 143 104.5 235t268.5 92q71 0 142.5 -14t144.5 -43l168 57h41l4 -321h-39q-66 125 -181.5 200.5t-234.5 75.5
q-60 0 -93.5 -23.5t-33.5 -66.5q0 -86 224 -153l21 -6q214 -64 304 -152t90 -227q0 -172 -104 -265.5t-293 -93.5q-82 0 -153.5 17t-154.5 57zM293 -379l47 103q67 -39 128 -58.5t116 -19.5q35 0 57.5 20.5t22.5 54.5q0 41 -23 61.5t-68 20.5q-15 0 -56 -7q-4 0 -7 -1v203
h88v-115q24 4 44 6t34 2q78 0 127 -48t49 -124q0 -84 -60 -136t-157 -52q-69 0 -143 18.5t-199 71.5z" />
    <glyph glyph-name="Cacute" unicode="&#x106;" horiz-adv-x="1546" 
d="M1432 938h-62q-66 199 -178 306.5t-252 107.5q-139 0 -189.5 -114.5t-50.5 -578.5q0 -360 60.5 -476.5t214.5 -116.5q167 0 278 107.5t142 299.5h67q-24 -249 -186 -380.5t-445 -131.5q-333 0 -552.5 213t-219.5 531q0 140 56 279.5t151 238.5q105 106 249.5 164.5
t303.5 58.5q105 0 191.5 -24.5t189.5 -84.5l174 109h58v-508zM618 1557l279 297q52 54 86 74t69 20q47 0 79 -31.5t32 -76.5q0 -36 -24 -63.5t-81 -55.5l-325 -164h-115z" />
    <glyph glyph-name="cacute" unicode="&#x107;" horiz-adv-x="1204" 
d="M1102 254l37 -27q-66 -129 -198 -197.5t-318 -68.5q-262 0 -419 143t-157 375q0 235 158 375.5t426 140.5q249 0 382.5 -85t133.5 -242q0 -105 -61.5 -165.5t-167.5 -60.5q-97 0 -154 55.5t-57 149.5q0 59 20 96.5t66 65.5q11 7 31 18q50 27 50 58q0 25 -28.5 41
t-75.5 16q-111 0 -161 -101t-50 -329q0 -268 54 -366.5t186 -98.5q79 0 154.5 51.5t148.5 155.5zM416 1106l279 297q52 54 86 74t69 20q47 0 79 -31.5t32 -76.5q0 -36 -24 -63.5t-81 -55.5l-325 -164h-115z" />
    <glyph glyph-name="Ccaron" unicode="&#x10c;" horiz-adv-x="1546" 
d="M1432 938h-62q-66 199 -178 306.5t-252 107.5q-139 0 -189.5 -114.5t-50.5 -578.5q0 -360 60.5 -476.5t214.5 -116.5q167 0 278 107.5t142 299.5h67q-24 -249 -186 -380.5t-445 -131.5q-333 0 -552.5 213t-219.5 531q0 140 56 279.5t151 238.5q105 106 249.5 164.5
t303.5 58.5q105 0 191.5 -24.5t189.5 -84.5l174 109h58v-508zM509 1928h101l221 -172l221 172h101l-230 -371h-184z" />
    <glyph glyph-name="ccaron" unicode="&#x10d;" horiz-adv-x="1204" 
d="M1102 254l37 -27q-66 -129 -198 -197.5t-318 -68.5q-262 0 -419 143t-157 375q0 235 158 375.5t426 140.5q249 0 382.5 -85t133.5 -242q0 -105 -61.5 -165.5t-167.5 -60.5q-97 0 -154 55.5t-57 149.5q0 59 20 96.5t66 65.5q11 7 31 18q50 27 50 58q0 25 -28.5 41
t-75.5 16q-111 0 -161 -101t-50 -329q0 -268 54 -366.5t186 -98.5q79 0 154.5 51.5t148.5 155.5zM307 1477h101l221 -172l221 172h101l-230 -371h-184z" />
    <glyph glyph-name="dcroat" unicode="&#x111;" horiz-adv-x="1395" 
d="M563 287q0 -96 23 -138.5t73 -42.5q58 0 83.5 71.5t25.5 234.5v186q0 139 -27 200.5t-86 61.5q-51 0 -71.5 -43.5t-20.5 -159.5v-370zM938 1421q69 0 136 7.5t132 21.5h35v-233h143v-68h-143v-1098h115v-51h-256q-69 0 -136 -7t-133 -22h-34v224q-30 -112 -117 -173
t-217 -61q-184 0 -295 142t-111 376q0 231 111 373.5t289 142.5q114 0 201.5 -47t113.5 -121v322h-315v68h315v153h-156v51h322z" />
    <glyph glyph-name="overscore" unicode="&#xaf;" horiz-adv-x="1024" 
d="M0 1565h1024v-283h-1024v283z" />
    <glyph glyph-name="periodcenter" unicode="&#x2219;" horiz-adv-x="680" 
d="M121 702q0 93 63.5 156.5t155.5 63.5q91 0 156 -64.5t65 -155.5q0 -90 -65.5 -155.5t-155.5 -65.5q-92 0 -155.5 64.5t-63.5 156.5z" />
    <glyph glyph-name="Abreve" unicode="&#x102;" horiz-adv-x="1561" 
d="M322 537h368l-184 507zM342 0h-387v59q66 8 109.5 47t70.5 115l428 1200h426l496 -1362h108v-59h-876v59h145l-145 406h-422l-78 -234q-8 -22 -12 -43.5t-4 -37.5q0 -47 30.5 -69t94.5 -22h16v-59zM452 1895h95q20 -67 73 -95t160 -28q106 0 160 28.5t71 94.5h95
q-20 -147 -105 -227t-221 -80q-135 0 -220 79t-108 228z" />
    <glyph glyph-name="abreve" unicode="&#x103;" horiz-adv-x="1337" 
d="M733 508h-28q-93 0 -129.5 -50.5t-36.5 -189.5q0 -88 21.5 -130t68.5 -42q54 0 79 47.5t25 151.5v213zM1305 166l32 -23q-55 -83 -150.5 -132.5t-197.5 -49.5q-82 0 -141 38.5t-94 115.5q-74 -77 -171 -115.5t-218 -38.5q-145 0 -231.5 74t-86.5 196q0 149 151.5 236.5
t411.5 87.5h121v295q0 48 -28.5 70t-90.5 22q-31 0 -54 -10t-23 -21q0 -6 15 -20q52 -49 52 -123q0 -76 -62.5 -115t-183.5 -39q-112 0 -169.5 41.5t-57.5 122.5q0 116 115 166.5t387 50.5q201 0 318 -23.5t171 -74.5q37 -34 52.5 -79.5t15.5 -141.5v-496q0 -34 9.5 -46.5
t33.5 -12.5t43.5 12t30.5 33zM342 1444h95q20 -67 73 -95t160 -28q106 0 160 28.5t71 94.5h95q-20 -147 -105 -227t-221 -80q-135 0 -220 79t-108 228z" />
    <glyph glyph-name="Aogonek" unicode="&#x104;" horiz-adv-x="1561" 
d="M322 537h368l-184 507zM342 0h-387v59q66 8 109.5 47t70.5 115l428 1200h426l496 -1362h108v-59h-39q-78 0 -134 -72t-56 -164q0 -48 22 -75t62 -27q34 0 58 15t53 55l34 -21q-41 -89 -100.5 -133.5t-136.5 -44.5q-79 0 -124.5 41t-45.5 111q0 87 65.5 170t184.5 145
h-719v59h145l-145 406h-422l-78 -234q-8 -22 -12 -43.5t-4 -37.5q0 -47 30.5 -69t94.5 -22h16v-59z" />
    <glyph glyph-name="aogonek" unicode="&#x105;" horiz-adv-x="1337" 
d="M733 508h-28q-93 0 -129.5 -50.5t-36.5 -189.5q0 -88 21.5 -130t68.5 -42q54 0 79 47.5t25 151.5v213zM1305 166l32 -23q-39 -50 -116 -128q-144 -146 -144 -251q0 -48 22 -75t62 -27q34 0 58.5 15t52.5 55l35 -21q-42 -89 -101.5 -133.5t-136.5 -44.5q-79 0 -124.5 41
t-45.5 111q0 80 51 149t185 160q-41 -16 -78.5 -24.5t-69.5 -8.5q-80 0 -139 39t-94 115q-74 -77 -171 -115.5t-218 -38.5q-145 0 -231.5 74t-86.5 196q0 149 151.5 236.5t411.5 87.5h121v295q0 48 -28.5 70t-90.5 22q-31 0 -54 -10t-23 -21q0 -6 15 -20q52 -49 52 -123
q0 -76 -62.5 -115t-183.5 -39q-112 0 -169.5 41.5t-57.5 122.5q0 116 115 166.5t387 50.5q201 0 318 -23.5t171 -74.5q37 -34 52.5 -79.5t15.5 -141.5v-496q0 -34 9.5 -46.5t33.5 -12.5t43.5 12t30.5 33z" />
    <glyph glyph-name="Dcaron" unicode="&#x10e;" horiz-adv-x="1810" 
d="M975 1421q365 0 558 -182.5t193 -527.5q0 -346 -193 -528.5t-558 -182.5h-909v59h157v1307h-157v55h909zM827 59h31q139 0 185.5 48.5t46.5 193.5v795q0 165 -45.5 217.5t-186.5 52.5h-31v-1307zM583 1928h101l221 -172l221 172h101l-230 -371h-184z" />
    <glyph glyph-name="dcaron" unicode="&#x10f;" horiz-adv-x="1866" 
d="M563 287q0 -96 23 -138.5t73 -42.5q57 0 83.5 70.5t29.5 234.5v187q0 136 -28.5 199t-88.5 63q-51 0 -71.5 -43.5t-20.5 -159.5v-370zM938 1421q69 0 136 7.5t132 21.5h35v-1399h115v-51h-256q-69 0 -136 -7t-133 -22h-34v224q-30 -112 -117 -173t-217 -61
q-184 0 -295 142t-111 376q0 231 111 373.5t289 142.5q114 0 201.5 -47t113.5 -121v543h-156v51h322zM1431 805v55q140 41 231 101t91 106q0 2 -3.5 5t-7.5 3q-2 0 -49 -15.5t-96 -15.5q-96 0 -154.5 54t-58.5 141q0 90 64 148.5t165 58.5q114 0 184 -76t70 -196
q0 -130 -117.5 -230t-318.5 -139z" />
    <glyph glyph-name="Dslash" unicode="&#x110;" horiz-adv-x="1821" 
d="M817 59h49q140 0 187 49t47 193v795q0 164 -46 217t-188 53h-49v-596h141v-76h-141v-635zM985 1421q365 0 557.5 -182t192.5 -528t-192.5 -528.5t-557.5 -182.5h-909v59h155v635h-221v76h221v596h-155v55h909z" />
    <glyph glyph-name="Eogonek" unicode="&#x118;" horiz-adv-x="1612" 
d="M1450 1421v-491h-61q-56 231 -170.5 333.5t-317.5 102.5h-82v-612h6q124 0 190 69t81 213h59v-622h-59q-16 144 -82 213t-189 69h-6v-637h111q188 0 307 119t180 367h62v-545h-43q-69 0 -128 -74t-59 -162q0 -48 23 -75t63 -27q34 0 57 14.5t52 55.5l35 -21
q-42 -89 -100.5 -133.5t-135.5 -44.5q-79 0 -125.5 41t-46.5 111q0 85 65 166t189 149h-1253v59h155v1307h-155v55h1378z" />
    <glyph glyph-name="eogonek" unicode="&#x119;" horiz-adv-x="1290" 
d="M1239 433l-684 -1v-121q0 -135 59 -204.5t172 -69.5q116 0 209.5 53t173.5 164l39 -27q-44 -66 -191 -208.5t-147 -254.5q0 -48 23 -75t63 -27q35 0 59 15t52 55l33 -21q-42 -89 -100.5 -133.5t-135.5 -44.5q-79 0 -125.5 41t-46.5 111q0 85 65.5 166.5t196.5 158.5
q-61 -25 -131.5 -37t-163.5 -12q-279 0 -445.5 143.5t-166.5 376.5q0 227 165.5 370.5t434.5 143.5q283 0 436.5 -146t155.5 -416zM760 479v334q0 69 -25 101t-78 32q-52 0 -77 -32t-25 -101v-334h205z" />
    <glyph glyph-name="Ecaron" unicode="&#x11a;" horiz-adv-x="1612" 
d="M1450 1421v-491h-61q-56 231 -170.5 333.5t-317.5 102.5h-82v-612h6q124 0 190 69t81 213h59v-622h-59q-16 144 -82 213t-189 69h-6v-637h111q188 0 307 119t180 367h62v-545h-1407v59h155v1307h-155v55h1378zM485 1928h101l221 -172l221 172h101l-230 -371h-184z" />
    <glyph glyph-name="ecaron" unicode="&#x11b;" horiz-adv-x="1290" 
d="M1239 433l-684 -1v-121q0 -135 59 -204.5t172 -69.5q116 0 209.5 53t173.5 164l39 -27q-75 -133 -212.5 -199.5t-336.5 -66.5q-279 0 -445.5 143t-166.5 375q0 229 165.5 372.5t434.5 143.5q283 0 436.5 -146t155.5 -416zM760 479v334q0 69 -25 101t-78 32q-52 0 -77 -32
t-25 -101v-334h205zM323 1477h101l221 -172l221 172h101l-230 -371h-184z" />
    <glyph glyph-name="Lacute" unicode="&#x139;" horiz-adv-x="1518" 
d="M41 0v59h166v1307h-166v55h948v-55h-188v-1307h110q188 0 307.5 119t180.5 367h61v-545h-1419zM301 1557l279 297q52 54 86 74t69 20q47 0 79 -31.5t32 -76.5q0 -36 -24 -63.5t-81 -55.5l-325 -164h-115z" />
    <glyph glyph-name="lacute" unicode="&#x13a;" horiz-adv-x="797" 
d="M29 0v55h133v1315h-121v51h291q68 0 135.5 7.5t132.5 21.5h35v-1395h121v-55h-727zM186 1561l279 297q52 54 86 74t69 20q47 0 79 -31.5t32 -76.5q0 -36 -24 -63.5t-81 -55.5l-325 -164h-115z" />
    <glyph glyph-name="Lcaron" unicode="&#x13d;" horiz-adv-x="1518" 
d="M41 0v59h166v1307h-166v55h948v-55h-188v-1307h110q188 0 307.5 119t180.5 367h61v-545h-1419zM1063 805v55q140 41 229.5 101t89.5 106q0 3 -2.5 5.5t-5.5 2.5q-2 0 -50.5 -15.5t-96.5 -15.5q-96 0 -154.5 54t-58.5 141q0 90 64 148.5t165 58.5q114 0 184 -75.5
t70 -196.5q0 -130 -117 -230t-317 -139z" />
    <glyph glyph-name="lcaron" unicode="&#x13e;" horiz-adv-x="1278" 
d="M29 0v55h133v1315h-121v51h291q68 0 135.5 7.5t132.5 21.5h35v-1395h121v-55h-727zM844 805v55q140 41 231 101t91 106q0 2 -3.5 5t-7.5 3q-2 0 -49 -15.5t-96 -15.5q-96 0 -154.5 54t-58.5 141q0 90 64 148.5t165 58.5q114 0 184 -76t70 -196q0 -130 -117.5 -230
t-318.5 -139z" />
    <glyph glyph-name="Ldot" unicode="&#x13f;" horiz-adv-x="2198" 
d="M41 0v59h166v1307h-166v55h948v-55h-188v-1307h110q188 0 307.5 119t180.5 367h61v-545h-1419zM1639 702q0 93 63.5 156.5t155.5 63.5q91 0 156 -64.5t65 -155.5q0 -90 -65.5 -155.5t-155.5 -65.5q-92 0 -155.5 64.5t-63.5 156.5z" />
    <glyph glyph-name="ldot" unicode="&#x140;" horiz-adv-x="1477" 
d="M29 0v55h133v1315h-121v51h291q68 0 135.5 7.5t132.5 21.5h35v-1395h121v-55h-727zM918 702q0 93 63.5 156.5t155.5 63.5q91 0 156 -64.5t65 -155.5q0 -90 -65.5 -155.5t-155.5 -65.5q-92 0 -155.5 64.5t-63.5 156.5z" />
    <glyph glyph-name="Nacute" unicode="&#x143;" horiz-adv-x="1622" 
d="M285 215q0 -97 38 -127.5t158 -30.5v-57h-471v57h15q110 0 147 30.5t37 127.5v1151h-199v55h772l559 -772v557q0 98 -37.5 129t-148.5 31h-12v55h471v-55h-12q-110 0 -147.5 -31t-37.5 -129v-1206h-313l-819 1135v-920zM614 1557l279 297q52 54 86 74t69 20
q47 0 79 -31.5t32 -76.5q0 -36 -24 -63.5t-81 -55.5l-325 -164h-115z" />
    <glyph glyph-name="nacute" unicode="&#x144;" horiz-adv-x="1432" 
d="M39 0v55h117v860h-117v52h266q69 0 136 7t132 21h35l-2 -194h21q47 94 136.5 144t209.5 50q164 0 235.5 -84.5t71.5 -294.5v-561h115v-55h-647v55h63v660q0 54 -16 80t-50 26q-57 0 -87.5 -64.5t-30.5 -187.5v-514h63v-55h-651zM504 1106l279 297q52 54 86 74t69 20
q47 0 79 -31.5t32 -76.5q0 -36 -24 -63.5t-81 -55.5l-325 -164h-115z" />
    <glyph glyph-name="Ncaron" unicode="&#x147;" horiz-adv-x="1622" 
d="M285 215q0 -97 38 -127.5t158 -30.5v-57h-471v57h15q110 0 147 30.5t37 127.5v1151h-199v55h772l559 -772v557q0 98 -37.5 129t-148.5 31h-12v55h471v-55h-12q-110 0 -147.5 -31t-37.5 -129v-1206h-313l-819 1135v-920zM505 1928h101l221 -172l221 172h101l-230 -371
h-184z" />
    <glyph glyph-name="ncaron" unicode="&#x148;" horiz-adv-x="1432" 
d="M39 0v55h117v860h-117v52h266q69 0 136 7t132 21h35l-2 -194h21q47 94 136.5 144t209.5 50q164 0 235.5 -84.5t71.5 -294.5v-561h115v-55h-647v55h63v660q0 54 -16 80t-50 26q-57 0 -87.5 -64.5t-30.5 -187.5v-514h63v-55h-651zM395 1477h101l221 -172l221 172h101
l-230 -371h-184z" />
    <glyph glyph-name="Odblacute" unicode="&#x150;" horiz-adv-x="1667" 
d="M696 266q0 -130 32.5 -189t102.5 -59q72 0 105 59t33 189v877q0 129 -32.5 187.5t-105.5 58.5q-71 0 -103 -58.5t-32 -187.5v-877zM61 705q0 143 55.5 281.5t151.5 236.5q107 109 250.5 166t312.5 57q335 0 554 -212t219 -529q0 -319 -219 -531.5t-554 -212.5
q-147 0 -276.5 44t-230.5 128q-122 100 -192.5 253.5t-70.5 318.5zM875 1557l223 289q49 63 78.5 83.5t63.5 20.5q39 0 67.5 -29.5t28.5 -68.5q0 -28 -20 -54t-60 -53l-291 -188h-90zM603 1557l147 270q39 73 68.5 98t66.5 25q39 0 65.5 -27t26.5 -65q0 -25 -14.5 -50
t-44.5 -52l-225 -199h-90z" />
    <glyph glyph-name="odblacute" unicode="&#x151;" horiz-adv-x="1339" 
d="M47 479q0 229 171.5 372.5t451.5 143.5q281 0 451.5 -142.5t170.5 -373.5t-171 -374.5t-451 -143.5t-451.5 144.5t-171.5 373.5zM772 147v666q0 69 -24.5 101t-77.5 32t-78 -32t-25 -101v-666q0 -70 24.5 -101.5t78.5 -31.5t78 31.5t24 101.5zM711 1106l223 289
q49 63 78.5 83.5t63.5 20.5q39 0 67.5 -29.5t28.5 -68.5q0 -28 -20 -54t-60 -53l-291 -188h-90zM439 1106l147 270q39 73 68.5 98t66.5 25q39 0 65.5 -27t26.5 -65q0 -25 -14.5 -50t-44.5 -52l-225 -199h-90z" />
    <glyph glyph-name="Racute" unicode="&#x154;" horiz-adv-x="1839" 
d="M793 807h38q124 0 165.5 38.5t41.5 143.5v189q0 101 -44.5 144.5t-149.5 43.5h-51v-559zM57 59h152v1307h-152v55h998q312 0 451 -78t139 -251q0 -149 -112.5 -224t-350.5 -86v-38q176 -2 278 -67t148 -204q26 -82 29.5 -216t48.5 -134q22 0 44.5 19.5t43.5 56.5l49 -33
q-55 -97 -154.5 -151t-224.5 -54q-217 0 -323.5 114t-106.5 345q0 26 1 56.5t1 35.5q0 137 -39 181t-154 44h-30v-678h168v-59h-904v59zM707 1557l279 297q52 54 86 74t69 20q47 0 79 -31.5t32 -76.5q0 -36 -24 -63.5t-81 -55.5l-325 -164h-115z" />
    <glyph glyph-name="racute" unicode="&#x155;" horiz-adv-x="1223" 
d="M43 0v55h119v860h-119v52h283q68 0 135.5 7t132.5 21h35v-239h16q64 125 142 182t186 57q109 0 172 -62t63 -169q0 -102 -62.5 -162.5t-166.5 -60.5q-91 0 -151 49t-60 121v28q0 26 -5.5 37.5t-17.5 11.5q-36 0 -73 -114t-37 -248v-371h158v-55h-750zM399 1106l279 297
q52 54 86 74t69 20q47 0 79 -31.5t32 -76.5q0 -36 -24 -63.5t-81 -55.5l-325 -164h-115z" />
    <glyph glyph-name="Rcaron" unicode="&#x158;" horiz-adv-x="1839" 
d="M793 807h38q124 0 165.5 38.5t41.5 143.5v189q0 101 -44.5 144.5t-149.5 43.5h-51v-559zM57 59h152v1307h-152v55h998q312 0 451 -78t139 -251q0 -149 -112.5 -224t-350.5 -86v-38q176 -2 278 -67t148 -204q26 -82 29.5 -216t48.5 -134q22 0 44.5 19.5t43.5 56.5l49 -33
q-55 -97 -154.5 -151t-224.5 -54q-217 0 -323.5 114t-106.5 345q0 26 1 56.5t1 35.5q0 137 -39 181t-154 44h-30v-678h168v-59h-904v59zM598 1928h101l221 -172l221 172h101l-230 -371h-184z" />
    <glyph glyph-name="rcaron" unicode="&#x159;" horiz-adv-x="1223" 
d="M43 0v55h119v860h-119v52h283q68 0 135.5 7t132.5 21h35v-239h16q64 125 142 182t186 57q109 0 172 -62t63 -169q0 -102 -62.5 -162.5t-166.5 -60.5q-91 0 -151 49t-60 121v28q0 26 -5.5 37.5t-17.5 11.5q-36 0 -73 -114t-37 -248v-371h158v-55h-750zM290 1477h101
l221 -172l221 172h101l-230 -371h-184z" />
    <glyph glyph-name="Sacute" unicode="&#x15a;" horiz-adv-x="1360" 
d="M156 -39h-47q5 87 6.5 130t1.5 79q0 46 -4 123t-10 176h57q95 -208 244.5 -327t308.5 -119q103 0 157 38.5t54 112.5q0 103 -255 217q-24 11 -37 17q-301 138 -411 261t-110 300q0 215 136 346t357 131q80 0 154 -20.5t151 -63.5l224 84h41q0 -50 -2 -106q-1 -15 -1 -19
q0 -91 5 -174.5t14 -173.5h-57q-103 197 -234 304t-268 107q-91 0 -143 -39t-52 -106q0 -102 301 -242q48 -22 74 -34q262 -125 367.5 -245.5t105.5 -283.5q0 -213 -144 -343t-382 -130q-95 0 -181 21.5t-190 72.5zM467 1557l279 297q52 54 86 74t69 20q47 0 79 -31.5
t32 -76.5q0 -36 -24 -63.5t-81 -55.5l-325 -164h-115z" />
    <glyph glyph-name="sacute" unicode="&#x15b;" horiz-adv-x="1110" 
d="M319 37l-169 -74h-50l-16 369h51q77 -146 206.5 -233t264.5 -87q74 0 114 27t40 76q0 88 -296 176q-43 13 -66 20q-140 43 -222 139.5t-82 217.5q0 143 104.5 235t268.5 92q71 0 142.5 -14t144.5 -43l168 57h41l4 -321h-39q-66 125 -181.5 200.5t-234.5 75.5
q-60 0 -93.5 -23.5t-33.5 -66.5q0 -86 224 -153l21 -6q214 -64 304 -152t90 -227q0 -172 -104 -265.5t-293 -93.5q-82 0 -153.5 17t-154.5 57zM342 1106l279 297q52 54 86 74t69 20q47 0 79 -31.5t32 -76.5q0 -36 -24 -63.5t-81 -55.5l-325 -164h-115z" />
    <glyph glyph-name="Tcedilla" unicode="&#x162;" horiz-adv-x="1532" 
d="M1251 0h-970v59h188v1307q-137 -9 -242 -125t-153 -311h-45v491h1474v-491h-45q-48 195 -153 311t-242 125v-1307h188v-59zM569 -729v55q140 41 230 101t90 106q-1 4 -3 6t-5 2t-51 -15t-97 -15q-96 0 -154.5 53.5t-58.5 140.5q0 90 64 148.5t166 58.5q114 0 185 -75.5
t71 -194.5q0 -130 -118.5 -231t-318.5 -140z" />
    <glyph glyph-name="tcedilla" unicode="&#x163;" horiz-adv-x="868" 
d="M156 184v731h-127v51q166 5 303.5 93t253.5 264h41v-356h225v-52h-225v-702q0 -67 14 -90t51 -23q53 0 91 61t53 171h43q-7 -173 -120 -272t-304 -99q-151 0 -225 55.5t-74 167.5zM237 -729v55q140 41 230 101t90 106q-1 4 -3 6t-5 2t-51 -15t-97 -15q-96 0 -154.5 53.5
t-58.5 140.5q0 90 64 148.5t166 58.5q114 0 185 -75.5t71 -194.5q0 -130 -118.5 -231t-318.5 -140z" />
    <glyph glyph-name="Tcaron" unicode="&#x164;" horiz-adv-x="1532" 
d="M1251 0h-970v59h188v1307q-137 -9 -242 -125t-153 -311h-45v491h1474v-491h-45q-48 195 -153 311t-242 125v-1307h188v-59zM444 1928h101l221 -172l221 172h101l-230 -371h-184z" />
    <glyph glyph-name="tcaron" unicode="&#x165;" horiz-adv-x="1350" 
d="M156 184v731h-127v51q166 5 303.5 93t253.5 264h41v-356h225v-52h-225v-702q0 -67 14 -90t51 -23q53 0 91 61t53 171h43q-7 -173 -120 -272t-304 -99q-151 0 -225 55.5t-74 167.5zM915 805v55q140 41 231 101t91 106q0 2 -3.5 5t-7.5 3q-2 0 -49 -15.5t-96 -15.5
q-96 0 -154.5 54t-58.5 141q0 90 64 148.5t165 58.5q114 0 184 -76t70 -196q0 -130 -117.5 -230t-318.5 -139z" />
    <glyph glyph-name="Uring" unicode="&#x16e;" horiz-adv-x="1712" 
d="M1473 387q0 -207 -154.5 -316.5t-448.5 -109.5q-299 0 -464.5 103.5t-165.5 289.5v1010h-174v57h948v-57h-187v-995q0 -147 60.5 -216t187.5 -69q154 0 238 79t84 224v817q0 98 -38 129t-158 33l-1 55h471v-55q-121 -3 -159.5 -33t-38.5 -129v-817zM768 1803
q0 -52 34.5 -86.5t86.5 -34.5q51 0 87 35t36 86t-36.5 88t-86.5 37q-51 0 -86 -36.5t-35 -88.5zM625 1805q0 111 77 188.5t187 77.5q111 0 188.5 -78t77.5 -188q0 -112 -77.5 -189.5t-188.5 -77.5t-187.5 77.5t-76.5 189.5z" />
    <glyph glyph-name="uring" unicode="&#x16f;" horiz-adv-x="1432" 
d="M1276 51h119v-51h-269q-68 0 -135.5 -7t-132.5 -22h-35l2 185h-18q-48 -94 -138 -144.5t-210 -50.5q-164 0 -235.5 85.5t-71.5 295.5v573h-113v52h278q69 0 136.5 7t132.5 21h35v-751q0 -55 16 -81t49 -26q59 0 90 64.5t31 185.5v528h-66v52h232q68 0 134 7t132 21h37
v-944zM596 1352q0 -52 34.5 -86.5t86.5 -34.5q51 0 87 35t36 86t-36.5 88t-86.5 37q-51 0 -86 -36.5t-35 -88.5zM453 1354q0 111 77 188.5t187 77.5q111 0 188.5 -78t77.5 -188q0 -112 -77.5 -189.5t-188.5 -77.5t-187.5 77.5t-76.5 189.5z" />
    <glyph glyph-name="Udblacute" unicode="&#x170;" horiz-adv-x="1712" 
d="M1473 387q0 -207 -154.5 -316.5t-448.5 -109.5q-299 0 -464.5 103.5t-165.5 289.5v1010h-174v57h948v-57h-187v-995q0 -147 60.5 -216t187.5 -69q154 0 238 79t84 224v817q0 98 -38 129t-158 33l-1 55h471v-55q-121 -3 -159.5 -33t-38.5 -129v-817zM930 1557l223 289
q49 63 78.5 83.5t63.5 20.5q39 0 67.5 -29.5t28.5 -68.5q0 -28 -20 -54t-60 -53l-291 -188h-90zM658 1557l147 270q39 73 68.5 98t66.5 25q39 0 65.5 -27t26.5 -65q0 -25 -14.5 -50t-44.5 -52l-225 -199h-90z" />
    <glyph glyph-name="udblacute" unicode="&#x171;" horiz-adv-x="1432" 
d="M1276 51h119v-51h-269q-68 0 -135.5 -7t-132.5 -22h-35l2 185h-18q-48 -94 -138 -144.5t-210 -50.5q-164 0 -235.5 85.5t-71.5 295.5v573h-113v52h278q69 0 136.5 7t132.5 21h35v-751q0 -55 16 -81t49 -26q59 0 90 64.5t31 185.5v528h-66v52h232q68 0 134 7t132 21h37
v-944zM758 1106l223 289q49 63 78.5 83.5t63.5 20.5q39 0 67.5 -29.5t28.5 -68.5q0 -28 -20 -54t-60 -53l-291 -188h-90zM486 1106l147 270q39 73 68.5 98t66.5 25q39 0 65.5 -27t26.5 -65q0 -25 -14.5 -50t-44.5 -52l-225 -199h-90z" />
    <glyph glyph-name="Zacute" unicode="&#x179;" horiz-adv-x="1421" 
d="M1333 0h-1298v59l670 1307h-27q-205 0 -345.5 -113t-197.5 -323h-67l34 491h1256v-55l-670 -1307h27q236 0 368.5 112t208.5 380h66zM498 1557l279 297q52 54 86 74t69 20q47 0 79 -31.5t32 -76.5q0 -36 -24 -63.5t-81 -55.5l-325 -164h-115z" />
    <glyph glyph-name="zacute" unicode="&#x17a;" horiz-adv-x="1204" 
d="M33 0v51l555 869h-58q-130 0 -224.5 -78t-158.5 -238h-47l17 363h1009v-47l-561 -869h66q169 0 276 79.5t168 250.5h53l-18 -381h-1077zM389 1106l279 297q52 54 86 74t69 20q47 0 79 -31.5t32 -76.5q0 -36 -24 -63.5t-81 -55.5l-325 -164h-115z" />
    <glyph glyph-name="Zdot" unicode="&#x17b;" horiz-adv-x="1421" 
d="M1333 0h-1298v59l670 1307h-27q-205 0 -345.5 -113t-197.5 -323h-67l34 491h1256v-55l-670 -1307h27q236 0 368.5 112t208.5 380h66zM564 1743q0 59 44.5 103.5t102.5 44.5q63 0 106.5 -43t43.5 -105q0 -64 -42.5 -106.5t-107.5 -42.5q-60 0 -103.5 44t-43.5 105z" />
    <glyph glyph-name="zdot" unicode="&#x17c;" horiz-adv-x="1204" 
d="M33 0v51l555 869h-58q-130 0 -224.5 -78t-158.5 -238h-47l17 363h1009v-47l-561 -869h66q169 0 276 79.5t168 250.5h53l-18 -381h-1077zM455 1292q0 59 44.5 103.5t102.5 44.5q63 0 106.5 -43t43.5 -105q0 -64 -42.5 -106.5t-107.5 -42.5q-60 0 -103.5 44t-43.5 105z" />
    <glyph glyph-name="Gamma" unicode="&#x393;" horiz-adv-x="1522" 
d="M209 1366h-158v55h1419l17 -506h-62q-32 219 -179 335t-392 116h-47v-1307h188v-59h-944v59h158v1307z" />
    <glyph glyph-name="Theta" unicode="&#x398;" horiz-adv-x="1667" 
d="M61 705q0 144 55.5 283t151.5 235q109 110 251 166.5t312 56.5q171 0 314 -56.5t252 -166.5q96 -96 151.5 -235t55.5 -283q0 -145 -55.5 -284t-151.5 -235q-110 -111 -253 -168t-313 -57q-169 0 -311 57t-252 168q-96 96 -151.5 235t-55.5 284zM696 754h273v389
q0 130 -32.5 188t-105.5 58q-71 0 -103 -58.5t-32 -187.5v-389zM696 266q0 -130 32.5 -189t102.5 -59q73 0 105.5 59t32.5 189v408h-273v-408z" />
    <glyph glyph-name="Phi" unicode="&#x3a6;" horiz-adv-x="2408" 
d="M915 1366h-180v55h938v-55h-180v-111h80q402 0 588 -130.5t186 -413.5q0 -282 -185.5 -411.5t-588.5 -129.5h-80v-111h180v-59h-938v59h180v111h-79q-403 0 -589 129.5t-186 411.5q0 283 186 413.5t589 130.5h53h26v111zM1493 231q126 18 182 97t56 243v283
q0 164 -55.5 242t-182.5 96v-961zM915 231v961q-125 -17 -181 -96.5t-56 -241.5v-283q0 -163 56.5 -243t180.5 -97z" />
    <glyph glyph-name="alpha" unicode="&#x3b1;" horiz-adv-x="1384" 
d="M786 797h13v198h35q61 -14 128.5 -21t139.5 -7h235v-54h-104v-858h104v-55h-235q-72 0 -139.5 -7t-128.5 -22h-35v191h-13q-37 -97 -123.5 -149t-209.5 -52q-184 0 -295 141.5t-111 376.5t110.5 375.5t295.5 140.5q123 0 209.5 -51.5t123.5 -146.5zM555 678v-397
q0 -97 22 -139t72 -42q58 0 83.5 70.5t25.5 235.5v147q0 164 -25.5 234.5t-83.5 70.5q-50 0 -72 -42t-22 -138z" />
    <glyph glyph-name="delta" unicode="&#x3b4;" horiz-adv-x="1339" 
d="M649 885v24q-324 45 -456 112t-132 181q0 117 146.5 180.5t417.5 63.5q277 0 446.5 -77t169.5 -198q0 -57 -43 -97t-106 -40q-57 0 -108.5 31t-88.5 88q-9 14 -24 46q-42 83 -85 120q-39 33 -87 50t-99 17q-119 0 -189.5 -50.5t-70.5 -135.5q0 -55 25.5 -91.5t89.5 -70.5
q32 -16 145 -46.5t186 -55.5q256 -88 381 -214.5t125 -295.5q0 -206 -171 -335.5t-451 -129.5q-282 0 -452.5 130.5t-170.5 342.5q0 200 162.5 325.5t427.5 125.5h12zM772 135v582q0 62 -24.5 91.5t-77.5 29.5t-78 -29.5t-25 -91.5v-582q0 -63 24.5 -92t78.5 -29
q53 0 77.5 29t24.5 92z" />
    <glyph glyph-name="epsilon" unicode="&#x3b5;" horiz-adv-x="1053" 
d="M1028 287q-11 -168 -127 -247t-354 -79q-254 0 -377 68.5t-123 210.5q0 138 110 200t359 62v24q-221 0 -323.5 52t-102.5 163q0 123 133 188.5t383 65.5q194 0 294.5 -56.5t100.5 -164.5q0 -70 -47 -111.5t-127 -41.5q-70 0 -112.5 38.5t-42.5 102.5q0 60 48 96.5
t48 42.5q0 17 -26.5 30t-63.5 13q-63 0 -95 -32t-32 -95v-80q0 -99 49 -149.5t145 -50.5h62v-52h-59q-112 0 -154.5 -35.5t-42.5 -127.5v-127q0 -89 36.5 -126.5t121.5 -37.5q112 0 183 69t79 187h57z" />
    <glyph glyph-name="sigma" unicode="&#x3c3;" horiz-adv-x="1413" 
d="M1126 967h287v-295h-203q42 -50 62 -105.5t20 -122.5q0 -215 -171.5 -349t-450.5 -134q-280 0 -451.5 144t-171.5 374t171.5 373t451.5 143q52 0 204 -14t252 -14zM772 147v662q0 69 -25 102t-77 33q-53 0 -78 -33t-25 -102v-662q0 -69 24.5 -101t78.5 -32q53 0 77.5 32
t24.5 101z" />
    <glyph glyph-name="tau" unicode="&#x3c4;" horiz-adv-x="991" 
d="M29 967h772v-52h-162v-415q0 -150 31.5 -204t109.5 -54q51 0 78 29.5t27 84.5v19h71v-33q0 -201 -96.5 -291t-312.5 -90q-212 0 -296.5 101.5t-84.5 369.5v483h-137v52z" />
    <glyph glyph-name="phi" unicode="&#x3c6;" horiz-adv-x="1858" 
d="M1161 14q89 0 125.5 45t36.5 158v526q0 114 -35.5 157t-125.5 46zM563 -455v54h133v362q-293 5 -471 148t-178 370q0 213 160.5 355.5t423.5 160.5v-49q-53 -16 -73.5 -53.5t-20.5 -130.5v-545q0 -114 35.5 -158.5t123.5 -44.5v688q0 155 94.5 224t305.5 69
q334 0 524 -138t190 -378q0 -227 -177.5 -370t-470.5 -148l-1 -362h121v-54h-719z" />
    <glyph glyph-name="underscoredbl" unicode="&#x2017;" horiz-adv-x="1024" 
d="M0 -287h1024v-196h-1024v196zM0 -2h1024v-197h-1024v197z" />
    <glyph glyph-name="exclamdbl" unicode="&#x203c;" horiz-adv-x="1421" 
d="M387 494h-63v20q0 84 -12.5 149t-39.5 119q-17 35 -53 100q-100 177 -100 294q0 130 61.5 200t175.5 70t175 -70t61 -200q0 -117 -100 -294q-37 -65 -54 -100q-26 -54 -38.5 -119t-12.5 -149v-20zM102 154q0 92 66 141t188 49q123 0 187.5 -49t64.5 -141q0 -93 -65 -143
t-187 -50t-188 50t-66 143zM1098 494h-63v20q0 84 -12.5 149t-39.5 119q-17 35 -53 100q-100 177 -100 294q0 130 61.5 200t175.5 70t175 -70t61 -200q0 -117 -100 -294q-37 -65 -54 -100q-26 -54 -38.5 -119t-12.5 -149v-20zM813 154q0 92 66 141t188 49q123 0 187.5 -49
t64.5 -141q0 -93 -65 -143t-187 -50t-188 50t-66 143z" />
    <glyph glyph-name="nsuperior" unicode="&#x207f;" horiz-adv-x="1073" 
d="M29 745v39h88v602h-88v35h200q48 0 98 5.5t103 15.5h27l-2 -135h16q36 65 103 100t155 35q124 0 178 -59.5t54 -204.5v-394h86v-39h-486v39h47v461q0 40 -11.5 58t-37.5 18q-43 0 -65.5 -45t-22.5 -131v-361h47v-39h-489z" />
    <glyph glyph-name="peseta" unicode="&#x20a7;" horiz-adv-x="2066" 
d="M575 735h95q78 0 122 72.5t44 202.5q0 138 -48 213t-135 75q-40 0 -59 -26.5t-19 -83.5v-6v-447zM1522 1311h184v-359h246v-108h-246v-580q0 -72 17 -101.5t57 -29.5q53 0 80.5 51.5t27.5 151.5q0 6 -1 19.5t-1 21.5h104q2 -12 2.5 -25t0.5 -37q0 -185 -75 -262.5
t-251 -77.5q-162 0 -228.5 60.5t-66.5 210.5v598h-102v90q127 44 189.5 135t62.5 234v8zM68 1393h587q288 0 431 -91t143 -274q0 -181 -145.5 -287t-395.5 -106h-113v-397q0 -83 33.5 -113.5t124.5 -30.5h23v-94h-688v94h20q80 0 106.5 28.5t26.5 115.5v915q0 11 -1 22
l-1 11q0 59 -30 85.5t-97 26.5h-24v95z" />
    <glyph glyph-name="arrowleft" unicode="&#x2190;" 
d="M836 1145l98 -236l-408 -159h1393v-261h-1395l404 -153l-97 -238l-700 394v258z" />
    <glyph glyph-name="arrowup" unicode="&#x2191;" horiz-adv-x="1024" 
d="M375 1440h258l391 -703l-236 -94l-155 401v-1394h-260v1394l-158 -409l-238 98z" />
    <glyph glyph-name="arrowright" unicode="&#x2192;" 
d="M1214 1145l705 -395v-258l-700 -394l-97 238l402 153h-1393v261h1393l-408 159z" />
    <glyph glyph-name="arrowdown" unicode="&#x2193;" horiz-adv-x="1024" 
d="M373 1434h260v-1395l155 403l236 -96l-391 -700h-258l-398 704l238 99l158 -408v1393z" />
    <glyph glyph-name="arrowboth" unicode="&#x2194;" 
d="M836 1145l98 -236l-408 -159h998l-408 159l98 236l705 -395v-258l-700 -394l-97 238l402 153h-1000l404 -153l-97 -238l-700 394v258z" />
    <glyph glyph-name="arrowupdn" unicode="&#x2195;" horiz-adv-x="1024" 
d="M375 1501h274l301 -667l-194 -95l-135 361v-1118l135 360l194 -94l-301 -668h-274l-301 668l194 94l135 -360v1118l-135 -361l-194 95z" />
    <glyph glyph-name="arrowupdnbse" unicode="&#x21a8;" horiz-adv-x="1024" 
d="M49 -256h928v-209h-928v209zM375 1544h274l301 -563l-194 -92l-135 303v-1020l135 305l194 -94l-301 -563h-276l-301 563l194 94l137 -305v1020l-137 -303l-192 92z" />
    <glyph glyph-name="orthogonal" unicode="&#x221f;" horiz-adv-x="1706" 
d="M229 1300h269v-1038h979v-262h-1248v1300z" />
    <glyph glyph-name="intersection" unicode="&#x2229;" horiz-adv-x="1706" 
d="M1489 0h-285v653q0 208 -90.5 320t-257.5 112q-172 0 -263 -110.5t-91 -321.5v-653h-285v666q0 151 23 254.5t73 177.5q80 119 223.5 186.5t317.5 67.5q154 0 284.5 -54t217.5 -153q71 -82 102 -189.5t31 -289.5v-666z" />
    <glyph glyph-name="equivalence" unicode="&#x2261;" horiz-adv-x="1706" 
d="M254 332h1198v-250h-1198v250zM254 735h1198v-250h-1198v250zM254 1139h1198v-250h-1198v250z" />
    <glyph glyph-name="house" unicode="&#x2302;" horiz-adv-x="1778" 
d="M160 98h1460v674l-731 625l-729 -625v-674zM59 0v819l830 703l829 -703v-819h-1659z" />
    <glyph glyph-name="revlogicalnot" unicode="&#x2310;" horiz-adv-x="1706" 
d="M254 868h1198v-266h-926v-235h-272v501z" />
    <glyph glyph-name="integraltp" unicode="&#x2320;" horiz-adv-x="1391" 
d="M848 -483h-305v409q0 892 128 1263.5t425 371.5q109 0 175 -57t66 -148q0 -73 -45 -117.5t-118 -44.5q-70 0 -106 37.5t-36 109.5q0 7 1 18.5t1 16.5q0 26 -8.5 40t-24.5 14q-83 0 -118 -338t-35 -1196v-379z" />
    <glyph glyph-name="integralbt" unicode="&#x2321;" horiz-adv-x="1391" 
d="M543 1565h305v-412q0 -891 -128.5 -1261.5t-424.5 -370.5q-110 0 -176 56t-66 147q0 72 45 116.5t119 44.5q70 0 105.5 -37t35.5 -110q0 -10 -1 -20.5t-1 -12.5q0 -25 8.5 -40t20.5 -15q86 0 122 336t36 1200v379z" />
    <glyph glyph-name="U2500" unicode="&#x2500;" 
d="M-39 598h2126v-117h-2126v117z" />
    <glyph glyph-name="U2502" unicode="&#x2502;" 
d="M965 1599h118v-2123h-118v2123z" />
    <glyph glyph-name="U250c" unicode="&#x250c;" 
d="M965 598h1122v-117h-1004v-1005h-118v1122z" />
    <glyph glyph-name="U2510" unicode="&#x2510;" 
d="M965 481h-1002v117h1120v-1122h-118v1005z" />
    <glyph glyph-name="U2514" unicode="&#x2514;" 
d="M965 1599h118v-1001h1004v-117h-1122v1118z" />
    <glyph glyph-name="U2518" unicode="&#x2518;" 
d="M-39 598h1004v1001h118v-1118h-1122v117z" />
    <glyph glyph-name="U251c" unicode="&#x251c;" 
d="M965 1599h118v-1001h1004v-117h-1004v-1005h-118v2123z" />
    <glyph glyph-name="U2524" unicode="&#x2524;" 
d="M965 481h-1004v117h1004v1001h118v-2123h-118v1005z" />
    <glyph glyph-name="U252c" unicode="&#x252c;" 
d="M965 481h-1004v117h2126v-117h-1004v-1005h-118v1005z" />
    <glyph glyph-name="U2534" unicode="&#x2534;" 
d="M-39 598h1004v1001h118v-1001h1004v-117h-2126v117z" />
    <glyph glyph-name="U253c" unicode="&#x253c;" 
d="M965 481h-1004v117h1004v1001h118v-1001h1004v-117h-1004v-1005h-118v1005z" />
    <glyph glyph-name="U2550" unicode="&#x2550;" 
d="M-39 422h2126v-117h-2126v117zM-39 774h2126v-115h-2126v115z" />
    <glyph glyph-name="U2551" unicode="&#x2551;" 
d="M1262 1599v-2123h-119v2123h119zM905 1599v-2123h-119v2123h119z" />
    <glyph glyph-name="U2552" unicode="&#x2552;" 
d="M965 774h1122v-115h-1004v-237h1004v-117h-1004v-829h-118v1298z" />
    <glyph glyph-name="U2553" unicode="&#x2553;" 
d="M2087 598v-117h-825v-1005h-119v1005h-238v-1005h-119v1122h1301z" />
    <glyph glyph-name="U2554" unicode="&#x2554;" 
d="M905 659v-1183h-119v1298h1301v-115h-1182zM1143 422h944v-117h-825v-829h-119v946z" />
    <glyph glyph-name="U2555" unicode="&#x2555;" 
d="M965 305h-1004v117h1004v237h-1004v115h1122v-1290h-118v821z" />
    <glyph glyph-name="U2556" unicode="&#x2556;" 
d="M1262 598v-1122h-119v1005h-238v-1005h-119v1005h-825v117h1301z" />
    <glyph glyph-name="U2557" unicode="&#x2557;" 
d="M-39 774h1301v-1298h-119v1183h-1182v115zM786 -524v829h-825v117h944v-946h-119z" />
    <glyph glyph-name="U2558" unicode="&#x2558;" 
d="M965 1599h118v-825h1004v-115h-1004v-237h1004v-117h-1122v1294z" />
    <glyph glyph-name="U2559" unicode="&#x2559;" 
d="M905 1599v-1001h238v1001h119v-1001h825v-117h-1301v1118h119z" />
    <glyph glyph-name="U255a" unicode="&#x255a;" 
d="M1262 1599v-825h825v-115h-944v940h119zM2087 305h-1301v1294h119v-1177h1182v-117z" />
    <glyph glyph-name="U255b" unicode="&#x255b;" 
d="M-39 422h1004v237h-1004v115h1004v825h118v-1294h-1122v117z" />
    <glyph glyph-name="U255c" unicode="&#x255c;" 
d="M786 598v1001h119v-1001h238v1001h119v-1118h-1301v117h825z" />
    <glyph glyph-name="U255d" unicode="&#x255d;" 
d="M1143 422v1177h119v-1294h-1301v117h1182zM905 659h-944v115h825v825h119v-940z" />
    <glyph glyph-name="U255e" unicode="&#x255e;" 
d="M965 1599h118v-825h1004v-115h-1004v-237h1004v-117h-1004v-829h-118v2123z" />
    <glyph glyph-name="U255f" unicode="&#x255f;" 
d="M1262 1599v-1001h825v-117h-825v-1005h-119v2123h119zM786 -524v2123h119v-2123h-119z" />
    <glyph glyph-name="U2560" unicode="&#x2560;" 
d="M1262 1599v-825h825v-115h-944v940h119zM1143 422h944v-117h-825v-829h-119v946zM786 -524v2123h119v-2123h-119z" />
    <glyph glyph-name="U2561" unicode="&#x2561;" 
d="M965 305h-1004v117h1004v237h-1004v115h1004v825h118v-2123h-118v829z" />
    <glyph glyph-name="U2562" unicode="&#x2562;" 
d="M1262 1599v-2123h-119v2123h119zM786 598v1001h119v-2123h-119v1005h-825v117h825z" />
    <glyph glyph-name="U2563" unicode="&#x2563;" 
d="M905 659h-944v115h825v825h119v-940zM786 -524v829h-825v117h944v-946h-119zM1262 1599v-2123h-119v2123h119z" />
    <glyph glyph-name="U2564" unicode="&#x2564;" 
d="M-39 774h2126v-115h-2126v115zM965 305h-1004v117h2126v-117h-1004v-829h-118v829z" />
    <glyph glyph-name="U2565" unicode="&#x2565;" 
d="M2087 598v-117h-825v-1005h-119v1005h-238v-1005h-119v1005h-825v117h2126z" />
    <glyph glyph-name="U2566" unicode="&#x2566;" 
d="M1143 422h944v-117h-825v-829h-119v946zM786 -524v829h-825v117h944v-946h-119zM2087 659h-2126v115h2126v-115z" />
    <glyph glyph-name="U2567" unicode="&#x2567;" 
d="M-39 774h1004v825h118v-825h1004v-115h-2126v115zM2087 305h-2126v117h2126v-117z" />
    <glyph glyph-name="U2568" unicode="&#x2568;" 
d="M786 598v1001h119v-1001h238v1001h119v-1001h825v-117h-2126v117h825z" />
    <glyph glyph-name="U2569" unicode="&#x2569;" 
d="M1262 1599v-825h825v-115h-944v940h119zM905 659h-944v115h825v825h119v-940zM-39 305v117h2126v-117h-2126z" />
    <glyph glyph-name="U256a" unicode="&#x256a;" 
d="M965 305h-1004v117h1004v237h-1004v115h1004v825h118v-825h1004v-115h-1004v-237h1004v-117h-1004v-829h-118v829z" />
    <glyph glyph-name="U256b" unicode="&#x256b;" 
d="M786 598v1004h119v-1004h238v1004h119v-1004h825v-117h-825v-1005h-119v1005h-238v-1005h-119v1005h-825v117h825z" />
    <glyph glyph-name="U256c" unicode="&#x256c;" 
d="M1143 422h944v-117h-825v-829h-119v946zM1262 1599v-825h825v-115h-944v940h119zM905 659h-944v115h825v825h119v-940zM786 -524v829h-825v117h944v-946h-119z" />
    <glyph glyph-name="upblock" unicode="&#x2580;" 
d="M2087 1599v-1058h-2126v1058h2126z" />
    <glyph glyph-name="dnblock" unicode="&#x2584;" 
d="M2087 541v-1065h-2126v1065h2126z" />
    <glyph glyph-name="block" unicode="&#x2588;" 
d="M2087 -524h-2126v2123h2126v-2123z" />
    <glyph glyph-name="lfblock" unicode="&#x258c;" 
d="M1024 1599v-2123h-1063v2123h1063z" />
    <glyph glyph-name="rtblock" unicode="&#x2590;" 
d="M2087 1599v-2123h-1063v2123h1063z" />
    <glyph glyph-name="ltshade" unicode="&#x2591;" 
d="M0 -143v342h340v-342h-340zM682 -143v342h342v-342h-342zM1366 -143v342h340v-342h-340zM1366 541v340h340v-340h-340zM1366 1223v342h340v-342h-340zM682 541v340h342v-340h-342zM0 541v340h340v-340h-340zM682 1223v342h342v-342h-342zM0 1223v342h340v-342h-340z" />
    <glyph glyph-name="shade" unicode="&#x2592;" 
d="M342 -483v340h340v-340h-340zM1024 -483v340h340v-340h-340zM1706 -483v340h342v-340h-342zM1706 199v342h342v-342h-342zM1706 881v342h342v-342h-342zM1366 -143v342h340v-342h-340zM682 -143v342h342v-342h-342zM0 -143v342h340v-342h-340zM1366 541v340h340v-340
h-340zM682 541v340h342v-340h-342zM0 541v340h340v-340h-340zM1366 1223v342h340v-342h-340zM682 1223v342h342v-342h-342zM0 1223v342h340v-342h-340zM1024 199v342h340v-342h-340zM342 199v342h340v-342h-340zM1024 881v342h340v-342h-340zM342 881v342h340v-342h-340z
" />
    <glyph glyph-name="dkshade" unicode="&#x2593;" 
d="M1024 541v-342h342v342h-342zM1024 1223v-342h342v342h-342zM342 1223v-342h340v342h-340zM342 541v-342h340v342h-340zM1366 -143h-342v-381h-342v381h-340v-381h-342v2089h2087v-342h-381v-342h381v-340h-381v-342h381v-342h-381v-381h-340v381z" />
    <glyph glyph-name="filledbox" unicode="&#x25a0;" horiz-adv-x="1536" 
d="M51 1321h1434v-1432h-1434v1432z" />
    <glyph glyph-name="filledrect" unicode="&#x25ac;" horiz-adv-x="1939" 
d="M358 815h1223v-407h-1223v407z" />
    <glyph glyph-name="triagup" unicode="&#x25b2;" horiz-adv-x="1233" 
d="M168 279l448 854l449 -854h-897z" />
    <glyph glyph-name="triagrt" unicode="&#x25ba;" horiz-adv-x="1233" 
d="M190 1133l852 -449l-852 -448v897z" />
    <glyph glyph-name="triagdn" unicode="&#x25bc;" horiz-adv-x="1233" 
d="M168 1087h897l-449 -851z" />
    <glyph glyph-name="triaglf" unicode="&#x25c4;" horiz-adv-x="1233" 
d="M1042 1133v-897l-852 448z" />
    <glyph glyph-name="circle" unicode="&#x25cb;" horiz-adv-x="1606" 
d="M805 1245q-128 0 -247 -50t-212 -142q-90 -90 -139 -209t-49 -246q0 -268 188 -456.5t457 -188.5q267 0 456 189.5t189 455.5q0 268 -188.5 457.5t-454.5 189.5zM72 602q0 145 55 277t158 235q104 105 239 161t281 56q122 0 242.5 -43t218.5 -123q125 -102 196.5 -253
t71.5 -314q0 -145 -56 -280t-159 -238t-236 -158t-280 -55q-165 0 -312 69t-253 197q-82 98 -124 217.5t-42 251.5z" />
    <glyph glyph-name="invbullet" unicode="&#x25d8;" 
d="M0 -483v2048h2048v-2048h-2048zM1026 1051q-212 0 -362 -151t-150 -361q0 -212 148.5 -360t361.5 -148q211 0 360.5 149t149.5 359q0 211 -149.5 361.5t-358.5 150.5z" />
    <glyph glyph-name="invcircle" unicode="&#x25d9;" 
d="M434 541q0 245 173.5 418.5t418.5 173.5q244 0 417 -174t173 -418q0 -243 -173 -417.5t-419 -174.5t-418 172.5t-172 419.5zM1026 1272q-147 0 -282 -56t-238 -159t-158 -236t-55 -278q0 -132 42 -251.5t124 -217.5q106 -128 253 -197.5t312 -69.5q147 0 280 55t236 158
t159 238.5t56 280.5t-57 282.5t-158 237.5t-236.5 156.5t-277.5 56.5zM0 -483v2048h2048v-2048h-2048z" />
    <glyph glyph-name="invsmileface" unicode="&#x263a;" horiz-adv-x="1796" 
d="M897 322q-114 0 -203 52t-157 158q-35 57 -59 121t-29 64q-12 0 -32 -31t-36 -31q-11 0 -17 7t-6 20q0 34 63 111t95 77q12 0 17.5 -3.5t5.5 -10.5q0 -9 -6.5 -35t-6.5 -43q0 -42 20.5 -97.5t55.5 -107.5q58 -84 129.5 -123.5t165.5 -39.5q89 0 156 33t123 104
q42 54 68 119.5t26 111.5q0 17 -7.5 43t-7.5 35q1 7 7 10.5t18 3.5q33 0 95.5 -77.5t62.5 -108.5q0 -15 -5.5 -22t-17.5 -7q-16 0 -36 31t-31 31q-6 0 -30 -64t-61 -121q-68 -106 -157 -158t-203 -52zM981 1022q0 35 12 51.5t37 16.5t36 -16t11 -52q0 -37 -11 -52.5
t-36 -15.5t-37 16.5t-12 51.5zM717 1022q0 35 12 51.5t37 16.5t37 -16.5t12 -51.5q0 -36 -11.5 -52t-37.5 -16q-25 0 -37 16.5t-12 51.5zM899 1343q-130 0 -251 -50.5t-216 -145.5q-93 -93 -142.5 -213.5t-49.5 -251.5q0 -274 191 -465.5t466 -191.5q274 0 466.5 192.5
t192.5 464.5q0 274 -192.5 467.5t-464.5 193.5zM166 686q0 144 56 277.5t159 236.5q104 104 238.5 159.5t281.5 55.5q124 0 244 -42.5t217 -121.5q125 -102 196.5 -253.5t71.5 -315.5q0 -144 -56.5 -279t-160.5 -239t-236 -158.5t-278 -54.5q-165 0 -312 69t-253 197
q-83 100 -125.5 219.5t-42.5 249.5z" />
    <glyph glyph-name="smileface" unicode="&#x263b;" horiz-adv-x="1796" 
d="M436 688q8 0 27 -52.5t43 -94.5q69 -124 166 -185t225 -61q118 0 211 52.5t162 158.5q36 55 59.5 118.5t30.5 63.5q11 0 31.5 -30.5t38.5 -30.5q12 0 22 9.5t10 20.5q0 36 -73 124.5t-111 88.5q-13 0 -17.5 -5t-5.5 -19q0 -12 7.5 -36t7.5 -36q0 -32 -21.5 -85.5
t-58.5 -108.5q-56 -82 -127 -121t-166 -39t-166 39t-127 121q-36 52 -57 106t-21 88q0 12 6.5 36t6.5 36q0 14 -4.5 19t-16.5 5q-38 0 -111 -88.5t-73 -124.5q0 -11 10 -20.5t23 -9.5q17 0 37.5 30.5t31.5 30.5zM1044 1110q-33 0 -48 -20.5t-15 -67.5q0 -46 15.5 -67
t47.5 -21q33 0 48.5 21t15.5 67q0 47 -15 67.5t-49 20.5zM752 1110q-35 0 -49.5 -20t-14.5 -68q0 -46 15.5 -67t48.5 -21q32 0 47.5 21.5t15.5 66.5q0 46 -15 67t-48 21zM166 686q0 144 56 277.5t159 236.5q104 104 238.5 159.5t281.5 55.5q124 0 244 -42.5t217 -121.5
q126 -101 195 -249t69 -316q0 -170 -67.5 -316t-196.5 -253q-98 -82 -216 -124t-247 -42q-306 0 -519.5 214t-213.5 521z" />
    <glyph glyph-name="sun" unicode="&#x263c;" horiz-adv-x="1796" 
d="M934 1421v-239q80 -8 149.5 -38t137.5 -87l170 170l51 -51l-170 -170q54 -72 82.5 -142.5t32.5 -140.5h239v-74h-239q-4 -71 -32.5 -142.5t-82.5 -141.5l170 -170l-51 -52l-170 170q-65 -56 -133.5 -85.5t-153.5 -37.5v-241h-74v241q-84 8 -151.5 37.5t-133.5 85.5
l-169 -170l-52 52l170 170q-53 68 -82 140t-33 144h-239v74h239q4 70 32.5 140.5t82.5 142.5l-170 170l52 51l169 -170q67 57 135.5 87t149.5 38v239h74zM901 1114q-177 0 -301.5 -123.5t-124.5 -300.5t124.5 -301.5t301.5 -124.5q176 0 300 125.5t124 300.5t-124.5 299.5
t-299.5 124.5z" />
    <glyph glyph-name="female" unicode="&#x2640;" horiz-adv-x="1683" 
d="M780 -90v256h-297v129h297v295q-178 23 -291.5 152.5t-113.5 308.5q0 194 137.5 331.5t331.5 137.5q191 0 328 -137.5t137 -331.5q0 -173 -117 -309t-283 -152v-295h297v-129h-297v-256h-129zM844 1399q-143 0 -245.5 -102t-102.5 -246q0 -145 100.5 -245.5t245.5 -100.5
q144 0 245 102t101 244q0 143 -101 245.5t-243 102.5z" />
    <glyph glyph-name="male" unicode="&#x2642;" horiz-adv-x="1683" 
d="M850 819l186 469q-69 -23 -154.5 -38t-179.5 -19l-18 78q109 19 228.5 67t246.5 123l47 -14q22 -115 77 -234.5t142 -240.5l-65 -43q-79 74 -133 144.5t-76 125.5l-182 -465q113 -64 175 -169t62 -234q0 -194 -133 -329.5t-332 -135.5q-197 0 -333 134.5t-136 330.5
q0 193 136 330t327 137q27 0 55 -4t60 -13zM739 715q-143 0 -244.5 -101t-101.5 -245q0 -145 101 -247t245 -102q145 0 245.5 103t100.5 246q0 142 -101.5 244t-244.5 102z" />
    <glyph glyph-name="spade" unicode="&#x2660;" horiz-adv-x="2019" 
d="M864 -96q54 59 79.5 143.5t25.5 202.5q0 70 -12.5 99.5t-41.5 29.5q-42 0 -71 -85q-15 -46 -27 -71q-36 -78 -100.5 -121t-145.5 -43q-115 0 -195.5 85.5t-80.5 211.5q0 96 46 196.5t171 260.5q32 40 102 126q260 319 396 538q137 -220 389 -529q76 -93 108 -135
q125 -160 171 -260.5t46 -196.5q0 -126 -80 -211.5t-196 -85.5q-79 0 -144 43.5t-102 120.5q-12 25 -27 71q-28 85 -71 85q-29 0 -41 -29.5t-12 -99.5q0 -116 26 -201t80 -145h-293z" />
    <glyph glyph-name="club" unicode="&#x2663;" horiz-adv-x="2019" 
d="M840 -66q55 65 80.5 145t25.5 191q0 65 -15 103.5t-40 38.5q-29 0 -80 -68q-22 -29 -35 -45q-71 -85 -135.5 -120.5t-144.5 -35.5q-133 0 -215 100.5t-82 262.5q0 151 85.5 248.5t213.5 97.5q95 0 203 -67.5t128 -67.5q19 0 31 10t12 27q0 28 -93 108q-22 19 -34 29
q-48 42 -75 103t-27 128q0 144 98 227t269 83q172 0 269 -85t97 -235q0 -60 -27.5 -120t-74.5 -101q-12 -10 -33 -29q-94 -80 -94 -108q0 -17 12 -27t31 -10q20 0 128 67.5t204 67.5q129 0 214 -99t85 -255q0 -157 -82.5 -256t-214.5 -99q-80 0 -145 35.5t-136 120.5
q-15 18 -39 50q-48 63 -76 63q-23 0 -39 -36.5t-16 -92.5q0 -125 24.5 -204t82.5 -145h-340z" />
    <glyph glyph-name="heart" unicode="&#x2665;" horiz-adv-x="2019" 
d="M1010 -78q-164 258 -407 548l-50 60q-150 186 -204 304t-54 237q0 165 94 269t238 104q103 0 182.5 -58.5t124.5 -168.5q6 -15 16 -43q26 -76 60 -76q35 0 60 76q9 27 15 43q46 109 125.5 168t182.5 59q144 0 237.5 -104t93.5 -269q0 -119 -54 -237t-204 -304
q-13 -16 -48 -58q-235 -281 -408 -550z" />
    <glyph glyph-name="diamond" unicode="&#x2666;" horiz-adv-x="2019" 
d="M1001 -92l-614 782l614 783l631 -783z" />
    <glyph glyph-name="musicalnote" unicode="&#x266a;" horiz-adv-x="1090" 
d="M553 1032v-686q0 -108 -13.5 -162.5t-43.5 -95.5q-46 -58 -124 -95.5t-155 -37.5q-81 0 -130.5 44t-49.5 116q0 103 111 195.5t229 92.5q36 0 58 -5t42 -17v1083h76v-123q0 -113 132 -258q7 -7 11 -12q138 -152 187 -260t49 -238q0 -49 -9.5 -114t-31.5 -170l-72 18
q17 72 25 131.5t8 112.5q0 163 -60 264.5t-239 216.5z" />
    <glyph glyph-name="musicalnotedbl" unicode="&#x266b;" horiz-adv-x="1470" 
d="M975 754q0 86 -67 168t-236 200v-112q0 -92 121.5 -196t181.5 -179v119zM672 1464v-69q0 -132 179 -307q33 -32 50 -50q101 -100 125.5 -157t24.5 -146v-774q0 -147 -14.5 -207.5t-49.5 -101.5q-45 -54 -122 -89.5t-150 -35.5q-81 0 -130.5 44.5t-49.5 117.5
q0 106 111.5 196t248.5 90q23 0 42 -5.5t38 -18.5v495q0 80 -66 157t-237 194v-435q0 -123 -13 -177.5t-45 -96.5q-43 -58 -122 -95.5t-156 -37.5q-81 0 -129.5 43.5t-48.5 116.5q0 104 111 196t237 92q27 0 47.5 -5.5t42.5 -18.5v1085h76z" />
    <glyph glyph-name="IJ" unicode="&#x132;" horiz-adv-x="2183" 
d="M1405 1366h-199v55h953v-55h-170v-897q0 -260 -134.5 -382t-418.5 -122q-249 0 -382.5 89t-133.5 253q0 100 54 160.5t142 60.5q84 0 136.5 -50t52.5 -132q0 -56 -25 -100.5t-70 -67.5q-14 -7 -59 -18.5t-45 -34.5q0 -19 25 -33t61 -14q122 0 199 75t77 193
q0 63 -17 112.5t-46 71.5v836zM55 0v59h181v1307h-181v55h938v-55h-180v-1307h133v-59h-891z" />
    <glyph glyph-name="ij" unicode="&#x133;" horiz-adv-x="1554" 
d="M1102 967q68 0 135.5 7t132.5 21h35v-942q0 -256 -107.5 -382t-324.5 -126q-137 0 -212 55t-75 154q0 74 46 116t126 42q71 0 114.5 -38.5t43.5 -102.5q0 -63 -50.5 -100t-50.5 -46q1 -11 11 -17.5t28 -6.5q77 0 133 63t56 152t-53 150.5t-144 78.5v870h-190v52h346z
M922 1276q0 92 65.5 141t188.5 49q122 0 188 -49t66 -141t-66 -141.5t-188 -49.5q-123 0 -188.5 49.5t-65.5 141.5zM141 1276q0 92 66 141t188 49q123 0 188.5 -49t65.5 -141t-65.5 -141.5t-188.5 -49.5q-122 0 -188 49.5t-66 141.5zM33 0v55h133v860h-119v52h289
q68 0 135.5 7t132.5 21h35v-940h123v-55h-729z" />
    <glyph glyph-name="quoten" unicode="&#x149;" horiz-adv-x="1913" 
d="M47 805v55q140 41 231 101t91 106q0 2 -3.5 5t-7.5 3q-2 0 -49 -15.5t-96 -15.5q-96 0 -154.5 54t-58.5 141q0 90 64 148.5t165 58.5q114 0 184 -76t70 -196q0 -130 -117.5 -230t-318.5 -139zM520 0v55h117v860h-117v52h266q69 0 136 7t132 21h35l-2 -194h21
q47 94 136.5 144t209.5 50q164 0 235.5 -84.5t71.5 -294.5v-561h115v-55h-647v55h63v660q0 54 -16 80t-50 26q-57 0 -87.5 -64.5t-30.5 -187.5v-514h63v-55h-651z" />
    <glyph glyph-name="minute" unicode="&#x2032;" horiz-adv-x="674" 
d="M246 852h-58l25 446q5 84 41.5 126t103.5 42q58 0 93.5 -31t35.5 -79q0 -23 -6 -45t-18 -45z" />
    <glyph glyph-name="second" unicode="&#x2033;" horiz-adv-x="674" 
d="M410 852h-62l29 446q6 87 41.5 126.5t105.5 39.5q58 0 94.5 -31t36.5 -79q0 -22 -6 -45t-18 -45zM80 852h-62l31 446q6 87 41.5 126.5t106.5 39.5q57 0 94 -31t37 -79q0 -21 -6.5 -44.5t-18.5 -45.5z" />
    <glyph glyph-name="cslasho" unicode="&#x2105;" horiz-adv-x="1944" 
d="M1128 268q0 129 108.5 209t285.5 80t285 -80t108 -209t-108.5 -210t-284.5 -81t-285 82t-109 209zM1587 82v373q0 38 -16 56.5t-49 18.5t-48.5 -18t-15.5 -57v-373q0 -40 15 -57t49 -17t49.5 17.5t15.5 56.5zM416 -39l923 1481h101l-924 -1481h-100zM694 758l23 -15
q-41 -72 -124.5 -110.5t-199.5 -38.5q-165 0 -264.5 80.5t-99.5 210.5q0 131 99 210t269 79q158 0 242 -47.5t84 -135.5q0 -59 -38.5 -93t-106.5 -34q-61 0 -97.5 31.5t-36.5 83.5q0 32 13.5 53.5t42.5 36.5q6 4 19 10q32 16 32 33q0 14 -18 23.5t-48 9.5q-70 0 -101.5 -57
t-31.5 -185q0 -149 34.5 -204.5t117.5 -55.5q49 0 96.5 28.5t93.5 86.5z" />
    <glyph glyph-name="litre" unicode="&#x2113;" horiz-adv-x="1010" 
d="M567 741q158 125 250 255t92 221q0 36 -21.5 58.5t-56.5 22.5q-88 0 -157.5 -145.5t-106.5 -411.5zM145 424q-27 -21 -48 -38.5t-40 -35.5l-57 64q27 31 63 63.5t87 71.5q44 390 214.5 624t405.5 234q106 0 173 -53.5t67 -136.5q0 -126 -119.5 -283.5t-335.5 -315.5
l-12 -136q-5 -53 -6.5 -80t-1.5 -50q0 -134 23.5 -187.5t80.5 -53.5q49 0 91.5 55t70.5 158l92 -29q-50 -167 -132.5 -245.5t-207.5 -78.5q-191 0 -299.5 120t-108.5 333z" />
    <glyph glyph-name="U25a1" unicode="&#x25a1;" horiz-adv-x="1933" 
d="M51 -393v1831h1831v-1831h-1831zM162 -291h1610v1626h-1610v-1626z" />
    <glyph glyph-name="U25aa" unicode="&#x25aa;" horiz-adv-x="1380" 
d="M170 164v1038h1040v-1038h-1040z" />
    <glyph glyph-name="U25ab" unicode="&#x25ab;" horiz-adv-x="1380" 
d="M262 252h856v864h-856v-864zM170 164v1040h1040v-1040h-1040z" />
    <glyph glyph-name="U25cf" unicode="&#x25cf;" horiz-adv-x="1606" 
d="M72 602q0 145 55 277t158 235q104 105 239 161t281 56q122 0 242.5 -43t218.5 -123q125 -102 196.5 -253t71.5 -314q0 -145 -56 -280t-159 -238t-236 -158t-280 -55q-165 0 -312 69t-253 197q-82 98 -124 217.5t-42 251.5z" />
    <glyph glyph-name="U25e6" unicode="&#x25e6;" horiz-adv-x="1706" 
d="M1053 610q0 82 -59 140.5t-140 58.5q-82 0 -140.5 -58t-58.5 -141t58 -140.5t141 -57.5t141 58.5t58 139.5zM854 897q119 0 203 -83.5t84 -203.5q0 -118 -84.5 -203t-204.5 -85t-203.5 84t-83.5 204t84.5 203.5t204.5 83.5z" />
    <glyph glyph-name="Amacron" unicode="&#x100;" horiz-adv-x="1561" 
d="M322 537h368l-184 507zM342 0h-387v59q66 8 109.5 47t70.5 115l428 1200h426l496 -1362h108v-59h-876v59h145l-145 406h-422l-78 -234q-8 -22 -12 -43.5t-4 -37.5q0 -47 30.5 -69t94.5 -22h16v-59zM473 1657v168h614v-168h-614z" />
    <glyph glyph-name="amacron" unicode="&#x101;" horiz-adv-x="1337" 
d="M733 508h-28q-93 0 -129.5 -50.5t-36.5 -189.5q0 -88 21.5 -130t68.5 -42q54 0 79 47.5t25 151.5v213zM1305 166l32 -23q-55 -83 -150.5 -132.5t-197.5 -49.5q-82 0 -141 38.5t-94 115.5q-74 -77 -171 -115.5t-218 -38.5q-145 0 -231.5 74t-86.5 196q0 149 151.5 236.5
t411.5 87.5h121v295q0 48 -28.5 70t-90.5 22q-31 0 -54 -10t-23 -21q0 -6 15 -20q52 -49 52 -123q0 -76 -62.5 -115t-183.5 -39q-112 0 -169.5 41.5t-57.5 122.5q0 116 115 166.5t387 50.5q201 0 318 -23.5t171 -74.5q37 -34 52.5 -79.5t15.5 -141.5v-496q0 -34 9.5 -46.5
t33.5 -12.5t43.5 12t30.5 33zM363 1206v168h614v-168h-614z" />
    <glyph glyph-name="Ccircumflex" unicode="&#x108;" horiz-adv-x="1546" 
d="M1432 938h-62q-66 199 -178 306.5t-252 107.5q-139 0 -189.5 -114.5t-50.5 -578.5q0 -360 60.5 -476.5t214.5 -116.5q167 0 278 107.5t142 299.5h67q-24 -249 -186 -380.5t-445 -131.5q-333 0 -552.5 213t-219.5 531q0 140 56 279.5t151 238.5q105 106 249.5 164.5
t303.5 58.5q105 0 191.5 -24.5t189.5 -84.5l174 109h58v-508zM509 1557l230 371h184l230 -371h-101l-221 172l-221 -172h-101z" />
    <glyph glyph-name="ccircumflex" unicode="&#x109;" horiz-adv-x="1204" 
d="M1102 254l37 -27q-66 -129 -198 -197.5t-318 -68.5q-262 0 -419 143t-157 375q0 235 158 375.5t426 140.5q249 0 382.5 -85t133.5 -242q0 -105 -61.5 -165.5t-167.5 -60.5q-97 0 -154 55.5t-57 149.5q0 59 20 96.5t66 65.5q11 7 31 18q50 27 50 58q0 25 -28.5 41
t-75.5 16q-111 0 -161 -101t-50 -329q0 -268 54 -366.5t186 -98.5q79 0 154.5 51.5t148.5 155.5zM307 1106l230 371h184l230 -371h-101l-221 172l-221 -172h-101z" />
    <glyph glyph-name="Cdot" unicode="&#x10a;" horiz-adv-x="1546" 
d="M1432 938h-62q-66 199 -178 306.5t-252 107.5q-139 0 -189.5 -114.5t-50.5 -578.5q0 -360 60.5 -476.5t214.5 -116.5q167 0 278 107.5t142 299.5h67q-24 -249 -186 -380.5t-445 -131.5q-333 0 -552.5 213t-219.5 531q0 140 56 279.5t151 238.5q105 106 249.5 164.5
t303.5 58.5q105 0 191.5 -24.5t189.5 -84.5l174 109h58v-508zM684 1743q0 59 44.5 103.5t102.5 44.5q63 0 106.5 -43t43.5 -105q0 -64 -42.5 -106.5t-107.5 -42.5q-60 0 -103.5 44t-43.5 105z" />
    <glyph glyph-name="cdot" unicode="&#x10b;" horiz-adv-x="1204" 
d="M1102 254l37 -27q-66 -129 -198 -197.5t-318 -68.5q-262 0 -419 143t-157 375q0 235 158 375.5t426 140.5q249 0 382.5 -85t133.5 -242q0 -105 -61.5 -165.5t-167.5 -60.5q-97 0 -154 55.5t-57 149.5q0 59 20 96.5t66 65.5q11 7 31 18q50 27 50 58q0 25 -28.5 41
t-75.5 16q-111 0 -161 -101t-50 -329q0 -268 54 -366.5t186 -98.5q79 0 154.5 51.5t148.5 155.5zM482 1292q0 59 44.5 103.5t102.5 44.5q63 0 106.5 -43t43.5 -105q0 -64 -42.5 -106.5t-107.5 -42.5q-60 0 -103.5 44t-43.5 105z" />
    <glyph glyph-name="Emacron" unicode="&#x112;" horiz-adv-x="1612" 
d="M1450 1421v-491h-61q-56 231 -170.5 333.5t-317.5 102.5h-82v-612h6q124 0 190 69t81 213h59v-622h-59q-16 144 -82 213t-189 69h-6v-637h111q188 0 307 119t180 367h62v-545h-1407v59h155v1307h-155v55h1378zM500 1657v168h614v-168h-614z" />
    <glyph glyph-name="emacron" unicode="&#x113;" horiz-adv-x="1290" 
d="M1239 433l-684 -1v-121q0 -135 59 -204.5t172 -69.5q116 0 209.5 53t173.5 164l39 -27q-75 -133 -212.5 -199.5t-336.5 -66.5q-279 0 -445.5 143t-166.5 375q0 229 165.5 372.5t434.5 143.5q283 0 436.5 -146t155.5 -416zM760 479v334q0 69 -25 101t-78 32q-52 0 -77 -32
t-25 -101v-334h205zM338 1206v168h614v-168h-614z" />
    <glyph glyph-name="Ebreve" unicode="&#x114;" horiz-adv-x="1612" 
d="M1450 1421v-491h-61q-56 231 -170.5 333.5t-317.5 102.5h-82v-612h6q124 0 190 69t81 213h59v-622h-59q-16 144 -82 213t-189 69h-6v-637h111q188 0 307 119t180 367h62v-545h-1407v59h155v1307h-155v55h1378zM479 1895h95q20 -67 73 -95t160 -28q106 0 160 28.5t71 94.5
h95q-20 -147 -105 -227t-221 -80q-135 0 -220 79t-108 228z" />
    <glyph glyph-name="ebreve" unicode="&#x115;" horiz-adv-x="1290" 
d="M1239 433l-684 -1v-121q0 -135 59 -204.5t172 -69.5q116 0 209.5 53t173.5 164l39 -27q-75 -133 -212.5 -199.5t-336.5 -66.5q-279 0 -445.5 143t-166.5 375q0 229 165.5 372.5t434.5 143.5q283 0 436.5 -146t155.5 -416zM760 479v334q0 69 -25 101t-78 32q-52 0 -77 -32
t-25 -101v-334h205zM317 1444h95q20 -67 73 -95t160 -28q106 0 160 28.5t71 94.5h95q-20 -147 -105 -227t-221 -80q-135 0 -220 79t-108 228z" />
    <glyph glyph-name="Edot" unicode="&#x116;" horiz-adv-x="1612" 
d="M1450 1421v-491h-61q-56 231 -170.5 333.5t-317.5 102.5h-82v-612h6q124 0 190 69t81 213h59v-622h-59q-16 144 -82 213t-189 69h-6v-637h111q188 0 307 119t180 367h62v-545h-1407v59h155v1307h-155v55h1378zM660 1743q0 59 44.5 103.5t102.5 44.5q63 0 106.5 -43
t43.5 -105q0 -64 -42.5 -106.5t-107.5 -42.5q-60 0 -103.5 44t-43.5 105z" />
    <glyph glyph-name="edot" unicode="&#x117;" horiz-adv-x="1290" 
d="M1239 433l-684 -1v-121q0 -135 59 -204.5t172 -69.5q116 0 209.5 53t173.5 164l39 -27q-75 -133 -212.5 -199.5t-336.5 -66.5q-279 0 -445.5 143t-166.5 375q0 229 165.5 372.5t434.5 143.5q283 0 436.5 -146t155.5 -416zM760 479v334q0 69 -25 101t-78 32q-52 0 -77 -32
t-25 -101v-334h205zM498 1292q0 59 44.5 103.5t102.5 44.5q63 0 106.5 -43t43.5 -105q0 -64 -42.5 -106.5t-107.5 -42.5q-60 0 -103.5 44t-43.5 105z" />
    <glyph glyph-name="Gcircumflex" unicode="&#x11c;" horiz-adv-x="1669" 
d="M819 668v57h811v-57h-108l-1 -541q-58 -5 -113.5 -16t-109.5 -29q-23 -8 -76 -29q-226 -92 -405 -92q-148 0 -270 42t-223 128q-123 105 -194 258t-71 316q0 324 222 533.5t575 209.5q110 0 205 -26.5t192 -84.5l174 109h58v-508h-62q-68 202 -180 308t-258 106
q-156 0 -222.5 -91t-66.5 -313v-727q0 -106 32.5 -153.5t102.5 -47.5q63 0 93 50t30 151v447h-135zM514 1557l230 371h184l230 -371h-101l-221 172l-221 -172h-101z" />
    <glyph glyph-name="gcircumflex" unicode="&#x11d;" horiz-adv-x="1327" 
d="M367 -137q-22 -23 -35 -55.5t-13 -63.5q0 -75 76.5 -108t249.5 -33q209 0 318.5 39t109.5 114q0 46 -29.5 67t-93.5 21q-25 0 -113 -4t-151 -4q-106 0 -180.5 6.5t-138.5 20.5zM549 596q0 -92 26 -139t76 -47q56 0 80.5 41.5t24.5 144.5v211q0 77 -24.5 112t-78.5 35
q-48 0 -76 -39.5t-28 -107.5v-211zM289 -137v22q-91 43 -135.5 106.5t-44.5 149.5q0 102 69 175.5t176 80.5v15q-123 46 -174 106.5t-51 157.5q0 154 129 237.5t369 83.5q44 0 112.5 -3.5t85.5 -4.5q53 104 129 161.5t160 57.5q79 0 126.5 -40.5t47.5 -108.5q0 -51 -32 -82
t-87 -31q-51 0 -88 30t-37 71q0 7 2.5 19.5t2.5 16.5q0 18 -5 24.5t-16 6.5q-36 0 -73.5 -34.5t-73.5 -100.5q144 -35 219.5 -113.5t75.5 -193.5q0 -155 -128.5 -233.5t-383.5 -78.5q-46 0 -122 6.5t-108 6.5q-52 0 -75 -14t-23 -46q0 -39 37 -56t123 -17q481 0 610 -65.5
t129 -237.5q0 -198 -150.5 -295t-457.5 -97q-295 0 -412 40t-117 136q0 57 45.5 90.5t145.5 51.5zM342 1106l230 371h184l230 -371h-101l-221 172l-221 -172h-101z" />
    <glyph glyph-name="Gdot" unicode="&#x120;" horiz-adv-x="1669" 
d="M819 668v57h811v-57h-108l-1 -541q-58 -5 -113.5 -16t-109.5 -29q-23 -8 -76 -29q-226 -92 -405 -92q-148 0 -270 42t-223 128q-123 105 -194 258t-71 316q0 324 222 533.5t575 209.5q110 0 205 -26.5t192 -84.5l174 109h58v-508h-62q-68 202 -180 308t-258 106
q-156 0 -222.5 -91t-66.5 -313v-727q0 -106 32.5 -153.5t102.5 -47.5q63 0 93 50t30 151v447h-135zM689 1743q0 59 44.5 103.5t102.5 44.5q63 0 106.5 -43t43.5 -105q0 -64 -42.5 -106.5t-107.5 -42.5q-60 0 -103.5 44t-43.5 105z" />
    <glyph glyph-name="gdot" unicode="&#x121;" horiz-adv-x="1327" 
d="M367 -137q-22 -23 -35 -55.5t-13 -63.5q0 -75 76.5 -108t249.5 -33q209 0 318.5 39t109.5 114q0 46 -29.5 67t-93.5 21q-25 0 -113 -4t-151 -4q-106 0 -180.5 6.5t-138.5 20.5zM549 596q0 -92 26 -139t76 -47q56 0 80.5 41.5t24.5 144.5v211q0 77 -24.5 112t-78.5 35
q-48 0 -76 -39.5t-28 -107.5v-211zM289 -137v22q-91 43 -135.5 106.5t-44.5 149.5q0 102 69 175.5t176 80.5v15q-123 46 -174 106.5t-51 157.5q0 154 129 237.5t369 83.5q44 0 112.5 -3.5t85.5 -4.5q53 104 129 161.5t160 57.5q79 0 126.5 -40.5t47.5 -108.5q0 -51 -32 -82
t-87 -31q-51 0 -88 30t-37 71q0 7 2.5 19.5t2.5 16.5q0 18 -5 24.5t-16 6.5q-36 0 -73.5 -34.5t-73.5 -100.5q144 -35 219.5 -113.5t75.5 -193.5q0 -155 -128.5 -233.5t-383.5 -78.5q-46 0 -122 6.5t-108 6.5q-52 0 -75 -14t-23 -46q0 -39 37 -56t123 -17q481 0 610 -65.5
t129 -237.5q0 -198 -150.5 -295t-457.5 -97q-295 0 -412 40t-117 136q0 57 45.5 90.5t145.5 51.5zM517 1292q0 59 44.5 103.5t102.5 44.5q63 0 106.5 -43t43.5 -105q0 -64 -42.5 -106.5t-107.5 -42.5q-60 0 -103.5 44t-43.5 105z" />
    <glyph glyph-name="Gcedilla" unicode="&#x122;" horiz-adv-x="1669" 
d="M819 668v57h811v-57h-108l-1 -541q-58 -5 -113.5 -16t-109.5 -29q-23 -8 -76 -29q-226 -92 -405 -92q-148 0 -270 42t-223 128q-123 105 -194 258t-71 316q0 324 222 533.5t575 209.5q110 0 205 -26.5t192 -84.5l174 109h58v-508h-62q-68 202 -180 308t-258 106
q-156 0 -222.5 -91t-66.5 -313v-727q0 -106 32.5 -153.5t102.5 -47.5q63 0 93 50t30 151v447h-135zM574 -379l47 103q67 -39 128 -58.5t116 -19.5q35 0 57.5 20.5t22.5 54.5q0 41 -23 61.5t-68 20.5q-15 0 -56 -7q-4 0 -7 -1v203h88v-115q24 4 44 6t34 2q78 0 127 -48
t49 -124q0 -84 -60 -136t-157 -52q-69 0 -143 18.5t-199 71.5z" />
    <glyph glyph-name="gcedilla" unicode="&#x123;" horiz-adv-x="1327" 
d="M367 -137q-22 -23 -35 -55.5t-13 -63.5q0 -75 76.5 -108t249.5 -33q209 0 318.5 39t109.5 114q0 46 -29.5 67t-93.5 21q-25 0 -113 -4t-151 -4q-106 0 -180.5 6.5t-138.5 20.5zM549 596q0 -92 26 -139t76 -47q56 0 80.5 41.5t24.5 144.5v211q0 77 -24.5 112t-78.5 35
q-48 0 -76 -39.5t-28 -107.5v-211zM289 -137v22q-91 43 -135.5 106.5t-44.5 149.5q0 102 69 175.5t176 80.5v15q-123 46 -174 106.5t-51 157.5q0 154 129 237.5t369 83.5q44 0 112.5 -3.5t85.5 -4.5q53 104 129 161.5t160 57.5q79 0 126.5 -40.5t47.5 -108.5q0 -51 -32 -82
t-87 -31q-51 0 -88 30t-37 71q0 7 2.5 19.5t2.5 16.5q0 18 -5 24.5t-16 6.5q-36 0 -73.5 -34.5t-73.5 -100.5q144 -35 219.5 -113.5t75.5 -193.5q0 -155 -128.5 -233.5t-383.5 -78.5q-46 0 -122 6.5t-108 6.5q-52 0 -75 -14t-23 -46q0 -39 37 -56t123 -17q481 0 610 -65.5
t129 -237.5q0 -198 -150.5 -295t-457.5 -97q-295 0 -412 40t-117 136q0 57 45.5 90.5t145.5 51.5zM451 1106l279 297q52 54 86 74t69 20q47 0 79 -31.5t32 -76.5q0 -36 -24 -63.5t-81 -55.5l-325 -164h-115z" />
    <glyph glyph-name="Hcircumflex" unicode="&#x124;" horiz-adv-x="1849" 
d="M41 0v59h168v1307h-168v55h850v-55h-98v-604h264v604h-99v55h850v-55h-168v-1307h168v-59h-850v59h99v641h-264v-641h98v-59h-850zM604 1557l230 371h184l230 -371h-101l-221 172l-221 -172h-101z" />
    <glyph glyph-name="hcircumflex" unicode="&#x125;" horiz-adv-x="1432" 
d="M39 0v55h117v1315h-117v51h283q68 0 135.5 7.5t132.5 21.5h37v-614h20q66 83 144.5 121t181.5 38q164 0 235.5 -84.5t71.5 -294.5v-561h115v-55h-647v55h63v660q0 54 -16 80t-50 26q-57 0 -87.5 -64.5t-30.5 -187.5v-514h63v-55h-651zM59 1561l230 371h184l230 -371h-101
l-221 172l-221 -172h-101z" />
    <glyph glyph-name="Hbar" unicode="&#x126;" horiz-adv-x="1849" 
d="M793 1001v-239h264v239h-264zM41 0v59h168v942h-209v76h209v289h-168v55h850v-55h-98v-289h264v289h-99v55h850v-55h-168v-289h209v-76h-209v-942h168v-59h-850v59h99v641h-264v-641h98v-59h-850z" />
    <glyph glyph-name="hbar" unicode="&#x127;" horiz-adv-x="1432" 
d="M39 0v55h117v1094h-142v68h142v153h-117v51h283q71 0 138.5 7.5t129.5 21.5h37v-233h350v-68h-350v-313h20q66 83 144.5 121t181.5 38q108 0 185 -46.5t104 -127.5q9 -31 13.5 -72t4.5 -133v-561h115v-55h-647v55h63v660q0 54 -16 80t-50 26q-58 0 -88 -63.5t-30 -188.5
v-514h63v-55h-651z" />
    <glyph glyph-name="Itilde" unicode="&#x128;" horiz-adv-x="1049" 
d="M55 0v59h181v1307h-181v55h938v-55h-180v-1307h180v-59h-938zM280 1588h-84q27 135 84 200.5t148 65.5q18 0 36.5 -3t41.5 -9l120 -31q20 -5 29 -6.5t16 -1.5q37 0 58.5 21t38.5 73h82q-29 -139 -85 -202.5t-149 -63.5q-16 0 -32.5 2t-30.5 6l-117 33q-24 6 -36.5 8
t-20.5 2q-40 0 -64.5 -23.5t-34.5 -70.5z" />
    <glyph glyph-name="itilde" unicode="&#x129;" horiz-adv-x="801" 
d="M33 0v55h133v860h-119v52h289q68 0 135.5 7t132.5 21h35v-940h123v-55h-729zM157 1137h-84q27 135 84 200.5t148 65.5q18 0 36.5 -3t41.5 -9l120 -31q20 -5 29 -6.5t16 -1.5q37 0 58.5 21t38.5 73h82q-29 -139 -85 -202.5t-149 -63.5q-16 0 -32.5 2t-30.5 6l-117 33
q-24 6 -36.5 8t-20.5 2q-40 0 -64.5 -23.5t-34.5 -70.5z" />
    <glyph glyph-name="Imacron" unicode="&#x12a;" horiz-adv-x="1049" 
d="M55 0v59h181v1307h-181v55h938v-55h-180v-1307h180v-59h-938zM217 1657v168h614v-168h-614z" />
    <glyph glyph-name="imacron" unicode="&#x12b;" horiz-adv-x="801" 
d="M33 0v55h133v860h-119v52h289q68 0 135.5 7t132.5 21h35v-940h123v-55h-729zM94 1206v168h614v-168h-614z" />
    <glyph glyph-name="Ibreve" unicode="&#x12c;" horiz-adv-x="1049" 
d="M55 0v59h181v1307h-181v55h938v-55h-180v-1307h180v-59h-938zM196 1895h95q20 -67 73 -95t160 -28q106 0 160 28.5t71 94.5h95q-20 -147 -105 -227t-221 -80q-135 0 -220 79t-108 228z" />
    <glyph glyph-name="ibreve" unicode="&#x12d;" horiz-adv-x="801" 
d="M33 0v55h133v860h-119v52h289q68 0 135.5 7t132.5 21h35v-940h123v-55h-729zM73 1444h95q20 -67 73 -95t160 -28q106 0 160 28.5t71 94.5h95q-20 -147 -105 -227t-221 -80q-135 0 -220 79t-108 228z" />
    <glyph glyph-name="Iogonek" unicode="&#x12e;" horiz-adv-x="1049" 
d="M55 0v59h181v1307h-181v55h938v-55h-180v-1307h180v-59h-938zM663 31q-88 -73 -127 -136t-39 -131q0 -48 23 -75t63 -27q35 0 59 15t52 55l35 -21q-42 -89 -101.5 -133.5t-136.5 -44.5q-79 0 -125.5 41t-46.5 111q0 88 70.5 173t216.5 173h57z" />
    <glyph glyph-name="iogonek" unicode="&#x12f;" horiz-adv-x="801" 
d="M141 1276q0 92 66 141t188 49q123 0 188.5 -49t65.5 -141t-65.5 -141.5t-188.5 -49.5q-122 0 -188 49.5t-66 141.5zM33 0v55h133v860h-119v52h289q68 0 135.5 7t132.5 21h35v-940h123v-55h-729zM540 31q-88 -73 -127 -136t-39 -131q0 -48 23 -75t63 -27q35 0 59 15t52 55
l35 -21q-42 -89 -101.5 -133.5t-136.5 -44.5q-79 0 -125.5 41t-46.5 111q0 88 70.5 173t216.5 173h57z" />
    <glyph glyph-name="Jcircumflex" unicode="&#x134;" horiz-adv-x="1270" 
d="M494 1366h-199v55h952v-55h-172v-897q0 -260 -134 -382t-419 -122q-248 0 -382 89t-134 253q0 100 55 160.5t144 60.5q83 0 134.5 -50t51.5 -132q0 -56 -24.5 -100t-67.5 -66q-15 -8 -60.5 -20t-45.5 -35q0 -19 25 -33t61 -14q122 0 200 75.5t78 192.5q0 63 -17 112.5
t-46 71.5v836zM428 1557l230 371h184l230 -371h-101l-221 172l-221 -172h-101z" />
    <glyph glyph-name="jcircumflex" unicode="&#x135;" horiz-adv-x="786" 
d="M334 967q68 0 135.5 7t132.5 21h35v-940q0 -256 -107 -383t-325 -127q-137 0 -212 55t-75 154q0 74 46 116t126 42q71 0 114.5 -38.5t43.5 -102.5q0 -63 -50.5 -100t-50.5 -46q1 -11 11 -17.5t28 -6.5q77 0 133 63t56 152t-53 150.5t-144 78.5v870h-190v52h346zM71 1106
l230 371h184l230 -371h-101l-221 172l-221 -172h-101z" />
    <glyph glyph-name="Kcedilla" unicode="&#x136;" horiz-adv-x="1858" 
d="M51 0v59h166v1307h-166v55h930v-55h-176v-661l498 497q22 23 33.5 43t11.5 39q0 46 -35.5 64t-126.5 18h-72v55h649v-55q-114 0 -199.5 -37.5t-183.5 -136.5l-137 -139l574 -994h143v-59h-934v59h141l-362 629v-629h147v-59h-901zM733 -729v55q140 41 230 101t90 106
q-1 4 -3 6t-5 2t-51 -15t-97 -15q-96 0 -154.5 53.5t-58.5 140.5q0 90 64 148.5t166 58.5q114 0 185 -75.5t71 -194.5q0 -130 -118.5 -231t-318.5 -140z" />
    <glyph glyph-name="kcedilla" unicode="&#x137;" horiz-adv-x="1507" 
d="M25 0v55h131v1315h-117v51h283q68 0 135.5 7.5t132.5 21.5h37v-983l301 281q31 27 46 52t15 48q0 36 -35.5 51.5t-119.5 15.5h-54v52h637v-52h-22q-93 0 -163 -24.5t-134 -79.5l-109 -90l455 -666h80v-55h-723v55h119l-248 391l-45 -45v-346h108v-55h-710zM557 -729v55
q140 41 230 101t90 106q-1 4 -3 6t-5 2t-51 -15t-97 -15q-96 0 -154.5 53.5t-58.5 140.5q0 90 64 148.5t166 58.5q114 0 185 -75.5t71 -194.5q0 -130 -118.5 -231t-318.5 -140z" />
    <glyph glyph-name="kra" unicode="&#x138;" horiz-adv-x="1507" 
d="M633 465l397 340q19 16 28 30t9 27q0 29 -30 41t-101 12h-72v52h535v-52h-10q-86 0 -154 -26.5t-141 -89.5l-113 -97l461 -647h114v-55h-741v55h107l-289 400v-400h108v-55h-706v55h125v860h-125v52h735v-52h-137v-450z" />
    <glyph glyph-name="Lcedilla" unicode="&#x13b;" horiz-adv-x="1518" 
d="M41 0v59h166v1307h-166v55h948v-55h-188v-1307h110q188 0 307.5 119t180.5 367h61v-545h-1419zM563 -729v55q140 41 230 101t90 106q-1 4 -3 6t-5 2t-51 -15t-97 -15q-96 0 -154.5 53.5t-58.5 140.5q0 90 64 148.5t166 58.5q114 0 185 -75.5t71 -194.5
q0 -130 -118.5 -231t-318.5 -140z" />
    <glyph glyph-name="lcedilla" unicode="&#x13c;" horiz-adv-x="797" 
d="M29 0v55h133v1315h-121v51h291q68 0 135.5 7.5t132.5 21.5h35v-1395h121v-55h-727zM202 -729v55q140 41 230 101t90 106q-1 4 -3 6t-5 2t-51 -15t-97 -15q-96 0 -154.5 53.5t-58.5 140.5q0 90 64 148.5t166 58.5q114 0 185 -75.5t71 -194.5q0 -130 -118.5 -231
t-318.5 -140z" />
    <glyph glyph-name="Ncedilla" unicode="&#x145;" horiz-adv-x="1622" 
d="M285 215q0 -97 38 -127.5t158 -30.5v-57h-471v57h15q110 0 147 30.5t37 127.5v1151h-199v55h772l559 -772v557q0 98 -37.5 129t-148.5 31h-12v55h471v-55h-12q-110 0 -147.5 -31t-37.5 -129v-1206h-313l-819 1135v-920zM614 -729v55q140 41 230 101t90 106q-1 4 -3 6
t-5 2t-51 -15t-97 -15q-96 0 -154.5 53.5t-58.5 140.5q0 90 64 148.5t166 58.5q114 0 185 -75.5t71 -194.5q0 -130 -118.5 -231t-318.5 -140z" />
    <glyph glyph-name="ncedilla" unicode="&#x146;" horiz-adv-x="1432" 
d="M39 0v55h117v860h-117v52h266q69 0 136 7t132 21h35l-2 -194h21q47 94 136.5 144t209.5 50q164 0 235.5 -84.5t71.5 -294.5v-561h115v-55h-647v55h63v660q0 54 -16 80t-50 26q-57 0 -87.5 -64.5t-30.5 -187.5v-514h63v-55h-651zM520 -729v55q140 41 230 101t90 106
q-1 4 -3 6t-5 2t-51 -15t-97 -15q-96 0 -154.5 53.5t-58.5 140.5q0 90 64 148.5t166 58.5q114 0 185 -75.5t71 -194.5q0 -130 -118.5 -231t-318.5 -140z" />
    <glyph glyph-name="Eng" unicode="&#x14a;" horiz-adv-x="1622" 
d="M285 215q0 -95 36.5 -126.5t145.5 -31.5h14v-57h-471v57h15q110 0 147 31.5t37 126.5v1151h-199v55h772l559 -772v557q0 96 -37 128t-147 32h-14v55h471v-55h-15q-108 0 -145 -32t-37 -128v-1202q0 -224 -113 -342.5t-325 -118.5q-130 0 -205.5 57t-75.5 154
q0 73 45.5 115.5t122.5 42.5q75 0 118.5 -38t43.5 -103q0 -32 -13.5 -58t-39.5 -45q-7 -5 -21 -13q-26 -15 -26 -32q0 -9 11 -15.5t28 -6.5q82 0 137 64t55 161q0 46 -14 91t-41 83l-819 1135v-920z" />
    <glyph glyph-name="eng" unicode="&#x14b;" horiz-adv-x="1421" 
d="M39 0v55h117v860h-117v52h266q72 0 139.5 7t128.5 21h35l-2 -194h21q48 94 136.5 144t209.5 50q109 0 185.5 -47t103.5 -131q9 -29 13.5 -69t4.5 -132v-557q0 -259 -106.5 -386.5t-323.5 -127.5q-138 0 -214.5 55.5t-76.5 153.5q0 73 47 115.5t127 42.5q71 0 113.5 -38.5
t42.5 -102.5q0 -33 -13 -59t-38 -44q-7 -5 -22 -13q-25 -14 -25 -32q0 -9 11 -15.5t27 -6.5q78 0 133.5 62.5t55.5 152.5q0 92 -56.5 154.5t-150.5 74.5v670q0 54 -16 80t-50 26q-58 0 -88 -63.5t-30 -188.5v-514h63v-55h-651z" />
    <glyph glyph-name="Omacron" unicode="&#x14c;" horiz-adv-x="1667" 
d="M696 266q0 -130 32.5 -189t102.5 -59q72 0 105 59t33 189v877q0 129 -32.5 187.5t-105.5 58.5q-71 0 -103 -58.5t-32 -187.5v-877zM61 705q0 143 55.5 281.5t151.5 236.5q107 109 250.5 166t312.5 57q335 0 554 -212t219 -529q0 -319 -219 -531.5t-554 -212.5
q-147 0 -276.5 44t-230.5 128q-122 100 -192.5 253.5t-70.5 318.5zM527 1657v168h614v-168h-614z" />
    <glyph glyph-name="omacron" unicode="&#x14d;" horiz-adv-x="1339" 
d="M47 479q0 229 171.5 372.5t451.5 143.5q281 0 451.5 -142.5t170.5 -373.5t-171 -374.5t-451 -143.5t-451.5 144.5t-171.5 373.5zM772 147v666q0 69 -24.5 101t-77.5 32t-78 -32t-25 -101v-666q0 -70 24.5 -101.5t78.5 -31.5t78 31.5t24 101.5zM363 1206v168h614v-168
h-614z" />
    <glyph glyph-name="Obreve" unicode="&#x14e;" horiz-adv-x="1667" 
d="M696 266q0 -130 32.5 -189t102.5 -59q72 0 105 59t33 189v877q0 129 -32.5 187.5t-105.5 58.5q-71 0 -103 -58.5t-32 -187.5v-877zM61 705q0 143 55.5 281.5t151.5 236.5q107 109 250.5 166t312.5 57q335 0 554 -212t219 -529q0 -319 -219 -531.5t-554 -212.5
q-147 0 -276.5 44t-230.5 128q-122 100 -192.5 253.5t-70.5 318.5zM506 1895h95q20 -67 73 -95t160 -28q106 0 160 28.5t71 94.5h95q-20 -147 -105 -227t-221 -80q-135 0 -220 79t-108 228z" />
    <glyph glyph-name="obreve" unicode="&#x14f;" horiz-adv-x="1339" 
d="M47 479q0 229 171.5 372.5t451.5 143.5q281 0 451.5 -142.5t170.5 -373.5t-171 -374.5t-451 -143.5t-451.5 144.5t-171.5 373.5zM772 147v666q0 69 -24.5 101t-77.5 32t-78 -32t-25 -101v-666q0 -70 24.5 -101.5t78.5 -31.5t78 31.5t24 101.5zM342 1444h95q20 -67 73 -95
t160 -28q106 0 160 28.5t71 94.5h95q-20 -147 -105 -227t-221 -80q-135 0 -220 79t-108 228z" />
    <glyph glyph-name="Rcedilla" unicode="&#x156;" horiz-adv-x="1839" 
d="M793 807h38q124 0 165.5 38.5t41.5 143.5v189q0 101 -44.5 144.5t-149.5 43.5h-51v-559zM57 59h152v1307h-152v55h998q312 0 451 -78t139 -251q0 -149 -112.5 -224t-350.5 -86v-38q176 -2 278 -67t148 -204q26 -82 29.5 -216t48.5 -134q22 0 44.5 19.5t43.5 56.5l49 -33
q-55 -97 -154.5 -151t-224.5 -54q-217 0 -323.5 114t-106.5 345q0 26 1 56.5t1 35.5q0 137 -39 181t-154 44h-30v-678h168v-59h-904v59zM723 -729v55q140 41 230 101t90 106q-1 4 -3 6t-5 2t-51 -15t-97 -15q-96 0 -154.5 53.5t-58.5 140.5q0 90 64 148.5t166 58.5
q114 0 185 -75.5t71 -194.5q0 -130 -118.5 -231t-318.5 -140z" />
    <glyph glyph-name="rcedilla" unicode="&#x157;" horiz-adv-x="1223" 
d="M43 0v55h119v860h-119v52h283q68 0 135.5 7t132.5 21h35v-239h16q64 125 142 182t186 57q109 0 172 -62t63 -169q0 -102 -62.5 -162.5t-166.5 -60.5q-91 0 -151 49t-60 121v28q0 26 -5.5 37.5t-17.5 11.5q-36 0 -73 -114t-37 -248v-371h158v-55h-750zM209 -729v55
q140 41 230 101t90 106q-1 4 -3 6t-5 2t-51 -15t-97 -15q-96 0 -154.5 53.5t-58.5 140.5q0 90 64 148.5t166 58.5q114 0 185 -75.5t71 -194.5q0 -130 -118.5 -231t-318.5 -140z" />
    <glyph glyph-name="Scircumflex" unicode="&#x15c;" horiz-adv-x="1360" 
d="M156 -39h-47q5 87 6.5 130t1.5 79q0 46 -4 123t-10 176h57q95 -208 244.5 -327t308.5 -119q103 0 157 38.5t54 112.5q0 103 -255 217q-24 11 -37 17q-301 138 -411 261t-110 300q0 215 136 346t357 131q80 0 154 -20.5t151 -63.5l224 84h41q0 -50 -2 -106q-1 -15 -1 -19
q0 -91 5 -174.5t14 -173.5h-57q-103 197 -234 304t-268 107q-91 0 -143 -39t-52 -106q0 -102 301 -242q48 -22 74 -34q262 -125 367.5 -245.5t105.5 -283.5q0 -213 -144 -343t-382 -130q-95 0 -181 21.5t-190 72.5zM358 1557l230 371h184l230 -371h-101l-221 172l-221 -172
h-101z" />
    <glyph glyph-name="scircumflex" unicode="&#x15d;" horiz-adv-x="1110" 
d="M319 37l-169 -74h-50l-16 369h51q77 -146 206.5 -233t264.5 -87q74 0 114 27t40 76q0 88 -296 176q-43 13 -66 20q-140 43 -222 139.5t-82 217.5q0 143 104.5 235t268.5 92q71 0 142.5 -14t144.5 -43l168 57h41l4 -321h-39q-66 125 -181.5 200.5t-234.5 75.5
q-60 0 -93.5 -23.5t-33.5 -66.5q0 -86 224 -153l21 -6q214 -64 304 -152t90 -227q0 -172 -104 -265.5t-293 -93.5q-82 0 -153.5 17t-154.5 57zM233 1106l230 371h184l230 -371h-101l-221 172l-221 -172h-101z" />
    <glyph glyph-name="Tbar" unicode="&#x166;" horiz-adv-x="1532" 
d="M1251 0h-970v59h188v555h-252v76h252v676q-138 -11 -242 -125t-153 -311h-45v491h1474v-491h-45q-49 197 -153 311t-242 125v-676h250v-76h-250v-555h188v-59z" />
    <glyph glyph-name="tbar" unicode="&#x167;" horiz-adv-x="868" 
d="M156 184v385h-185v58h185v288h-127v51q165 5 303.5 93.5t253.5 263.5h41v-356h225v-52h-225v-288h315v-58h-315v-348q0 -74 14 -97.5t51 -23.5q52 0 89.5 60.5t54.5 171.5h43q-7 -174 -119 -272.5t-305 -98.5q-151 0 -225 55.5t-74 167.5z" />
    <glyph glyph-name="Utilde" unicode="&#x168;" horiz-adv-x="1712" 
d="M1473 387q0 -207 -154.5 -316.5t-448.5 -109.5q-299 0 -464.5 103.5t-165.5 289.5v1010h-174v57h948v-57h-187v-995q0 -147 60.5 -216t187.5 -69q154 0 238 79t84 224v817q0 98 -38 129t-158 33l-1 55h471v-55q-121 -3 -159.5 -33t-38.5 -129v-817zM645 1588h-84
q27 135 84 200.5t148 65.5q18 0 36.5 -3t41.5 -9l120 -31q20 -5 29 -6.5t16 -1.5q37 0 58.5 21t38.5 73h82q-29 -139 -85 -202.5t-149 -63.5q-16 0 -32.5 2t-30.5 6l-117 33q-24 6 -36.5 8t-20.5 2q-40 0 -64.5 -23.5t-34.5 -70.5z" />
    <glyph glyph-name="utilde" unicode="&#x169;" horiz-adv-x="1432" 
d="M1276 51h119v-51h-269q-68 0 -135.5 -7t-132.5 -22h-35l2 185h-18q-48 -94 -138 -144.5t-210 -50.5q-164 0 -235.5 85.5t-71.5 295.5v573h-113v52h278q69 0 136.5 7t132.5 21h35v-751q0 -55 16 -81t49 -26q59 0 90 64.5t31 185.5v528h-66v52h232q68 0 134 7t132 21h37
v-944zM473 1137h-84q27 135 84 200.5t148 65.5q18 0 36.5 -3t41.5 -9l120 -31q20 -5 29 -6.5t16 -1.5q37 0 58.5 21t38.5 73h82q-29 -139 -85 -202.5t-149 -63.5q-16 0 -32.5 2t-30.5 6l-117 33q-24 6 -36.5 8t-20.5 2q-40 0 -64.5 -23.5t-34.5 -70.5z" />
    <glyph glyph-name="Umacron" unicode="&#x16a;" horiz-adv-x="1712" 
d="M1473 387q0 -207 -154.5 -316.5t-448.5 -109.5q-299 0 -464.5 103.5t-165.5 289.5v1010h-174v57h948v-57h-187v-995q0 -147 60.5 -216t187.5 -69q154 0 238 79t84 224v817q0 98 -38 129t-158 33l-1 55h471v-55q-121 -3 -159.5 -33t-38.5 -129v-817zM582 1657v168h614
v-168h-614z" />
    <glyph glyph-name="umacron" unicode="&#x16b;" horiz-adv-x="1432" 
d="M1276 51h119v-51h-269q-68 0 -135.5 -7t-132.5 -22h-35l2 185h-18q-48 -94 -138 -144.5t-210 -50.5q-164 0 -235.5 85.5t-71.5 295.5v573h-113v52h278q69 0 136.5 7t132.5 21h35v-751q0 -55 16 -81t49 -26q59 0 90 64.5t31 185.5v528h-66v52h232q68 0 134 7t132 21h37
v-944zM410 1206v168h614v-168h-614z" />
    <glyph glyph-name="Ubreve" unicode="&#x16c;" horiz-adv-x="1712" 
d="M1473 387q0 -207 -154.5 -316.5t-448.5 -109.5q-299 0 -464.5 103.5t-165.5 289.5v1010h-174v57h948v-57h-187v-995q0 -147 60.5 -216t187.5 -69q154 0 238 79t84 224v817q0 98 -38 129t-158 33l-1 55h471v-55q-121 -3 -159.5 -33t-38.5 -129v-817zM561 1895h95
q20 -67 73 -95t160 -28q106 0 160 28.5t71 94.5h95q-20 -147 -105 -227t-221 -80q-135 0 -220 79t-108 228z" />
    <glyph glyph-name="ubreve" unicode="&#x16d;" horiz-adv-x="1432" 
d="M1276 51h119v-51h-269q-68 0 -135.5 -7t-132.5 -22h-35l2 185h-18q-48 -94 -138 -144.5t-210 -50.5q-164 0 -235.5 85.5t-71.5 295.5v573h-113v52h278q69 0 136.5 7t132.5 21h35v-751q0 -55 16 -81t49 -26q59 0 90 64.5t31 185.5v528h-66v52h232q68 0 134 7t132 21h37
v-944zM389 1444h95q20 -67 73 -95t160 -28q106 0 160 28.5t71 94.5h95q-20 -147 -105 -227t-221 -80q-135 0 -220 79t-108 228z" />
    <glyph glyph-name="Uogonek" unicode="&#x172;" horiz-adv-x="1712" 
d="M1473 387q0 -207 -154.5 -316.5t-448.5 -109.5q-299 0 -464.5 103.5t-165.5 289.5v1010h-174v57h948v-57h-187v-995q0 -147 60.5 -216t187.5 -69q154 0 238 79t84 224v817q0 98 -38 129t-158 33l-1 55h471v-55q-121 -3 -159.5 -33t-38.5 -129v-817zM1022 31
q-88 -73 -127 -136t-39 -131q0 -48 23 -75t63 -27q35 0 59 15t52 55l35 -21q-42 -89 -101.5 -133.5t-136.5 -44.5q-79 0 -125.5 41t-46.5 111q0 88 70.5 173t216.5 173h57z" />
    <glyph glyph-name="uogonek" unicode="&#x173;" horiz-adv-x="1432" 
d="M1276 51h119v-51h-105q-68 -66 -97.5 -121.5t-29.5 -114.5q0 -48 23 -75t63 -27q34 0 58.5 15t52.5 55l33 -21q-40 -88 -99.5 -133t-136.5 -45q-79 0 -125.5 41t-46.5 111q0 83 59 160t183 155h-101q-68 0 -135.5 -7t-132.5 -22h-35l2 185h-18q-48 -94 -138 -144.5
t-210 -50.5q-164 0 -235.5 85.5t-71.5 295.5v573h-113v52h278q69 0 136.5 7t132.5 21h35v-751q0 -55 16 -81t49 -26q59 0 90 64.5t31 185.5v528h-66v52h232q68 0 134 7t132 21h37v-944z" />
    <glyph glyph-name="Wcircumflex" unicode="&#x174;" horiz-adv-x="1962" 
d="M762 0h-311l-404 1366h-86v55h733v-55h-86l242 -825l113 393l-117 432h-82v55h760v-55h-119l207 -795l194 686q3 7 4.5 16t1.5 19q0 40 -22 55t-102 19v55h315v-55q-55 -14 -83.5 -42.5t-43.5 -82.5l-356 -1241h-299l-224 795zM659 1557l230 371h184l230 -371h-101
l-221 172l-221 -172h-101z" />
    <glyph glyph-name="wcircumflex" unicode="&#x175;" horiz-adv-x="1810" 
d="M748 0h-332l-328 915h-90v52h618v-52h-53l228 -641l94 246l-133 395h-72v52h651v-52h-108l200 -610l187 479q8 23 12 40.5t4 29.5q0 34 -22.5 47.5t-79.5 13.5h-15v52h312v-52h-4q-91 0 -169 -196l-4 -9l-278 -710h-305l-148 436zM583 1106l230 371h184l230 -371h-101
l-221 172l-221 -172h-101z" />
    <glyph glyph-name="Ycircumflex" unicode="&#x176;" horiz-adv-x="1688" 
d="M1350 0h-983v59h190v521l-463 786h-127v55h942v-55h-145l371 -625l247 435q15 26 21 46.5t6 39.5q0 50 -40.5 76t-117.5 26v57h449v-55q-71 -13 -117 -45.5t-86 -101.5l-338 -580v-580h191v-59zM522 1557l230 371h184l230 -371h-101l-221 172l-221 -172h-101z" />
    <glyph glyph-name="ycircumflex" unicode="&#x177;" horiz-adv-x="1327" 
d="M621 -18l-539 933h-107v52h746v-52h-117l287 -473l196 338q13 22 18 36.5t5 27.5q0 36 -27 52t-102 20v51h344v-52q-107 -19 -189 -160q-5 -9 -7 -13l-523 -908q-93 -162 -177.5 -226.5t-199.5 -64.5q-109 0 -178 61t-69 156q0 87 50 135t140 48q78 0 125 -43.5
t47 -114.5q0 -52 -41 -92.5t-41 -50.5q0 -13 10 -20t27 -7q50 0 120.5 66t131.5 174zM342 1106l230 371h184l230 -371h-101l-221 172l-221 -172h-101z" />
    <glyph glyph-name="slong" unicode="&#x17f;" horiz-adv-x="825" 
d="M14 0v55h156v840h-158v63l162 1q3 257 109.5 383t322.5 126q137 0 213 -55.5t76 -155.5q0 -72 -46.5 -114.5t-125.5 -42.5q-73 0 -115.5 38.5t-42.5 104.5q0 33 13 57.5t38 42.5q8 6 22 14q25 14 26 32q0 8 -11.5 15t-27.5 7q-78 0 -133.5 -63t-55.5 -154
q0 -81 49.5 -138t153.5 -98v-903h178v-55h-803z" />
    <glyph glyph-name="Aringacute" unicode="&#x1fa;" horiz-adv-x="1561" 
d="M614 1898h-112l284 250q35 31 58 42.5t47 11.5q40 0 68 -28t28 -67q0 -33 -24 -61t-66 -43zM322 537h368l-184 507zM342 0h-387v59q65 8 109.5 47.5t70.5 114.5l418 1172h444l488 -1334h108v-59h-876v59h145l-145 406h-422l-78 -234q-9 -27 -12.5 -46.5t-3.5 -34.5
q0 -47 29.5 -69t93.5 -22h18v-59zM547 1671q0 94 64 157.5t159 63.5q94 0 157.5 -63.5t63.5 -157.5q0 -92 -65 -158.5t-156 -66.5t-157 66.5t-66 158.5zM676 1669q0 -39 27 -66.5t65 -27.5q40 0 67 27t27 67q0 39 -27 65.5t-67 26.5q-37 0 -64.5 -27t-27.5 -65z" />
    <glyph glyph-name="aringacute" unicode="&#x1fb;" horiz-adv-x="1337" 
d="M733 508q-6 0 -17 1t-16 1q-91 0 -126 -53t-35 -209q0 -74 23 -113t67 -39q55 0 79.5 47t24.5 152v213zM1305 166l32 -23q-58 -84 -152 -133t-196 -49q-81 0 -139.5 38.5t-95.5 115.5q-74 -77 -171 -115.5t-218 -38.5q-145 0 -231.5 74t-86.5 196q0 149 151.5 236.5
t411.5 87.5h121v295q0 47 -29 69.5t-90 22.5q-32 0 -54.5 -9.5t-22.5 -21.5q0 -5 14 -19q53 -55 53 -118q0 -81 -61 -120.5t-185 -39.5q-111 0 -169 42t-58 122q0 116 115 166.5t387 50.5q198 0 315 -23.5t174 -74.5q37 -34 52.5 -81.5t15.5 -139.5v-496q0 -35 10 -47
t37 -12q20 0 39 12t31 33zM430 1270q0 94 64 157.5t159 63.5q94 0 159 -64t65 -157q0 -92 -66.5 -159t-157.5 -67q-90 0 -156.5 67t-66.5 159zM559 1268q0 -39 27 -65.5t65 -26.5q41 0 67.5 26t26.5 66q0 38 -27 65t-67 27q-37 0 -64.5 -27t-27.5 -65zM498 1511h-113
l285 250q35 31 57.5 42.5t46.5 11.5q40 0 68 -28t28 -67q0 -33 -23.5 -60t-66.5 -42z" />
    <glyph glyph-name="AEacute" unicode="&#x1fc;" horiz-adv-x="2105" 
d="M1647 1036v-622h-60q-15 145 -80.5 213.5t-187.5 68.5h-6v-637h110q188 0 307.5 119t180.5 367h61v-545h-1409v59h158v553h-414l-182 -387q-9 -20 -14 -40.5t-5 -37.5q0 -43 32.5 -65.5t94.5 -22.5h17v-59h-391v59q62 10 102 44t80 118l434 920q11 22 17 46.5t6 45.5
q0 66 -51 98.5t-156 34.5v55h1653v-491h-62q-56 231 -170.5 333.5t-316.5 102.5h-82v-612h6q123 0 188 68.5t80 213.5h60zM721 678v682h-57l-326 -682h383zM840 1557l279 297q52 54 86 74t69 20q47 0 79 -31.5t32 -76.5q0 -36 -24 -63.5t-81 -55.5l-325 -164h-115z" />
    <glyph glyph-name="aeacute" unicode="&#x1fd;" horiz-adv-x="1896" 
d="M1370 479v334q0 69 -24.5 101t-77.5 32t-78 -32t-25 -101v-334h205zM735 508h-26q-97 0 -132.5 -52.5t-35.5 -246.5q0 -82 22.5 -123t67.5 -41q54 0 79 47.5t25 151.5v264zM1849 432h-684v-121q0 -135 59 -204.5t173 -69.5q116 0 209 53t174 164l39 -27
q-70 -126 -206.5 -196t-312.5 -70q-120 0 -220 32t-195 101q-102 -69 -216.5 -101t-265.5 -32q-172 0 -263 69.5t-91 200.5q0 149 151.5 236.5t411.5 87.5h121v295q0 48 -28.5 70t-90.5 22q-31 0 -54 -10t-23 -21q0 -6 14 -20q51 -49 51 -123q0 -76 -61.5 -115t-182.5 -39
q-112 0 -169.5 41.5t-57.5 122.5q0 109 104.5 163t315.5 54q143 0 244.5 -26t154.5 -76q54 51 136 76.5t190 25.5q268 0 420.5 -149.5t152.5 -413.5zM735 1106l279 297q52 54 86 74t69 20q47 0 79 -31.5t32 -76.5q0 -36 -24 -63.5t-81 -55.5l-325 -164h-115z" />
    <glyph glyph-name="Oslashacute" unicode="&#x1fe;" horiz-adv-x="1667" 
d="M969 1014v129q0 129 -32.5 187.5t-105.5 58.5q-71 0 -103 -58.5t-32 -187.5v-547zM696 414v-148q0 -130 32.5 -189t102.5 -59q72 0 105 59t33 189v561zM305 -195h-141l198 301q-140 99 -220.5 259t-80.5 340q0 143 55.5 281.5t151.5 236.5q107 109 250.5 166t312.5 57
q95 0 184.5 -18.5t178.5 -57.5l125 191h141l-166 -254q146 -102 228 -261.5t82 -340.5q0 -322 -220 -533t-565 -211q-96 0 -182 20.5t-174 63.5zM621 1557l279 297q52 54 86 74t69 20q47 0 79 -31.5t32 -76.5q0 -36 -24 -63.5t-81 -55.5l-325 -164h-115z" />
    <glyph glyph-name="oslashacute" unicode="&#x1ff;" horiz-adv-x="1339" 
d="M567 238v-91q0 -70 24.5 -101.5t78.5 -31.5t78 31.5t24 101.5v418zM772 719v94q0 69 -24.5 101t-77.5 32t-78 -32t-25 -101v-422zM424 -2l-156 -248h-108l172 279q-134 69 -209.5 188.5t-75.5 261.5q0 229 171.5 372.5t451.5 143.5q69 0 129.5 -8t115.5 -24l138 221h112
l-157 -256q137 -73 210.5 -189.5t73.5 -259.5q0 -231 -171 -374.5t-451 -143.5q-64 0 -124.5 9t-121.5 28zM457 1106l279 297q52 54 86 74t69 20q47 0 79 -31.5t32 -76.5q0 -36 -24 -63.5t-81 -55.5l-325 -164h-115z" />
    <glyph glyph-name="anoteleia" unicode="&#x387;" horiz-adv-x="680" 
d="M121 702q0 94 63 157t156 63q91 0 155 -64t64 -156q0 -91 -64.5 -156t-154.5 -65q-92 0 -155.5 64.5t-63.5 156.5z" />
    <glyph glyph-name="Wgrave" unicode="&#x1e80;" horiz-adv-x="1962" 
d="M762 0h-311l-404 1366h-86v55h733v-55h-86l242 -825l113 393l-117 432h-82v55h760v-55h-119l207 -795l194 686q3 7 4.5 16t1.5 19q0 40 -22 55t-102 19v55h315v-55q-55 -14 -83.5 -42.5t-43.5 -82.5l-356 -1241h-299l-224 795zM1194 1557h-115l-325 164q-57 28 -81 55.5
t-24 63.5q0 45 32 76.5t79 31.5q35 0 69 -20t86 -74z" />
    <glyph glyph-name="wgrave" unicode="&#x1e81;" horiz-adv-x="1810" 
d="M748 0h-332l-328 915h-90v52h618v-52h-53l228 -641l94 246l-133 395h-72v52h651v-52h-108l200 -610l187 479q8 23 12 40.5t4 29.5q0 34 -22.5 47.5t-79.5 13.5h-15v52h312v-52h-4q-91 0 -169 -196l-4 -9l-278 -710h-305l-148 436zM1118 1106h-115l-325 164
q-57 28 -81 55.5t-24 63.5q0 45 32 76.5t79 31.5q35 0 69 -20t86 -74z" />
    <glyph glyph-name="Wacute" unicode="&#x1e82;" horiz-adv-x="1962" 
d="M762 0h-311l-404 1366h-86v55h733v-55h-86l242 -825l113 393l-117 432h-82v55h760v-55h-119l207 -795l194 686q3 7 4.5 16t1.5 19q0 40 -22 55t-102 19v55h315v-55q-55 -14 -83.5 -42.5t-43.5 -82.5l-356 -1241h-299l-224 795zM768 1557l279 297q52 54 86 74t69 20
q47 0 79 -31.5t32 -76.5q0 -36 -24 -63.5t-81 -55.5l-325 -164h-115z" />
    <glyph glyph-name="wacute" unicode="&#x1e83;" horiz-adv-x="1810" 
d="M748 0h-332l-328 915h-90v52h618v-52h-53l228 -641l94 246l-133 395h-72v52h651v-52h-108l200 -610l187 479q8 23 12 40.5t4 29.5q0 34 -22.5 47.5t-79.5 13.5h-15v52h312v-52h-4q-91 0 -169 -196l-4 -9l-278 -710h-305l-148 436zM692 1106l279 297q52 54 86 74t69 20
q47 0 79 -31.5t32 -76.5q0 -36 -24 -63.5t-81 -55.5l-325 -164h-115z" />
    <glyph glyph-name="Wdieresis" unicode="&#x1e84;" horiz-adv-x="1962" 
d="M762 0h-311l-404 1366h-86v55h733v-55h-86l242 -825l113 393l-117 432h-82v55h760v-55h-119l207 -795l194 686q3 7 4.5 16t1.5 19q0 40 -22 55t-102 19v55h315v-55q-55 -14 -83.5 -42.5t-43.5 -82.5l-356 -1241h-299l-224 795zM1032 1743q0 56 43 99t101 43
q59 0 101 -41.5t42 -100.5q0 -62 -41 -103.5t-102 -41.5q-60 0 -102 42.5t-42 102.5zM641 1743q0 56 44 99t101 43q60 0 101 -41.5t41 -100.5q0 -63 -40 -104t-102 -41q-59 0 -102 42.5t-43 102.5z" />
    <glyph glyph-name="wdieresis" unicode="&#x1e85;" horiz-adv-x="1810" 
d="M748 0h-332l-328 915h-90v52h618v-52h-53l228 -641l94 246l-133 395h-72v52h651v-52h-108l200 -610l187 479q8 23 12 40.5t4 29.5q0 34 -22.5 47.5t-79.5 13.5h-15v52h312v-52h-4q-91 0 -169 -196l-4 -9l-278 -710h-305l-148 436zM956 1292q0 56 43 99t101 43
q59 0 101 -41.5t42 -100.5q0 -62 -41 -103.5t-102 -41.5q-60 0 -102 42.5t-42 102.5zM565 1292q0 56 44 99t101 43q60 0 101 -41.5t41 -100.5q0 -63 -40 -104t-102 -41q-59 0 -102 42.5t-43 102.5z" />
    <glyph glyph-name="Ygrave" unicode="&#x1ef2;" horiz-adv-x="1688" 
d="M1350 0h-983v59h190v521l-463 786h-127v55h942v-55h-145l371 -625l247 435q15 26 21 46.5t6 39.5q0 50 -40.5 76t-117.5 26v57h449v-55q-71 -13 -117 -45.5t-86 -101.5l-338 -580v-580h191v-59zM1057 1557h-115l-325 164q-57 28 -81 55.5t-24 63.5q0 45 32 76.5t79 31.5
q35 0 69 -20t86 -74z" />
    <glyph glyph-name="ygrave" unicode="&#x1ef3;" horiz-adv-x="1327" 
d="M621 -18l-539 933h-107v52h746v-52h-117l287 -473l196 338q13 22 18 36.5t5 27.5q0 36 -27 52t-102 20v51h344v-52q-107 -19 -189 -160q-5 -9 -7 -13l-523 -908q-93 -162 -177.5 -226.5t-199.5 -64.5q-109 0 -178 61t-69 156q0 87 50 135t140 48q78 0 125 -43.5
t47 -114.5q0 -52 -41 -92.5t-41 -50.5q0 -13 10 -20t27 -7q50 0 120.5 66t131.5 174zM877 1106h-115l-325 164q-57 28 -81 55.5t-24 63.5q0 45 32 76.5t79 31.5q35 0 69 -20t86 -74z" />
    <glyph glyph-name="quotereversed" unicode="&#x201b;" horiz-adv-x="680" 
d="M535 659q-198 37 -319.5 171t-121.5 313q0 136 71.5 219.5t188.5 83.5q102 0 167 -60t65 -153q0 -91 -64 -151t-160 -60q-50 0 -99 20.5t-56 20.5q-8 0 -11 -6t-3 -23q0 -82 97.5 -176.5t244.5 -142.5v-56z" />
    <glyph glyph-name="overline" unicode="&#x203e;" horiz-adv-x="1024" 
d="M205 1206v168h614v-168h-614z" />
    <glyph glyph-name="lira" unicode="&#x20a4;" horiz-adv-x="1360" 
d="M285 659h-215v91h171q-1 4 -4 12q-59 162 -59 256q0 204 145.5 314t417.5 110q231 0 364.5 -88.5t133.5 -239.5q0 -94 -57.5 -153.5t-149.5 -59.5q-98 0 -154.5 50t-56.5 136q0 53 17 92.5t51 63.5q13 9 39 24q53 29 53 50q0 25 -35.5 43t-89.5 18q-87 0 -143 -70.5
t-56 -183.5q0 -65 25.5 -189t30.5 -185h274v-91h-274q0 -91 -32.5 -176.5t-90.5 -150.5l12 -17q56 15 110 23t101 8q40 0 125.5 -14.5t130.5 -14.5q70 0 110 29t60 94h53v-6q0 -222 -105.5 -347.5t-291.5 -125.5q-115 0 -224.5 45.5t-240.5 149.5q-23 -95 -76.5 -145
t-132.5 -50q-71 0 -115.5 46t-44.5 122q0 85 54 133.5t149 48.5q32 0 63 -7.5t60 -22.5q2 10 3 18.5t1 15.5q0 56 -26 141t-80 203z" />
    <glyph glyph-name="estimated" unicode="&#x212e;" horiz-adv-x="1561" 
d="M397 606v-47q0 -239 105 -365t303 -126q172 0 276 94.5t113 258.5l225 1q-15 -222 -179.5 -342.5t-451.5 -120.5q-330 0 -498.5 165.5t-168.5 489.5q0 332 168 497t508 165q322 0 482.5 -155.5t160.5 -467.5v-47h-1043zM1163 715v33q0 208 -94.5 313.5t-280.5 105.5
q-194 0 -287 -107.5t-104 -344.5h766z" />
    <glyph glyph-name="oneeighth" unicode="&#x215b;" horiz-adv-x="2056" 
d="M1569 514q0 -51 12.5 -68.5t46.5 -17.5t46.5 16t15.5 71v177q0 41 -15.5 61.5t-46.5 20.5q-29 0 -44 -20.5t-15 -61.5v-178zM1563 104q0 -47 15 -67.5t50 -20.5q36 0 52 20.5t16 67.5v191q0 56 -15.5 78t-52.5 22q-35 0 -50 -22.5t-15 -77.5v-191zM1767 403
q127 -16 195 -67.5t68 -130.5q0 -111 -103.5 -169.5t-298.5 -58.5t-297 58.5t-102 169.5q0 79 67.5 130.5t194.5 67.5v19q-124 19 -179 62.5t-55 121.5q0 98 95 149.5t276 51.5t277 -51.5t96 -149.5q0 -78 -55 -121.5t-179 -62.5v-19zM516 -39l924 1481h100l-924 -1481h-100
zM705 616h-551v33h118v725h-118v33h245q42 0 83.5 4t84.5 12h23v-774h115v-33z" />
    <glyph glyph-name="threeeighths" unicode="&#x215c;" horiz-adv-x="2056" 
d="M1567 514q0 -51 12.5 -68.5t46.5 -17.5t46.5 16t15.5 71v177q0 41 -15.5 61.5t-46.5 20.5q-30 0 -44.5 -20.5t-14.5 -61.5v-178zM1561 104q0 -47 15 -67.5t50 -20.5q36 0 52 20.5t16 67.5v191q0 56 -15.5 78t-52.5 22q-35 0 -50 -22.5t-15 -77.5v-191zM1765 403
q127 -16 195 -67.5t68 -130.5q0 -111 -103.5 -169.5t-298.5 -58.5t-297 58.5t-102 169.5q0 79 67.5 130.5t194.5 67.5v19q-124 19 -179 62.5t-55 121.5q0 98 95 149.5t276 51.5t277 -51.5t96 -149.5q0 -78 -55 -121.5t-179 -62.5v-19zM514 -39l924 1481h100l-924 -1481h-100
zM539 1040v-18q129 -17 191.5 -67.5t62.5 -139.5q0 -106 -107 -163.5t-305 -57.5q-166 0 -250 48t-84 144q0 62 38 95.5t105 33.5q63 0 99.5 -31t36.5 -85q0 -27 -10.5 -47.5t-30.5 -36.5q-8 -5 -22 -12q-32 -16 -32 -33q0 -20 18 -28.5t58 -8.5q73 0 106 36t33 113v115
q0 61 -22.5 87t-77.5 26q-11 0 -27.5 -3t-21.5 -3q-8 0 -15.5 6.5t-7.5 13.5q0 10 7.5 16.5t17.5 6.5q5 0 22 -2.5t29 -2.5q52 0 73 29.5t21 104.5v84q0 68 -30 98.5t-99 30.5q-37 0 -55 -8.5t-18 -24.5t36 -35q11 -6 15 -8q20 -13 30.5 -31.5t10.5 -42.5q0 -50 -35 -80.5
t-92 -30.5q-62 0 -100.5 33.5t-38.5 87.5q0 83 87.5 128.5t247.5 45.5q171 0 265 -53t94 -149q0 -76 -56 -121.5t-167 -59.5z" />
    <glyph glyph-name="fiveeighths" unicode="&#x215d;" horiz-adv-x="2056" 
d="M1567 514q0 -51 12.5 -68.5t46.5 -17.5t46.5 16t15.5 71v177q0 41 -15.5 61.5t-46.5 20.5q-30 0 -44.5 -20.5t-14.5 -61.5v-178zM1561 104q0 -47 15 -67.5t50 -20.5q36 0 52 20.5t16 67.5v191q0 56 -15.5 78t-52.5 22q-35 0 -50 -22.5t-15 -77.5v-191zM1765 403
q127 -16 195 -67.5t68 -130.5q0 -111 -103.5 -169.5t-298.5 -58.5t-297 58.5t-102 169.5q0 79 67.5 130.5t194.5 67.5v19q-124 19 -179 62.5t-55 121.5q0 98 95 149.5t276 51.5t277 -51.5t96 -149.5q0 -78 -55 -121.5t-179 -62.5v-19zM514 -39l924 1481h100l-924 -1481h-100
zM147 997l-32 17q11 57 22 153t25 256h33q82 -14 154 -21t138 -7q78 0 157.5 14t84.5 14q14 0 18.5 -3.5t4.5 -12.5q0 -21 -19.5 -58.5t-46.5 -64.5q-50 -47 -135 -73.5t-186 -26.5q-40 0 -86.5 4.5t-101.5 13.5l-19 -153q52 25 118 37t154 12q168 0 268.5 -68t100.5 -182
q0 -121 -112.5 -187.5t-315.5 -66.5q-154 0 -239 48.5t-85 135.5q0 59 37.5 93t101.5 34t102 -33t38 -88q0 -23 -8 -42.5t-24 -33.5q-7 -6 -27 -18q-31 -19 -31 -33q0 -13 15.5 -20.5t43.5 -7.5q85 0 122.5 51t37.5 170q0 103 -38 153t-116 50q-33 0 -69 -13t-85 -43z" />
    <glyph glyph-name="seveneighths" unicode="&#x215e;" horiz-adv-x="2056" 
d="M1567 514q0 -51 12.5 -68.5t46.5 -17.5t46.5 16t15.5 71v177q0 41 -15.5 61.5t-46.5 20.5q-30 0 -44.5 -20.5t-14.5 -61.5v-178zM1561 104q0 -47 15 -67.5t50 -20.5q36 0 52 20.5t16 67.5v191q0 56 -15.5 78t-52.5 22q-35 0 -50 -22.5t-15 -77.5v-191zM1765 403
q127 -16 195 -67.5t68 -130.5q0 -111 -103.5 -169.5t-298.5 -58.5t-297 58.5t-102 169.5q0 79 67.5 130.5t194.5 67.5v19q-124 19 -179 62.5t-55 121.5q0 98 95 149.5t276 51.5t277 -51.5t96 -149.5q0 -78 -55 -121.5t-179 -62.5v-19zM514 -39l924 1481h100l-924 -1481h-100
zM127 1112h-41l43 311h41l-14 -106q55 54 121.5 80t146.5 26q63 0 157.5 -23.5t127.5 -23.5q39 0 72.5 15.5t35.5 15.5q10 0 16.5 -6t6.5 -15q0 -12 -35 -53q-29 -35 -47 -59q-69 -95 -100.5 -168.5t-45.5 -157.5q-7 -48 -11 -146t-21 -136q-22 -47 -64.5 -71t-103.5 -24
q-75 0 -121.5 43.5t-46.5 114.5q0 62 38.5 125t116.5 129l191 158q10 8 28 22q48 39 48 51q0 4 -4.5 6.5t-10.5 2.5q-7 0 -29 -11q-81 -38 -165 -38q-71 0 -166.5 19t-118.5 19h-16h-17z" />
    <glyph glyph-name="commaaccent" unicode="&#xf004;" horiz-adv-x="1024" 
d="M315 -729v55q140 41 230 101t90 106q-1 4 -3 6t-5 2t-51 -15t-97 -15q-96 0 -154.5 53.5t-58.5 140.5q0 90 64 148.5t166 58.5q114 0 185 -75.5t71 -194.5q0 -130 -118.5 -231t-318.5 -140z" />
    <glyph glyph-name="undercommaaccent" unicode="&#xf005;" horiz-adv-x="1024" 
d="M250 -379l47 103q67 -39 128 -58.5t116 -19.5q35 0 57.5 20.5t22.5 54.5q0 41 -23 61.5t-68 20.5q-15 0 -56 -7q-4 0 -7 -1v203h88v-115q24 4 44 6t34 2q78 0 127 -48t49 -124q0 -84 -60 -136t-157 -52q-69 0 -143 18.5t-199 71.5z" />
    <glyph glyph-name="greekacute" unicode="&#x384;" horiz-adv-x="1024" 
d="M299 1106l279 297q49 53 84 73.5t71 20.5q47 0 79 -31.5t32 -76.5q0 -36 -24 -63.5t-81 -55.5l-325 -164h-115z" />
    <glyph glyph-name="greekacutedieresis" unicode="&#x385;" horiz-adv-x="924" 
d="M422 1100l-43 284q-3 19 -3.5 28t-0.5 20q0 37 24.5 61.5t61.5 24.5t63.5 -25t26.5 -61q0 -9 -1 -20.5t-3 -26.5l-45 -285h-80zM604 1243q0 53 39 92t92 39q55 0 94 -38.5t39 -92.5q0 -58 -37.5 -95.5t-95.5 -37.5q-55 0 -93 39t-38 94zM322 1243q0 -55 -39 -94t-95 -39
q-57 0 -94 37.5t-37 95.5q0 54 38.5 92.5t92.5 38.5t94 -39t40 -92z" />
    <glyph glyph-name="Alphaacute" unicode="&#x386;" horiz-adv-x="1561" 
d="M322 537h368l-184 507zM342 0h-387v59q65 8 109.5 47.5t70.5 114.5l428 1200h426l496 -1362h108v-59h-876v59h145l-145 406h-422l-78 -234q-9 -27 -12.5 -46.5t-3.5 -34.5q0 -47 29.5 -69t93.5 -22h18v-59zM147 1100l-43 285q-2 17 -3 27t-1 20q0 36 25.5 61t62.5 25
t62.5 -25t25.5 -61q0 -10 -1 -21t-3 -26l-43 -285h-82z" />
    <glyph glyph-name="Epsilonacute" unicode="&#x388;" horiz-adv-x="1991" 
d="M149 1100l-43 285q-2 17 -3 27t-1 20q0 36 25.5 61t62.5 25t62.5 -25t25.5 -61q0 -10 -1 -21t-3 -26l-43 -285h-82zM1829 1421v-491h-61q-56 229 -171 332.5t-317 103.5h-82v-612h6q123 0 189 69t82 213h59v-624h-59q-16 145 -82 214.5t-189 69.5h-6v-637h111
q189 0 308.5 119.5t178.5 366.5h62v-545h-1407v59h155v1307h-155v55h1378z" />
    <glyph glyph-name="Etaacute" unicode="&#x389;" horiz-adv-x="2228" 
d="M149 1100l-43 285q-2 17 -3 27t-1 20q0 36 25.5 61t62.5 25t62.5 -25t25.5 -61q0 -10 -1 -21t-3 -26l-43 -285h-82zM420 0v59h168v1307h-168v55h850v-55h-98v-604h264v604h-99v55h850v-55h-168v-1307h168v-59h-850v59h99v641h-264v-641h98v-59h-850z" />
    <glyph glyph-name="Iotaacute" unicode="&#x38a;" horiz-adv-x="1427" 
d="M149 1100l-43 285q-2 17 -3 27t-1 20q0 36 25.5 61t62.5 25t62.5 -25t25.5 -61q0 -10 -1 -21t-3 -26l-43 -285h-82zM434 0v59h181v1307h-181v55h938v-55h-180v-1307h180v-59h-938z" />
    <glyph glyph-name="Omicronacute" unicode="&#x38c;" horiz-adv-x="1905" 
d="M78 1100l-43 285q-2 17 -3 27t-1 20q0 36 25.5 61t62.5 25t62.5 -25t25.5 -61q0 -10 -1 -21t-3 -26l-43 -285h-82zM934 266q0 -130 32.5 -189t102.5 -59q73 0 105.5 59t32.5 189v877q0 130 -32.5 188t-105.5 58q-71 0 -103 -58.5t-32 -187.5v-877zM299 705
q0 144 55.5 283t151.5 235q109 110 251 166.5t312 56.5q171 0 314 -56.5t252 -166.5q96 -96 151.5 -235t55.5 -283q0 -145 -55.5 -284t-151.5 -235q-110 -111 -253 -168t-313 -57q-169 0 -311 57t-252 168q-96 96 -151.5 235t-55.5 284z" />
    <glyph glyph-name="Upsilonacute" unicode="&#x38e;" horiz-adv-x="2232" 
d="M231 1100l-43 285q-2 17 -3 27t-1 20q0 36 25.5 61t62.5 25t62.5 -25t25.5 -61q0 -10 -1 -21t-3 -26l-43 -285h-82zM1895 0h-983v59h190v521l-463 786h-127v55h942v-55h-145l371 -625l247 435q15 26 21 46.5t6 39.5q0 50 -40.5 76t-117.5 26v57h449v-53
q-68 -12 -115.5 -47t-87.5 -102l-338 -580v-580h191v-59z" />
    <glyph glyph-name="Omegaacute" unicode="&#x38f;" horiz-adv-x="1905" 
d="M78 1100l-43 285q-2 17 -3 27t-1 20q0 36 25.5 61t62.5 25t62.5 -25t25.5 -61q0 -10 -1 -21t-3 -26l-43 -285h-82zM1211 307v-55h606v94h59v-346h-723v367q32 6 44 33.5t12 107.5v694q0 96 -33.5 140t-106.5 44q-70 0 -102.5 -44t-32.5 -140v-694q0 -80 12 -107.5
t44 -33.5v-367h-723v346h59v-94h606v55q-288 15 -461.5 163t-173.5 376q0 267 213.5 433.5t558.5 166.5q348 0 561.5 -166.5t213.5 -433.5q0 -228 -173 -376t-460 -163z" />
    <glyph glyph-name="iotaacutedieresis" unicode="&#x390;" horiz-adv-x="801" 
d="M33 0v55h133v860h-119v52h289q71 0 138.5 7t129.5 21h35v-940h123v-55h-729zM361 1100l-43 284q-3 19 -3.5 28t-0.5 20q0 37 24.5 61.5t61.5 24.5t63.5 -25t26.5 -61q0 -9 -1 -20.5t-3 -26.5l-45 -285h-80zM543 1243q0 53 39 92t92 39q55 0 94 -38.5t39 -92.5
q0 -58 -37.5 -95.5t-95.5 -37.5q-55 0 -93 39t-38 94zM261 1243q0 -55 -39 -94t-95 -39q-57 0 -94 37.5t-37 95.5q0 54 38.5 92.5t92.5 38.5t94 -39t40 -92z" />
    <glyph glyph-name="Alpha" unicode="&#x391;" horiz-adv-x="1561" 
d="M322 537h368l-184 507zM342 0h-387v59q65 8 109.5 47.5t70.5 114.5l428 1200h426l496 -1362h108v-59h-876v59h145l-145 406h-422l-78 -234q-9 -27 -12.5 -46.5t-3.5 -34.5q0 -47 29.5 -69t93.5 -22h18v-59z" />
    <glyph glyph-name="Beta" unicode="&#x392;" horiz-adv-x="1763" 
d="M807 59h29q134 0 179.5 45t45.5 170v224q0 119 -49 170t-164 51h-41v-660zM807 772h24q125 0 166 40.5t41 152.5v200q0 109 -44.5 155t-149.5 46h-37v-594zM1055 1421q311 0 450.5 -80.5t139.5 -259.5q0 -152 -113.5 -230t-349.5 -89v-33q253 -8 374 -95.5t121 -262.5
q0 -191 -150.5 -281t-471.5 -90h-1004v59h158v1307h-158v55h1004z" />
    <glyph glyph-name="Delta" unicode="&#x394;" horiz-adv-x="1565" 
d="M57 0l508 1421h426l516 -1421h-1450zM786 274l-280 770l-268 -770h548z" />
    <glyph glyph-name="Epsilon" unicode="&#x395;" horiz-adv-x="1612" 
d="M1450 1421v-491h-61q-56 229 -171 332.5t-317 103.5h-82v-612h6q123 0 189 69t82 213h59v-624h-59q-16 145 -82 214.5t-189 69.5h-6v-637h111q189 0 308.5 119.5t178.5 366.5h62v-545h-1407v59h155v1307h-155v55h1378z" />
    <glyph glyph-name="Zeta" unicode="&#x396;" horiz-adv-x="1421" 
d="M1333 0h-1298v61l670 1305h-23q-208 0 -348.5 -112t-198.5 -324h-67l34 491h1256v-53l-670 -1309h33q232 0 366.5 116t204.5 376h66z" />
    <glyph glyph-name="Eta" unicode="&#x397;" horiz-adv-x="1849" 
d="M41 0v59h168v1307h-168v55h850v-55h-98v-604h264v604h-99v55h850v-55h-168v-1307h168v-59h-850v59h99v641h-264v-641h98v-59h-850z" />
    <glyph glyph-name="Iota" unicode="&#x399;" horiz-adv-x="1049" 
d="M55 0v59h181v1307h-181v55h938v-55h-180v-1307h180v-59h-938z" />
    <glyph glyph-name="Kappa" unicode="&#x39a;" horiz-adv-x="1858" 
d="M51 0v59h166v1307h-166v55h930v-55h-176v-661l498 497q23 24 34 44.5t11 41.5q0 42 -37.5 60t-124.5 18h-72v55h649v-55h-8q-108 0 -193 -38.5t-182 -135.5l-137 -139l574 -994h143v-59h-934v59h141l-362 629v-629h147v-59h-901z" />
    <glyph glyph-name="Lambda" unicode="&#x39b;" horiz-adv-x="1561" 
d="M342 0h-387v59q65 8 109.5 47.5t70.5 114.5l428 1200h426l496 -1362h108v-59h-876v59h145l-356 985l-289 -813q-8 -22 -12 -42t-4 -39q0 -47 29.5 -69t93.5 -22h18v-59z" />
    <glyph glyph-name="Mu" unicode="&#x39c;" horiz-adv-x="1999" 
d="M270 217q0 -95 37 -126.5t146 -31.5h14v-59h-457v59q110 0 147.5 31.5t37.5 126.5v1149h-177v55h762l205 -596l207 596h766v-55h-162v-1307h162v-59h-905v59h166v1213l-441 -1272h-82l-426 1268v-1051z" />
    <glyph glyph-name="Nu" unicode="&#x39d;" horiz-adv-x="1622" 
d="M285 215q0 -95 36.5 -126.5t145.5 -31.5h14v-57h-471v57h15q110 0 147 31.5t37 126.5v1151h-199v55h772l559 -772v557q0 96 -37 128t-147 32h-14v55h471v-55h-15q-108 0 -145 -32t-37 -128v-1206h-313l-819 1135v-920z" />
    <glyph glyph-name="Xi" unicode="&#x39e;" horiz-adv-x="1565" 
d="M1421 877h-57v165h-1163v-165h-60v544h1280v-544zM1421 545v-545h-1280v545h60v-166h1163v166h57zM557 932v-94h451v94h59v-440h-59v94h-451v-94h-59v440h59z" />
    <glyph glyph-name="Omicron" unicode="&#x39f;" horiz-adv-x="1667" 
d="M696 266q0 -130 32.5 -189t102.5 -59q73 0 105.5 59t32.5 189v877q0 130 -32.5 188t-105.5 58q-71 0 -103 -58.5t-32 -187.5v-877zM61 705q0 144 55.5 283t151.5 235q109 110 251 166.5t312 56.5q171 0 314 -56.5t252 -166.5q96 -96 151.5 -235t55.5 -283
q0 -145 -55.5 -284t-151.5 -235q-110 -111 -253 -168t-313 -57q-169 0 -311 57t-252 168q-96 96 -151.5 235t-55.5 284z" />
    <glyph glyph-name="Pi" unicode="&#x3a0;" horiz-adv-x="1868" 
d="M41 0v59h168v1307h-168v55h1786v-55h-168v-1307h168v-59h-752v1366h-282v-1366h-752z" />
    <glyph glyph-name="Rho" unicode="&#x3a1;" horiz-adv-x="1706" 
d="M793 651h30q122 0 166.5 47.5t44.5 175.5v269q0 128 -44.5 175.5t-166.5 47.5h-30v-715zM39 0v59h170v1307h-170v55h1032q293 0 433.5 -101t140.5 -312q0 -124 -45 -205.5t-146 -140.5q-64 -38 -154.5 -54t-283.5 -16h-223v-533h192v-59h-946z" />
    <glyph glyph-name="Sigma" unicode="&#x3a3;" horiz-adv-x="1612" 
d="M1450 1421v-350h-61q-22 154 -138 224.5t-350 70.5h-192l413 -535l-704 -456h512q282 0 380 51.5t107 185.5h62v-612h-1407v238l577 370l-577 760v53h1378z" />
    <glyph glyph-name="Tau" unicode="&#x3a4;" horiz-adv-x="1532" 
d="M1251 0h-970v59h188v1307q-138 -11 -242 -125t-153 -311h-45v491h1474v-491h-45q-49 197 -153 311t-242 125v-1307h188v-59z" />
    <glyph glyph-name="Upsilon" unicode="&#x3a5;" horiz-adv-x="1688" 
d="M1350 0h-983v59h190v521l-463 786h-127v55h942v-55h-145l371 -625l247 435q15 26 21 46.5t6 39.5q0 50 -40.5 76t-117.5 26v57h449v-53q-68 -12 -115.5 -47t-87.5 -102l-338 -580v-580h191v-59z" />
    <glyph glyph-name="Chi" unicode="&#x3a7;" horiz-adv-x="1669" 
d="M600 553l-217 -295q-23 -32 -34 -58.5t-11 -52.5q0 -46 43.5 -67t140.5 -21h31v-59h-580v59q86 3 158.5 47t144.5 140l281 370l-473 750h-100v55h931v-55h-151l268 -418l164 215q25 34 36 60.5t11 50.5q0 47 -43.5 68.5t-142.5 21.5q-11 0 -17 0.5t-12 2.5v54h576v-55
q-87 -4 -158.5 -48.5t-145.5 -141.5l-225 -293l520 -824h91v-59h-932v59h155z" />
    <glyph glyph-name="Psi" unicode="&#x3a8;" horiz-adv-x="2617" 
d="M1602 1366v-887h28q100 0 144.5 53t44.5 173v716h706v-55h-123v-467q0 -155 -52.5 -257t-158.5 -155q-128 -63 -537 -68q-35 -1 -52 -1v-359h122v-59h-831v59h123v358q-222 4 -326 10.5t-145 18.5q-178 50 -254 154.5t-76 298.5v467h-123v55h707v-716q0 -120 44 -173
t144 -53h29v887h-123v55h831v-55h-122z" />
    <glyph glyph-name="Omega" unicode="&#x3a9;" horiz-adv-x="1667" 
d="M973 307v-55h606v94h59v-346h-723v367q32 6 44 33.5t12 107.5v694q0 96 -33.5 140t-106.5 44q-70 0 -102.5 -44t-32.5 -140v-694q0 -80 12 -107.5t44 -33.5v-367h-723v346h59v-94h606v55q-288 15 -461.5 163t-173.5 376q0 267 213.5 433.5t558.5 166.5
q348 0 561.5 -166.5t213.5 -433.5q0 -228 -173 -376t-460 -163z" />
    <glyph glyph-name="Iotadieresis" unicode="&#x3aa;" horiz-adv-x="1049" 
d="M55 0v59h181v1307h-181v55h938v-55h-180v-1307h180v-59h-938zM575 1743q0 57 42.5 99.5t101.5 42.5t101 -41.5t42 -100.5q0 -62 -41 -103.5t-102 -41.5t-102.5 42t-41.5 103zM184 1743q0 57 43.5 99.5t101.5 42.5q60 0 101 -41.5t41 -100.5q0 -63 -40 -104t-102 -41
q-60 0 -102.5 42t-42.5 103z" />
    <glyph glyph-name="Upsilondieresis" unicode="&#x3ab;" horiz-adv-x="1688" 
d="M1350 0h-983v59h190v521l-463 786h-127v55h942v-55h-145l371 -625l247 435q15 26 21 46.5t6 39.5q0 50 -40.5 76t-117.5 26v57h449v-53q-68 -12 -115.5 -47t-87.5 -102l-338 -580v-580h191v-59zM895 1743q0 57 42.5 99.5t101.5 42.5t101 -41.5t42 -100.5
q0 -62 -41 -103.5t-102 -41.5t-102.5 42t-41.5 103zM504 1743q0 57 43.5 99.5t101.5 42.5q60 0 101 -41.5t41 -100.5q0 -63 -40 -104t-102 -41q-60 0 -102.5 42t-42.5 103z" />
    <glyph glyph-name="alphaacute" unicode="&#x3ac;" horiz-adv-x="1384" 
d="M786 797h13v198h35q61 -14 128.5 -21t139.5 -7h235v-54h-104v-858h104v-55h-235q-72 0 -139.5 -7t-128.5 -22h-35v191h-13q-37 -97 -123.5 -149t-209.5 -52q-184 0 -295 141.5t-111 376.5t110.5 375.5t295.5 140.5q123 0 209.5 -51.5t123.5 -146.5zM555 678v-397
q0 -97 22 -139t72 -42q58 0 83.5 70.5t25.5 235.5v147q0 164 -25.5 234.5t-83.5 70.5q-50 0 -72 -42t-22 -138zM651 1100l-43 285q-2 17 -3 27t-1 20q0 36 25.5 61t62.5 25t62.5 -25t25.5 -61q0 -10 -1 -21t-3 -26l-43 -285h-82z" />
    <glyph glyph-name="epsilonacute" unicode="&#x3ad;" horiz-adv-x="1053" 
d="M1028 287q-11 -168 -127 -247t-354 -79q-254 0 -377 68.5t-123 210.5q0 138 110 200t359 62v24q-221 0 -323.5 52t-102.5 163q0 123 133 188.5t383 65.5q194 0 294.5 -56.5t100.5 -164.5q0 -70 -47 -111.5t-127 -41.5q-70 0 -112.5 38.5t-42.5 102.5q0 60 48 96.5
t48 42.5q0 17 -26.5 30t-63.5 13q-63 0 -95 -32t-32 -95v-80q0 -99 49 -149.5t145 -50.5h62v-52h-59q-112 0 -154.5 -35.5t-42.5 -127.5v-127q0 -89 36.5 -126.5t121.5 -37.5q112 0 183 69t79 187h57zM485 1100l-43 285q-2 17 -3 27t-1 20q0 36 25.5 61t62.5 25t62.5 -25
t25.5 -61q0 -10 -1 -21t-3 -26l-43 -285h-82z" />
    <glyph glyph-name="etaacute" unicode="&#x3ae;" horiz-adv-x="1432" 
d="M39 0v55h117v860h-117v52h266q72 0 139.5 7t128.5 21h35v-194h21q46 94 134.5 144t209.5 50q108 0 185 -46t104 -126q9 -33 13.5 -74t4.5 -133v-1017h115v-54h-699v54h115v1116q0 54 -16 80t-50 26q-58 0 -88 -63.5t-30 -188.5v-514h63v-55h-651zM676 1100l-43 285
q-2 17 -3 27t-1 20q0 36 25.5 61t62.5 25t62.5 -25t25.5 -61q0 -10 -1 -21t-3 -26l-43 -285h-82z" />
    <glyph glyph-name="iotaacute" unicode="&#x3af;" horiz-adv-x="801" 
d="M33 0v55h133v860h-119v52h289q71 0 138.5 7t129.5 21h35v-940h123v-55h-729zM360 1100l-43 285q-2 17 -3 27t-1 20q0 36 25.5 61t62.5 25t62.5 -25t25.5 -61q0 -10 -1 -21t-3 -26l-43 -285h-82z" />
    <glyph glyph-name="upsilonacutedieresis" unicode="&#x3b0;" horiz-adv-x="1436" 
d="M39 967h588v-836q0 -61 21.5 -88t70.5 -27q48 0 70 27t22 88v784h-90v52h678v-52h-119v-499q0 -253 -123.5 -354t-437.5 -101q-315 0 -439 101.5t-124 353.5v499h-117v52zM678 1100l-43 284q-3 19 -3.5 28t-0.5 20q0 37 24.5 61.5t61.5 24.5t63.5 -25t26.5 -61
q0 -9 -1 -20.5t-3 -26.5l-45 -285h-80zM860 1243q0 53 39 92t92 39q55 0 94 -38.5t39 -92.5q0 -58 -37.5 -95.5t-95.5 -37.5q-55 0 -93 39t-38 94zM578 1243q0 -55 -39 -94t-95 -39q-57 0 -94 37.5t-37 95.5q0 54 38.5 92.5t92.5 38.5t94 -39t40 -92z" />
    <glyph glyph-name="beta" unicode="&#x3b2;" horiz-adv-x="1395" 
d="M631 1274v-1004q0 -91 20 -124t70 -33q48 0 71 37.5t23 117.5v293q0 89 -31.5 130t-109.5 54v53q65 2 94 46.5t29 146.5v285q0 68 -22 102.5t-66 34.5q-43 0 -60.5 -30.5t-17.5 -108.5zM936 794v-34q192 -8 296.5 -112.5t104.5 -287.5q0 -184 -105 -291.5t-288 -107.5
q-99 0 -172 28.5t-125 86.5h-16v-477h170v-54h-750v54h105v1368q0 255 143 377t442 122q266 0 407.5 -94t141.5 -270q0 -142 -90 -220t-264 -88z" />
    <glyph glyph-name="gamma" unicode="&#x3b3;" horiz-adv-x="1421" 
d="M1155 -455h-850v54h191v456l-410 860h-104v52h753v-52h-137l334 -702l242 514q13 30 19.5 50.5t6.5 35.5q0 46 -33 71.5t-100 31.5v51h377v-51q-67 -10 -106 -40t-76 -108l-297 -623v-546h190v-54z" />
    <glyph glyph-name="zeta" unicode="&#x3b6;" horiz-adv-x="1241" 
d="M1145 1149q-428 -172 -572.5 -289t-144.5 -266q0 -95 50.5 -131.5t195.5 -36.5h235q171 0 245.5 -102t74.5 -340q0 -226 -82.5 -334.5t-253.5 -108.5q-23 0 -49 3t-56 10v57q31 -6 57 -9t48 -3q115 0 181.5 56t66.5 152t-45 144.5t-133 48.5h-527q-186 0 -288.5 108
t-102.5 302q0 229 195.5 385.5t824.5 375.5h-829v250h909v-272z" />
    <glyph glyph-name="eta" unicode="&#x3b7;" horiz-adv-x="1432" 
d="M39 0v55h117v860h-117v52h266q72 0 139.5 7t128.5 21h35v-194h21q46 94 134.5 144t209.5 50q108 0 185 -46t104 -126q9 -33 13.5 -74t4.5 -133v-1017h115v-54h-699v54h115v1116q0 54 -16 80t-50 26q-58 0 -88 -63.5t-30 -188.5v-514h63v-55h-651z" />
    <glyph glyph-name="theta" unicode="&#x3b8;" horiz-adv-x="1356" 
d="M569 754h217v440q0 102 -25.5 148.5t-82.5 46.5t-83 -46.5t-26 -148.5v-440zM47 705q0 343 170 542t461 199t461 -199.5t170 -541.5q0 -344 -170.5 -544t-460.5 -200q-292 0 -461.5 199t-169.5 545zM786 213v461h-217v-461q0 -102 26 -148.5t83 -46.5t82.5 46.5
t25.5 148.5z" />
    <glyph glyph-name="iota" unicode="&#x3b9;" horiz-adv-x="801" 
d="M33 0v55h133v860h-119v52h289q71 0 138.5 7t129.5 21h35v-940h123v-55h-729z" />
    <glyph glyph-name="kappa" unicode="&#x3ba;" horiz-adv-x="1507" 
d="M25 0v55h131v860h-117v52h283q71 0 138.5 7t129.5 21h37v-528l301 281q31 27 46 52t15 48q0 36 -35 51.5t-118 15.5h-56v52h637v-52h-22q-91 0 -162.5 -25t-134.5 -79l-107 -90l453 -666h80v-55h-723v55h119l-248 391l-45 -45v-346h108v-55h-710z" />
    <glyph glyph-name="lambda" unicode="&#x3bb;" horiz-adv-x="1403" 
d="M492 649l-265 -463q-11 -20 -16.5 -35t-5.5 -28q0 -38 28.5 -54t100.5 -18v-51h-348v53q107 18 192 167l4 7l279 484l-318 659h-120v51h622l653 -1370h105v-51h-744v51h117z" />
    <glyph glyph-name="greekmu" unicode="&#x3bc;" horiz-adv-x="1432" 
d="M1276 51h119v-51h-269q-71 0 -138.5 -7t-129.5 -22h-35v185h-14q-40 -69 -87 -107.5t-101 -46.5v-403h118v-54h-700v54h113v1316h-113v52h278q72 0 139.5 7t129.5 21h35v-751q0 -55 16 -81t49 -26q59 0 90 64t31 186v528h-66v52h232q71 0 137.5 7t128.5 21h37v-944z" />
    <glyph glyph-name="nu" unicode="&#x3bd;" horiz-adv-x="1266" 
d="M786 0h-286l-410 915h-96v52h573l285 -639l184 456q5 13 7.5 28.5t3.5 31.5q0 37 -31 54t-98 17v52h346v-52h-7q-53 0 -96.5 -47.5t-87.5 -156.5z" />
    </font>
</defs>
</svg>
